{
.appVersion = "3260";
.formatVersion = 3;
axes = (
{
name = Curvature;
tag = CRVT;
}
);
customParameters = (
{
name = panose;
value = (
2,
11,
5,
2,
4,
5,
4,
2,
2,
4
);
},
{
name = unicodeRanges;
value = (
0,
1,
6,
13,
31,
38,
45,
46,
71
);
},
{
name = fsType;
value = (
);
},
{
name = blueScale;
value = 0.050000000745;
},
{
name = glyphOrder;
value = (
.notdef,
NULL,
CR,
space,
uni00A0,
uni200C,
uni200D,
uni200E,
uni200F,
uni0710,
uni0710.fin3,
uni0710.fin2,
uni0710.fina,
uni0710.med2,
uni0711,
uni0712,
uni0712.fina,
uni0712.medi,
uni0712.init,
uni0713,
uni0713.fina,
uni0713.medi,
uni0713.init,
uni0714,
uni0714.fina,
uni0714.medi,
uni0714.init,
uni0715,
uni0715.fina,
uni0716,
uni0716.fina,
uni0717,
uni0717.fina,
uni0718,
uni0718.fina,
uni0719,
uni0719.fina,
uni071A,
uni071A.fina,
uni071A.medi,
uni071A.init,
uni071B,
uni071B.fina,
uni071B.medi,
uni071B.init,
uni071C,
uni071C.fina,
uni071C.medi,
uni071C.init,
uni071D,
uni071D.fina,
uni071D.medi,
uni071D.init,
uni071E,
uni071F,
uni071F.fina,
uni071F.medi,
uni071F.init,
uni0720,
uni0720.fina,
uni0720.medi,
uni0720.init,
uni0721,
uni0721.fina,
uni0721.medi,
uni0721.init,
uni0722,
uni0722.fina,
uni0722.medi,
uni0722.init,
uni0723,
uni0723.fina,
uni0723.medi,
uni0723.init,
uni0724,
uni0724.fina,
uni0724.medi,
uni0724.init,
uni0725,
uni0725.fina,
uni0725.medi,
uni0725.init,
uni0726,
uni0726.fina,
uni0726.medi,
uni0726.init,
uni0727,
uni0727.fina,
uni0727.medi,
uni0727.init,
uni0728,
uni0728.fina,
uni0729,
uni0729.fina,
uni0729.medi,
uni0729.init,
uni072A,
uni072A.fina,
uni072B,
uni072B.fina,
uni072B.medi,
uni072B.init,
uni072C,
uni072C.fina,
uni0640,
uni0700,
uni0701,
uni0702,
uni0703,
uni0704,
uni0705,
uni0706,
uni0707,
uni0708,
uni0709,
uni070A,
uni070B,
uni070C,
uni070D,
uni070F,
uni0730,
uni0731,
uni0732,
uni0733,
uni0734,
uni0735,
uni0736,
uni0737,
uni0738,
uni0739,
uni073A,
uni073B,
uni073C,
uni073D,
uni073E,
uni073F,
uni0740,
uni0741,
uni0742,
uni0743,
uni0744,
uni0745,
uni0746,
uni0747,
uni0748,
uni0749,
uni074A,

glyphs = (
{
glyphname = .notdef;
lastChange = "2024-07-19 06:05:23 +0000";
layers = (
{
hints = (
{
horizontal = 1;
place = (332,25);
type = Stem;
},
{
horizontal = 1;
place = (0,26);
type = Stem;
},
{
place = (227,26);
type = Stem;
},
{
place = (47,26);
type = Stem;
}
);
layerId = m01;
shapes = (
{
closed = 1;
nodes = (
(47,0,l),
(253,0,l),
(253,357,l),
(47,357,l)
);
},
{
closed = 1;
nodes = (
(73,26,l),
(73,332,l),
(227,332,l),
(227,26,l)
);
}
);
width = 300;
},
{
hints = (
{
horizontal = 1;
place = (332,25);
type = Stem;
},
{
horizontal = 1;
place = (0,26);
type = Stem;
},
{
place = (227,26);
type = Stem;
},
{
place = (47,26);
type = Stem;
}
);
layerId = "9037C244-7DB9-46F9-B5BF-70F624EA3C1F";
shapes = (
{
closed = 1;
nodes = (
(47,20,ls),
(47,7,o),
(54,0,o),
(67,0,cs),
(233,0,ls),
(246,0,o),
(253,7,o),
(253,20,cs),
(253,337,ls),
(253,350,o),
(246,357,o),
(233,357,cs),
(67,357,ls),
(54,357,o),
(47,350,o),
(47,337,cs)
);
},
{
closed = 1;
nodes = (
(73,26,l),
(73,332,l),
(227,332,l),
(227,26,l)
);
}
);
width = 300;
}
);
note = .notdef;
},
{
glyphname = uni200E;
lastChange = "2024-07-19 06:05:23 +0000";
layers = (
{
hints = (
{
horizontal = 1;
place = (363,-20);
target = down;
type = TopGhost;
},
{
horizontal = 1;
place = (302,17);
type = Stem;
},
{
horizontal = 1;
place = (0,21);
target = up;
type = BottomGhost;
},
{
place = (-9,18);
type = Stem;
}
);
layerId = m01;
shapes = (
{
closed = 1;
nodes = (
(40,351,l),
(74,319,l),
(-9,319,l),
(-9,0,l),
(9,0,l),
(9,302,l),
(74,302,l),
(40,270,l),
(52,258,l),
(105,310,l),
(52,363,l)
);
}
);
width = 0;
},
{
hints = (
{
horizontal = 1;
place = (363,-20);
target = down;
type = TopGhost;
},
{
horizontal = 1;
place = (302,17);
type = Stem;
},
{
horizontal = 1;
place = (0,21);
target = up;
type = BottomGhost;
},
{
place = (-9,18);
type = Stem;
}
);
layerId = "9037C244-7DB9-46F9-B5BF-70F624EA3C1F";
shapes = (
{
closed = 1;
nodes = (
(46,357,ls),
(42,353,o),
(46,346,o),
(55,337,cs),
(74,319,l),
(11,319,ls),
(-2,319,o),
(-9,312,o),
(-9,299,cs),
(-9,20,ls),
(-9,7,o),
(-5,0,o),
(0,0,cs),
(0,0,ls),
(5,0,o),
(9,7,o),
(9,20,cs),
(9,302,l),
(74,302,l),
(55,284,ls),
(46,275,o),
(42,268,o),
(46,264,cs),
(46,264,ls),
(50,260,o),
(57,263,o),
(66,272,cs),
(91,296,ls),
(100,305,o),
(100,315,o),
(91,324,cs),
(66,349,ls),
(57,358,o),
(50,361,o),
(46,357,cs)
);
}
);
width = 0;
}
);
note = uni200E;
unicode = 8206;
},
{
glyphname = uni200F;
lastChange = "2024-07-19 06:05:23 +0000";
layers = (
{
hints = (
{
horizontal = 1;
place = (363,-20);
target = down;
type = TopGhost;
},
{
horizontal = 1;
place = (302,17);
type = Stem;
},
{
horizontal = 1;
place = (0,21);
target = up;
type = BottomGhost;
},
{
place = (-9,18);
type = Stem;
}
);
layerId = m01;
shapes = (
{
closed = 1;
nodes = (
(-40,270,l),
(-73,302,l),
(-9,302,l),
(-9,0,l),
(9,0,l),
(9,319,l),
(-73,319,l),
(-40,351,l),
(-52,363,l),
(-105,310,l),
(-52,258,l)
);
}
);
width = 0;
},
{
hints = (
{
horizontal = 1;
place = (363,-20);
target = down;
type = TopGhost;
},
{
horizontal = 1;
place = (302,17);
type = Stem;
},
{
horizontal = 1;
place = (0,21);
target = up;
type = BottomGhost;
},
{
place = (-9,18);
type = Stem;
}
);
layerId = "9037C244-7DB9-46F9-B5BF-70F624EA3C1F";
shapes = (
{
closed = 1;
nodes = (
(-46,264,ls),
(-42,268,o),
(-45,275,o),
(-54,284,cs),
(-73,302,l),
(-9,302,l),
(-9,20,ls),
(-9,7,o),
(-5,0,o),
(0,0,cs),
(0,0,ls),
(5,0,o),
(9,7,o),
(9,20,cs),
(9,299,ls),
(9,312,o),
(2,319,o),
(-11,319,cs),
(-73,319,l),
(-54,337,ls),
(-45,346,o),
(-42,353,o),
(-46,357,cs),
(-46,357,ls),
(-50,361,o),
(-57,358,o),
(-66,349,cs),
(-91,324,ls),
(-100,315,o),
(-100,305,o),
(-91,296,cs),
(-66,272,ls),
(-57,263,o),
(-50,260,o),
(-46,264,cs)
);
}
);
width = 0;
}
);
note = uni200F;
unicode = 8207;
},
{
glyphname = uni0710;
lastChange = "2024-07-19 06:05:23 +0000";
layers = (
{
anchors = (
{
name = bottom;
pos = (278,-20);
},
{
name = top;
pos = (278,323);
}
);
hints = (
{
horizontal = 1;
place = (202,101);
type = Stem;
},
{
horizontal = 1;
place = (0,21);
target = up;
type = BottomGhost;
},
{
place = (253,101);
type = Stem;
},
{
place = (51,101);
type = Stem;
}
);
layerId = m01;
shapes = (
{
closed = 1;
nodes = (
(557,303,l),
(51,303,l),
(51,0,l),
(152,0,l),
(152,202,l),
(253,202,l),
(253,0,l),
(354,0,l),
(354,202,l),
(557,202,l)
);
}
);
width = 505;
},
{
anchors = (
{
name = bottom;
pos = (278,-20);
},
{
name = top;
pos = (278,323);
}
);
hints = (
{
horizontal = 1;
place = (202,101);
type = Stem;
},
{
horizontal = 1;
place = (0,21);
target = up;
type = BottomGhost;
},
{
place = (253,101);
type = Stem;
},
{
place = (51,101);
type = Stem;
}
);
layerId = "9037C244-7DB9-46F9-B5BF-70F624EA3C1F";
shapes = (
{
closed = 1;
nodes = (
(557,283,ls),
(557,296,o),
(550,303,o),
(537,303,cs),
(71,303,ls),
(58,303,o),
(51,296,o),
(51,283,cs),
(51,20,ls),
(51,7,o),
(58,0,o),
(71,0,cs),
(132,0,ls),
(145,0,o),
(152,7,o),
(152,20,cs),
(152,202,l),
(253,202,l),
(253,20,ls),
(253,7,o),
(260,0,o),
(273,0,cs),
(334,0,ls),
(347,0,o),
(354,7,o),
(354,20,cs),
(354,202,l),
(537,202,ls),
(550,202,o),
(557,209,o),
(557,222,cs)
);
}
);
width = 505;
}
);
note = uni0710;
unicode = 1808;
},
{
glyphname = uni0710.fin3;
lastChange = "2024-07-22 06:27:15 +0000";
layers = (
{
anchors = (
{
name = bottom;
pos = (278,-20);
},
{
name = top;
pos = (278,323);
}
);
hints = (
{
horizontal = 1;
place = (202,101);
type = Stem;
},
{
horizontal = 1;
place = (0,21);
target = up;
type = BottomGhost;
},
{
place = (253,101);
type = Stem;
},
{
place = (51,101);
type = Stem;
}
);
layerId = m01;
shapes = (
{
closed = 1;
nodes = (
(557,303,l),
(51,303,l),
(51,0,l),
(152,0,l),
(152,202,l),
(253,202,l),
(253,0,l),
(354,0,l),
(354,202,l),
(557,202,l)
);
}
);
width = 505;
},
{
anchors = (
{
name = bottom;
pos = (278,-20);
},
{
name = top;
pos = (278,323);
}
);
hints = (
{
horizontal = 1;
place = (202,101);
type = Stem;
},
{
horizontal = 1;
place = (0,21);
target = up;
type = BottomGhost;
},
{
place = (253,101);
type = Stem;
},
{
place = (51,101);
type = Stem;
}
);
layerId = "9037C244-7DB9-46F9-B5BF-70F624EA3C1F";
shapes = (
{
closed = 1;
nodes = (
(557,283,ls),
(557,296,o),
(550,303,o),
(537,303,cs),
(71,303,ls),
(58,303,o),
(51,296,o),
(51,283,cs),
(51,20,ls),
(51,7,o),
(58,0,o),
(71,0,cs),
(132,0,ls),
(145,0,o),
(152,7,o),
(152,20,cs),
(152,202,l),
(253,202,l),
(253,20,ls),
(253,7,o),
(260,0,o),
(273,0,cs),
(334,0,ls),
(347,0,o),
(354,7,o),
(354,20,cs),
(354,202,l),
(537,202,ls),
(550,202,o),
(557,209,o),
(557,222,cs)
);
}
);
width = 505;
}
);
note = uni0710.fin3;
},
{
glyphname = uni0710.fin2;
lastChange = "2024-07-22 06:20:48 +0000";
layers = (
{
anchors = (
{
name = bottom;
pos = (278,-20);
},
{
name = top;
pos = (278,323);
}
);
hints = (
{
horizontal = 1;
place = (202,101);
type = Stem;
},
{
horizontal = 1;
place = (0,21);
target = up;
type = BottomGhost;
},
{
place = (253,101);
type = Stem;
},
{
place = (51,101);
type = Stem;
}
);
layerId = m01;
shapes = (
{
closed = 1;
nodes = (
(557,303,l),
(51,303,l),
(51,0,l),
(152,0,l),
(152,202,l),
(253,202,l),
(253,0,l),
(354,0,l),
(354,202,l),
(557,202,l)
);
}
);
width = 505;
},
{
anchors = (
{
name = bottom;
pos = (278,-20);
},
{
name = top;
pos = (278,323);
}
);
hints = (
{
horizontal = 1;
place = (202,101);
type = Stem;
},
{
horizontal = 1;
place = (0,21);
target = up;
type = BottomGhost;
},
{
place = (253,101);
type = Stem;
},
{
place = (51,101);
type = Stem;
}
);
layerId = "9037C244-7DB9-46F9-B5BF-70F624EA3C1F";
shapes = (
{
closed = 1;
nodes = (
(562,283,ls),
(562,296,o),
(555,303,o),
(542,303,cs),
(71,303,ls),
(58,303,o),
(51,296,o),
(51,283,cs),
(51,20,ls),
(51,7,o),
(58,0,o),
(71,0,cs),
(132,0,ls),
(145,0,o),
(152,7,o),
(152,20,cs),
(152,202,l),
(253,202,l),
(253,20,ls),
(253,7,o),
(260,0,o),
(273,0,cs),
(334,0,ls),
(347,0,o),
(354,7,o),
(354,20,cs),
(354,202,l),
(542,202,ls),
(555,202,o),
(562,209,o),
(562,222,cs)
);
}
);
width = 505;
}
);
note = uni0710.fin2;
},
{
glyphname = uni0710.fina;
lastChange = "2024-07-22 06:25:52 +0000";
layers = (
{
anchors = (
{
name = bottom;
pos = (278,-20);
},
{
name = top;
pos = (278,323);
}
);
hints = (
{
horizontal = 1;
place = (202,101);
type = Stem;
},
{
horizontal = 1;
place = (0,101);
type = Stem;
},
{
place = (253,101);
type = Stem;
},
{
place = (51,101);
type = Stem;
}
);
layerId = m01;
shapes = (
{
closed = 1;
nodes = (
(557,303,l),
(51,303,l),
(51,0,l),
(152,0,l),
(152,202,l),
(253,202,l),
(253,0,l),
(556,0,l),
(556,101,l),
(354,101,l),
(354,202,l),
(557,202,l)
);
}
);
width = 556;
},
{
anchors = (
{
name = bottom;
pos = (278,-20);
},
{
name = top;
pos = (278,323);
}
);
hints = (
{
horizontal = 1;
place = (202,101);
type = Stem;
},
{
horizontal = 1;
place = (0,101);
type = Stem;
},
{
place = (253,101);
type = Stem;
},
{
place = (51,101);
type = Stem;
}
);
layerId = "9037C244-7DB9-46F9-B5BF-70F624EA3C1F";
shapes = (
{
closed = 1;
nodes = (
(557,283,ls),
(557,296,o),
(550,303,o),
(537,303,cs),
(71,303,ls),
(58,303,o),
(51,296,o),
(51,283,cs),
(51,20,ls),
(51,7,o),
(58,0,o),
(71,0,cs),
(132,0,ls),
(145,0,o),
(152,7,o),
(152,20,cs),
(152,202,l),
(253,202,l),
(253,20,ls),
(253,7,o),
(260,0,o),
(273,0,cs),
(558,0,l),
(558,101,l),
(354,101,l),
(354,202,l),
(537,202,ls),
(550,202,o),
(557,209,o),
(557,222,cs)
);
}
);
width = 556;
}
);
note = uni0710.fina;
},
{
glyphname = uni0710.med2;
lastChange = "2024-07-22 06:26:36 +0000";
layers = (
{
anchors = (
{
name = bottom;
pos = (278,-20);
},
{
name = top;
pos = (278,323);
}
);
hints = (
{
horizontal = 1;
place = (202,101);
type = Stem;
},
{
horizontal = 1;
place = (0,101);
type = Stem;
},
{
place = (253,101);
type = Stem;
},
{
place = (51,101);
type = Stem;
}
);
layerId = m01;
shapes = (
{
closed = 1;
nodes = (
(557,303,l),
(51,303,l),
(51,0,l),
(152,0,l),
(152,202,l),
(253,202,l),
(253,0,l),
(557,0,l),
(557,101,l),
(354,101,l),
(354,202,l),
(557,202,l)
);
}
);
width = 556;
},
{
anchors = (
{
name = bottom;
pos = (278,-20);
},
{
name = top;
pos = (278,323);
}
);
hints = (
{
horizontal = 1;
place = (202,101);
type = Stem;
},
{
horizontal = 1;
place = (0,101);
type = Stem;
},
{
place = (253,101);
type = Stem;
},
{
place = (51,101);
type = Stem;
}
);
layerId = "9037C244-7DB9-46F9-B5BF-70F624EA3C1F";
shapes = (
{
closed = 1;
nodes = (
(557,283,ls),
(557,296,o),
(550,303,o),
(537,303,cs),
(71,303,ls),
(58,303,o),
(51,296,o),
(51,283,cs),
(51,20,ls),
(51,7,o),
(58,0,o),
(71,0,cs),
(132,0,ls),
(145,0,o),
(152,7,o),
(152,20,cs),
(152,202,l),
(253,202,l),
(253,20,ls),
(253,7,o),
(260,0,o),
(273,0,cs),
(557,0,l),
(557,101,l),
(354,101,l),
(354,202,l),
(537,202,ls),
(550,202,o),
(557,209,o),
(557,222,cs)
);
}
);
width = 556;
}
);
note = uni0710.med2;
},
{
glyphname = uni0711;
lastChange = "2024-07-21 17:56:46 +0000";
layers = (
{
anchors = (
{
name = _top;
pos = (52,463);
}
);
hints = (
{
horizontal = 1;
place = (619,53);
type = Stem;
},
{
horizontal = 1;
place = (505,167);
type = Stem;
},
{
place = (50,55);
type = Stem;
},
{
place = (-58,55);
type = Stem;
}
);
layerId = m01;
shapes = (
{
closed = 1;
nodes = (
(106,546,l),
(0,546,l),
(0,483,l),
(21,483,l),
(21,526,l),
(42,526,l),
(42,483,l),
(63,483,l),
(63,526,l),
(106,526,l)
);
}
);
width = 101;
},
{
anchors = (
{
name = _top;
pos = (52,463);
}
);
hints = (
{
horizontal = 1;
place = (619,53);
type = Stem;
},
{
horizontal = 1;
place = (505,167);
type = Stem;
},
{
place = (50,55);
type = Stem;
},
{
place = (-58,55);
type = Stem;
}
);
layerId = "9037C244-7DB9-46F9-B5BF-70F624EA3C1F";
shapes = (
{
closed = 1;
nodes = (
(106,536,ls),
(106,542,o),
(99,546,o),
(86,546,cs),
(20,546,ls),
(7,546,o),
(0,539,o),
(0,526,cs),
(0,503,ls),
(0,490,o),
(4,483,o),
(11,483,cs),
(11,483,ls),
(17,483,o),
(21,490,o),
(21,503,cs),
(21,526,l),
(42,526,l),
(42,503,ls),
(42,490,o),
(46,483,o),
(53,483,cs),
(53,483,ls),
(59,483,o),
(63,490,o),
(63,503,cs),
(63,526,l),
(86,526,ls),
(99,526,o),
(106,530,o),
(106,536,cs)
);
}
);
width = 101;
}
);
note = uni0711;
unicode = 1809;
},
{
glyphname = uni0712;
lastChange = "2024-07-19 06:05:23 +0000";
layers = (
{
anchors = (
{
name = bottom;
pos = (354,-20);
},
{
name = top;
pos = (354,323);
}
);
hints = (
{
horizontal = 1;
place = (202,101);
type = Stem;
},
{
horizontal = 1;
place = (0,101);
type = Stem;
},
{
place = (455,101);
type = Stem;
}
);
layerId = m01;
shapes = (
{
closed = 1;
nodes = (
(455,101,l),
(51,101,l),
(51,0,l),
(556,0,l),
(556,303,l),
(152,303,l),
(152,202,l),
(455,202,l)
);
}
);
width = 556;
},
{
anchors = (
{
name = bottom;
pos = (354,-20);
},
{
name = top;
pos = (354,323);
}
);
hints = (
{
horizontal = 1;
place = (202,101);
type = Stem;
},
{
horizontal = 1;
place = (0,101);
type = Stem;
},
{
place = (455,101);
type = Stem;
}
);
layerId = "9037C244-7DB9-46F9-B5BF-70F624EA3C1F";
shapes = (
{
closed = 1;
nodes = (
(455,101,l),
(71,101,ls),
(58,101,o),
(51,94,o),
(51,81,cs),
(51,20,ls),
(51,7,o),
(58,0,o),
(71,0,cs),
(536,0,ls),
(549,0,o),
(556,7,o),
(556,20,cs),
(556,283,ls),
(556,296,o),
(549,303,o),
(536,303,cs),
(172,303,ls),
(159,303,o),
(152,296,o),
(152,283,cs),
(152,222,ls),
(152,209,o),
(159,202,o),
(172,202,cs),
(455,202,l)
);
}
);
width = 556;
}
);
note = uni0712;
unicode = 1810;
},
{
glyphname = uni0712.fina;
lastChange = "2024-07-22 05:52:57 +0000";
layers = (
{
anchors = (
{
name = bottom;
pos = (354,-20);
},
{
name = top;
pos = (354,323);
}
);
hints = (
{
horizontal = 1;
place = (202,101);
type = Stem;
},
{
horizontal = 1;
place = (0,101);
type = Stem;
},
{
place = (455,101);
type = Stem;
}
);
layerId = m01;
shapes = (
{
closed = 1;
nodes = (
(455,101,l),
(51,101,l),
(51,0,l),
(606,0,l),
(606,101,l),
(556,101,l),
(556,303,l),
(152,303,l),
(152,202,l),
(455,202,l)
);
}
);
width = 606;
},
{
anchors = (
{
name = bottom;
pos = (354,-20);
},
{
name = top;
pos = (354,323);
}
);
hints = (
{
horizontal = 1;
place = (202,101);
type = Stem;
},
{
horizontal = 1;
place = (0,101);
type = Stem;
},
{
place = (455,101);
type = Stem;
}
);
layerId = "9037C244-7DB9-46F9-B5BF-70F624EA3C1F";
shapes = (
{
closed = 1;
nodes = (
(455,101,l),
(71,101,ls),
(58,101,o),
(51,94,o),
(51,81,cs),
(51,20,ls),
(51,7,o),
(58,0,o),
(71,0,cs),
(607,0,l),
(607,101,l),
(556,101,l),
(556,283,ls),
(556,296,o),
(549,303,o),
(536,303,cs),
(172,303,ls),
(159,303,o),
(152,296,o),
(152,283,cs),
(152,222,ls),
(152,209,o),
(159,202,o),
(172,202,cs),
(455,202,l)
);
}
);
width = 606;
}
);
note = uni0712.fina;
},
{
glyphname = uni0712.medi;
lastChange = "2024-07-22 05:53:10 +0000";
layers = (
{
anchors = (
{
name = bottom;
pos = (303,-20);
},
{
name = top;
pos = (303,323);
}
);
hints = (
{
horizontal = 1;
place = (202,101);
type = Stem;
},
{
horizontal = 1;
place = (0,101);
type = Stem;
},
{
place = (404,101);
type = Stem;
}
);
layerId = m01;
shapes = (
{
closed = 1;
nodes = (
(404,101,l),
(-50,101,l),
(-50,0,l),
(555,0,l),
(555,101,l),
(505,101,l),
(505,303,l),
(101,303,l),
(101,202,l),
(404,202,l)
);
}
);
width = 555;
},
{
anchors = (
{
name = bottom;
pos = (303,-20);
},
{
name = top;
pos = (303,323);
}
);
hints = (
{
horizontal = 1;
place = (202,101);
type = Stem;
},
{
horizontal = 1;
place = (0,101);
type = Stem;
},
{
place = (404,101);
type = Stem;
}
);
layerId = "9037C244-7DB9-46F9-B5BF-70F624EA3C1F";
shapes = (
{
closed = 1;
nodes = (
(404,101,l),
(-30,101,ls),
(-43,101,o),
(-50,94,o),
(-50,81,cs),
(-50,20,ls),
(-50,7,o),
(-43,0,o),
(-30,0,cs),
(556,0,l),
(556,101,l),
(505,101,l),
(505,283,ls),
(505,296,o),
(498,303,o),
(485,303,cs),
(121,303,ls),
(108,303,o),
(101,296,o),
(101,283,cs),
(101,222,ls),
(101,209,o),
(108,202,o),
(121,202,cs),
(404,202,l)
);
}
);
width = 555;
}
);
note = uni0712.medi;
},
{
glyphname = uni0712.init;
lastChange = "2024-07-19 06:05:23 +0000";
layers = (
{
anchors = (
{
name = bottom;
pos = (303,-20);
},
{
name = top;
pos = (303,323);
}
);
hints = (
{
horizontal = 1;
place = (202,101);
type = Stem;
},
{
horizontal = 1;
place = (0,101);
type = Stem;
},
{
place = (404,101);
type = Stem;
}
);
layerId = m01;
shapes = (
{
closed = 1;
nodes = (
(404,101,l),
(-50,101,l),
(-50,0,l),
(505,0,l),
(505,303,l),
(101,303,l),
(101,202,l),
(404,202,l)
);
}
);
width = 505;
},
{
anchors = (
{
name = bottom;
pos = (303,-20);
},
{
name = top;
pos = (303,323);
}
);
hints = (
{
horizontal = 1;
place = (202,101);
type = Stem;
},
{
horizontal = 1;
place = (0,101);
type = Stem;
},
{
place = (404,101);
type = Stem;
}
);
layerId = "9037C244-7DB9-46F9-B5BF-70F624EA3C1F";
shapes = (
{
closed = 1;
nodes = (
(404,101,l),
(-30,101,ls),
(-43,101,o),
(-50,94,o),
(-50,81,cs),
(-50,20,ls),
(-50,7,o),
(-43,0,o),
(-30,0,cs),
(485,0,ls),
(498,0,o),
(505,7,o),
(505,20,cs),
(505,283,ls),
(505,296,o),
(498,303,o),
(485,303,cs),
(121,303,ls),
(108,303,o),
(101,296,o),
(101,283,cs),
(101,222,ls),
(101,209,o),
(108,202,o),
(121,202,cs),
(404,202,l)
);
}
);
width = 505;
}
);
note = uni0712.init;
},
{
glyphname = uni0713;
lastChange = "2024-07-19 06:05:23 +0000";
layers = (
{
anchors = (
{
name = bottom;
pos = (253,-20);
},
{
name = top;
pos = (303,323);
}
);
hints = (
{
horizontal = 1;
place = (0,101);
type = Stem;
},
{
place = (354,101);
type = Stem;
},
{
place = (253,101);
type = Stem;
}
);
layerId = m01;
shapes = (
{
closed = 1;
nodes = (
(51,0,l),
(354,0,l),
(354,-202,l),
(455,-202,l),
(455,101,l),
(354,101,l),
(354,303,l),
(253,303,l),
(253,101,l),
(51,101,l)
);
}
);
width = 455;
},
{
anchors = (
{
name = bottom;
pos = (253,-20);
},
{
name = top;
pos = (303,323);
}
);
hints = (
{
horizontal = 1;
place = (0,101);
type = Stem;
},
{
place = (354,101);
type = Stem;
},
{
place = (253,101);
type = Stem;
}
);
layerId = "9037C244-7DB9-46F9-B5BF-70F624EA3C1F";
shapes = (
{
closed = 1;
nodes = (
(51,20,ls),
(51,7,o),
(58,0,o),
(71,0,cs),
(354,0,l),
(354,-182,ls),
(354,-195,o),
(361,-202,o),
(374,-202,cs),
(435,-202,ls),
(448,-202,o),
(455,-195,o),
(455,-182,cs),
(455,81,ls),
(455,94,o),
(448,101,o),
(435,101,cs),
(354,101,l),
(354,283,ls),
(354,296,o),
(347,303,o),
(334,303,cs),
(273,303,ls),
(260,303,o),
(253,296,o),
(253,283,cs),
(253,101,l),
(71,101,ls),
(58,101,o),
(51,94,o),
(51,81,cs)
);
}
);
width = 455;
}
);
note = uni0713;
unicode = 1811;
},
{
glyphname = uni0713.fina;
lastChange = "2024-07-22 05:53:27 +0000";
layers = (
{
anchors = (
{
name = bottom;
pos = (253,-20);
},
{
name = top;
pos = (303,323);
}
);
hints = (
{
horizontal = 1;
place = (0,101);
type = Stem;
},
{
place = (354,101);
type = Stem;
},
{
place = (253,101);
type = Stem;
}
);
layerId = m01;
shapes = (
{
closed = 1;
nodes = (
(51,0,l),
(354,0,l),
(354,-202,l),
(455,-202,l),
(455,0,l),
(505,0,l),
(505,101,l),
(354,101,l),
(354,303,l),
(253,303,l),
(253,101,l),
(51,101,l)
);
}
);
width = 505;
},
{
anchors = (
{
name = bottom;
pos = (253,-20);
},
{
name = top;
pos = (303,323);
}
);
hints = (
{
horizontal = 1;
place = (0,101);
type = Stem;
},
{
place = (354,101);
type = Stem;
},
{
place = (253,101);
type = Stem;
}
);
layerId = "9037C244-7DB9-46F9-B5BF-70F624EA3C1F";
shapes = (
{
closed = 1;
nodes = (
(51,20,ls),
(51,7,o),
(58,0,o),
(71,0,cs),
(354,0,l),
(354,-182,ls),
(354,-195,o),
(361,-202,o),
(374,-202,cs),
(435,-202,ls),
(448,-202,o),
(455,-195,o),
(455,-182,cs),
(455,0,l),
(506,0,l),
(506,101,l),
(354,101,l),
(354,283,ls),
(354,296,o),
(347,303,o),
(334,303,cs),
(273,303,ls),
(260,303,o),
(253,296,o),
(253,283,cs),
(253,101,l),
(71,101,ls),
(58,101,o),
(51,94,o),
(51,81,cs)
);
}
);
width = 505;
}
);
note = uni0713.fina;
},
{
glyphname = uni0713.medi;
lastChange = "2024-07-22 05:53:45 +0000";
layers = (
{
anchors = (
{
name = bottom;
pos = (202,-20);
},
{
name = top;
pos = (252,323);
}
);
hints = (
{
horizontal = 1;
place = (0,101);
type = Stem;
},
{
place = (303,101);
type = Stem;
},
{
place = (202,101);
type = Stem;
}
);
layerId = m01;
shapes = (
{
closed = 1;
nodes = (
(-50,0,l),
(303,0,l),
(303,-202,l),
(404,-202,l),
(404,0,l),
(455,0,l),
(455,101,l),
(303,101,l),
(303,303,l),
(202,303,l),
(202,101,l),
(-50,101,l)
);
}
);
width = 454;
},
{
anchors = (
{
name = bottom;
pos = (202,-20);
},
{
name = top;
pos = (252,323);
}
);
hints = (
{
horizontal = 1;
place = (0,101);
type = Stem;
},
{
place = (303,101);
type = Stem;
},
{
place = (202,101);
type = Stem;
}
);
layerId = "9037C244-7DB9-46F9-B5BF-70F624EA3C1F";
shapes = (
{
closed = 1;
nodes = (
(-50,20,ls),
(-50,7,o),
(-43,0,o),
(-30,0,cs),
(303,0,l),
(303,-182,ls),
(303,-195,o),
(310,-202,o),
(323,-202,cs),
(384,-202,ls),
(397,-202,o),
(404,-195,o),
(404,-182,cs),
(404,0,l),
(455,0,l),
(455,101,l),
(303,101,l),
(303,283,ls),
(303,296,o),
(296,303,o),
(283,303,cs),
(222,303,ls),
(209,303,o),
(202,296,o),
(202,283,cs),
(202,101,l),
(-30,101,ls),
(-43,101,o),
(-50,94,o),
(-50,81,cs)
);
}
);
width = 454;
}
);
note = uni0713.medi;
},
{
glyphname = uni0713.init;
lastChange = "2024-07-19 06:05:23 +0000";
layers = (
{
anchors = (
{
name = bottom;
pos = (202,-20);
},
{
name = top;
pos = (252,323);
}
);
hints = (
{
horizontal = 1;
place = (0,101);
type = Stem;
},
{
place = (303,101);
type = Stem;
},
{
place = (202,101);
type = Stem;
}
);
layerId = m01;
shapes = (
{
closed = 1;
nodes = (
(-50,0,l),
(303,0,l),
(303,-202,l),
(404,-202,l),
(404,101,l),
(303,101,l),
(303,303,l),
(202,303,l),
(202,101,l),
(-50,101,l)
);
}
);
width = 404;
},
{
anchors = (
{
name = bottom;
pos = (202,-20);
},
{
name = top;
pos = (252,323);
}
);
hints = (
{
horizontal = 1;
place = (0,101);
type = Stem;
},
{
place = (303,101);
type = Stem;
},
{
place = (202,101);
type = Stem;
}
);
layerId = "9037C244-7DB9-46F9-B5BF-70F624EA3C1F";
shapes = (
{
closed = 1;
nodes = (
(-50,20,ls),
(-50,7,o),
(-43,0,o),
(-30,0,cs),
(303,0,l),
(303,-182,ls),
(303,-195,o),
(310,-202,o),
(323,-202,cs),
(384,-202,ls),
(397,-202,o),
(404,-195,o),
(404,-182,cs),
(404,81,ls),
(404,94,o),
(397,101,o),
(384,101,cs),
(303,101,l),
(303,283,ls),
(303,296,o),
(296,303,o),
(283,303,cs),
(222,303,ls),
(209,303,o),
(202,296,o),
(202,283,cs),
(202,101,l),
(-30,101,ls),
(-43,101,o),
(-50,94,o),
(-50,81,cs)
);
}
);
width = 404;
}
);
note = uni0713.init;
},
{
glyphname = uni0714;
lastChange = "2024-07-21 17:53:33 +0000";
layers = (
{
anchors = (
{
name = bottom;
pos = (253,-20);
},
{
name = top;
pos = (303,323);
}
);
hints = (
{
horizontal = 1;
place = (0,101);
type = Stem;
},
{
place = (354,101);
type = Stem;
},
{
place = (253,101);
type = Stem;
}
);
layerId = m01;
shapes = (
{
closed = 1;
nodes = (
(51,0,l),
(354,0,l),
(354,-202,l),
(455,-202,l),
(455,101,l),
(354,101,l),
(354,303,l),
(253,303,l),
(253,152,l),
(202,152,l),
(202,101,l),
(51,101,l)
);
}
);
width = 455;
},
{
anchors = (
{
name = bottom;
pos = (253,-20);
},
{
name = top;
pos = (303,323);
}
);
hints = (
{
horizontal = 1;
place = (0,101);
type = Stem;
},
{
place = (354,101);
type = Stem;
},
{
place = (253,101);
type = Stem;
}
);
layerId = "9037C244-7DB9-46F9-B5BF-70F624EA3C1F";
shapes = (
{
closed = 1;
nodes = (
(51,20,ls),
(51,7,o),
(58,0,o),
(71,0,cs),
(354,0,l),
(354,-182,ls),
(354,-195,o),
(361,-202,o),
(374,-202,cs),
(435,-202,ls),
(448,-202,o),
(455,-195,o),
(455,-182,cs),
(455,81,ls),
(455,94,o),
(448,101,o),
(435,101,cs),
(354,101,l),
(354,283,ls),
(354,296,o),
(347,303,o),
(334,303,cs),
(273,303,ls),
(260,303,o),
(253,296,o),
(253,283,cs),
(253,152,l),
(222,152,ls),
(209,152,o),
(202,145,o),
(202,132,cs),
(202,101,l),
(71,101,ls),
(58,101,o),
(51,94,o),
(51,81,cs)
);
}
);
width = 455;
}
);
note = uni0714;
unicode = 1812;
},
{
glyphname = uni0714.fina;
lastChange = "2024-07-22 05:54:20 +0000";
layers = (
{
anchors = (
{
name = bottom;
pos = (253,-20);
},
{
name = top;
pos = (303,323);
}
);
hints = (
{
horizontal = 1;
place = (0,101);
type = Stem;
},
{
place = (354,101);
type = Stem;
},
{
place = (253,101);
type = Stem;
}
);
layerId = m01;
shapes = (
{
closed = 1;
nodes = (
(51,0,l),
(354,0,l),
(354,-202,l),
(455,-202,l),
(455,0,l),
(505,0,l),
(505,101,l),
(354,101,l),
(354,303,l),
(253,303,l),
(253,152,l),
(202,152,l),
(202,101,l),
(51,101,l)
);
}
);
width = 473;
},
{
anchors = (
{
name = bottom;
pos = (253,-20);
},
{
name = top;
pos = (303,323);
}
);
hints = (
{
horizontal = 1;
place = (0,101);
type = Stem;
},
{
place = (354,101);
type = Stem;
},
{
place = (253,101);
type = Stem;
}
);
layerId = "9037C244-7DB9-46F9-B5BF-70F624EA3C1F";
shapes = (
{
closed = 1;
nodes = (
(51,20,ls),
(51,7,o),
(58,0,o),
(71,0,cs),
(354,0,l),
(354,-182,ls),
(354,-195,o),
(361,-202,o),
(374,-202,cs),
(435,-202,ls),
(448,-202,o),
(455,-195,o),
(455,-182,cs),
(455,0,l),
(474,0,l),
(474,101,l),
(354,101,l),
(354,283,ls),
(354,296,o),
(347,303,o),
(334,303,cs),
(273,303,ls),
(260,303,o),
(253,296,o),
(253,283,cs),
(253,152,l),
(222,152,ls),
(209,152,o),
(202,145,o),
(202,132,cs),
(202,101,l),
(71,101,ls),
(58,101,o),
(51,94,o),
(51,81,cs)
);
}
);
width = 473;
}
);
note = uni0714.fina;
},
{
glyphname = uni0714.medi;
lastChange = "2024-07-22 05:56:01 +0000";
layers = (
{
anchors = (
{
name = bottom;
pos = (202,-20);
},
{
name = top;
pos = (252,323);
}
);
hints = (
{
horizontal = 1;
place = (0,101);
type = Stem;
},
{
place = (303,101);
type = Stem;
},
{
place = (202,101);
type = Stem;
},
{
place = (17,51);
type = Stem;
},
{
place = (-50,118);
type = Stem;
}
);
layerId = m01;
shapes = (
{
closed = 1;
nodes = (
(-50,0,l),
(303,0,l),
(303,-202,l),
(404,-202,l),
(404,0,l),
(455,0,l),
(455,101,l),
(303,101,l),
(303,303,l),
(202,303,l),
(202,152,l),
(151,152,l),
(151,101,l),
(-50,101,l)
);
}
);
width = 454;
},
{
anchors = (
{
name = bottom;
pos = (202,-20);
},
{
name = top;
pos = (252,323);
}
);
hints = (
{
horizontal = 1;
place = (0,101);
type = Stem;
},
{
place = (303,101);
type = Stem;
},
{
place = (202,101);
type = Stem;
},
{
place = (17,51);
type = Stem;
},
{
place = (-50,118);
type = Stem;
}
);
layerId = "9037C244-7DB9-46F9-B5BF-70F624EA3C1F";
shapes = (
{
closed = 1;
nodes = (
(-50,0,l),
(303,0,l),
(303,-182,ls),
(303,-195,o),
(310,-202,o),
(323,-202,cs),
(384,-202,ls),
(397,-202,o),
(404,-195,o),
(404,-182,cs),
(404,0,l),
(455,0,l),
(455,101,l),
(303,101,l),
(303,283,ls),
(303,296,o),
(296,303,o),
(283,303,cs),
(222,303,ls),
(209,303,o),
(202,296,o),
(202,283,cs),
(202,152,l),
(171,152,ls),
(158,152,o),
(151,145,o),
(151,132,cs),
(151,101,l),
(-50,101,l)
);
}
);
width = 454;
}
);
note = uni0714.medi;
},
{
glyphname = uni0714.init;
lastChange = "2024-07-22 05:56:26 +0000";
layers = (
{
anchors = (
{
name = bottom;
pos = (202,-20);
},
{
name = top;
pos = (252,323);
}
);
hints = (
{
horizontal = 1;
place = (0,101);
type = Stem;
},
{
place = (303,101);
type = Stem;
},
{
place = (202,101);
type = Stem;
}
);
layerId = m01;
shapes = (
{
closed = 1;
nodes = (
(-51,0,l),
(303,0,l),
(303,-202,l),
(404,-202,l),
(404,101,l),
(303,101,l),
(303,303,l),
(202,303,l),
(202,152,l),
(151,152,l),
(151,101,l),
(-51,101,l)
);
}
);
width = 404;
},
{
anchors = (
{
name = bottom;
pos = (202,-20);
},
{
name = top;
pos = (252,323);
}
);
hints = (
{
horizontal = 1;
place = (0,101);
type = Stem;
},
{
place = (303,101);
type = Stem;
},
{
place = (202,101);
type = Stem;
}
);
layerId = "9037C244-7DB9-46F9-B5BF-70F624EA3C1F";
shapes = (
{
closed = 1;
nodes = (
(-51,0,l),
(303,0,l),
(303,-182,ls),
(303,-195,o),
(310,-202,o),
(323,-202,cs),
(384,-202,ls),
(397,-202,o),
(404,-195,o),
(404,-182,cs),
(404,81,ls),
(404,94,o),
(397,101,o),
(384,101,cs),
(303,101,l),
(303,283,ls),
(303,296,o),
(296,303,o),
(283,303,cs),
(222,303,ls),
(209,303,o),
(202,296,o),
(202,283,cs),
(202,152,l),
(171,152,ls),
(158,152,o),
(151,145,o),
(151,132,cs),
(151,101,l),
(-51,101,l)
);
}
);
width = 404;
}
);
note = uni0714.init;
},
{
glyphname = uni0715;
lastChange = "2024-07-19 06:05:23 +0000";
layers = (
{
anchors = (
{
name = bottom;
pos = (203,-20);
},
{
name = top;
pos = (203,323);
}
);
hints = (
{
horizontal = 1;
place = (202,101);
type = Stem;
},
{
horizontal = 1;
place = (0,101);
type = Stem;
},
{
place = (253,101);
type = Stem;
},
{
place = (51,101);
type = Stem;
}
);
layerId = m01;
shapes = (
{
closed = 1;
nodes = (
(152,101,l),
(51,101,l),
(51,0,l),
(152,0,l)
);
},
{
closed = 1;
nodes = (
(51,202,l),
(253,202,l),
(253,0,l),
(354,0,l),
(354,303,l),
(51,303,l)
);
}
);
width = 354;
},
{
anchors = (
{
name = bottom;
pos = (203,-20);
},
{
name = top;
pos = (203,323);
}
);
hints = (
{
horizontal = 1;
place = (202,101);
type = Stem;
},
{
horizontal = 1;
place = (0,101);
type = Stem;
},
{
place = (253,101);
type = Stem;
},
{
place = (51,101);
type = Stem;
}
);
layerId = "9037C244-7DB9-46F9-B5BF-70F624EA3C1F";
shapes = (
{
closed = 1;
nodes = (
(152,81,ls),
(152,94,o),
(145,101,o),
(132,101,cs),
(71,101,ls),
(58,101,o),
(51,94,o),
(51,81,cs),
(51,20,ls),
(51,7,o),
(58,0,o),
(71,0,cs),
(132,0,ls),
(145,0,o),
(152,7,o),
(152,20,cs)
);
},
{
closed = 1;
nodes = (
(51,222,ls),
(51,209,o),
(58,202,o),
(71,202,cs),
(253,202,l),
(253,20,ls),
(253,7,o),
(260,0,o),
(273,0,cs),
(334,0,ls),
(347,0,o),
(354,7,o),
(354,20,cs),
(354,283,ls),
(354,296,o),
(347,303,o),
(334,303,cs),
(71,303,ls),
(58,303,o),
(51,296,o),
(51,283,cs)
);
}
);
width = 354;
}
);
note = uni0715;
unicode = 1813;
},
{
glyphname = uni0715.fina;
lastChange = "2024-07-22 05:42:17 +0000";
layers = (
{
anchors = (
{
name = bottom;
pos = (203,-20);
},
{
name = top;
pos = (203,323);
}
);
hints = (
{
horizontal = 1;
place = (202,101);
type = Stem;
},
{
horizontal = 1;
place = (0,101);
type = Stem;
},
{
place = (253,101);
type = Stem;
},
{
place = (51,101);
type = Stem;
}
);
layerId = m01;
shapes = (
{
closed = 1;
nodes = (
(152,101,l),
(51,101,l),
(51,0,l),
(152,0,l)
);
},
{
closed = 1;
nodes = (
(51,202,l),
(253,202,l),
(253,0,l),
(404,0,l),
(404,101,l),
(354,101,l),
(354,303,l),
(51,303,l)
);
}
);
width = 404;
},
{
anchors = (
{
name = bottom;
pos = (203,-20);
},
{
name = top;
pos = (203,323);
}
);
hints = (
{
horizontal = 1;
place = (202,101);
type = Stem;
},
{
horizontal = 1;
place = (0,101);
type = Stem;
},
{
place = (253,101);
type = Stem;
},
{
place = (51,101);
type = Stem;
}
);
layerId = "9037C244-7DB9-46F9-B5BF-70F624EA3C1F";
shapes = (
{
closed = 1;
nodes = (
(152,81,ls),
(152,94,o),
(145,101,o),
(132,101,cs),
(71,101,ls),
(58,101,o),
(51,94,o),
(51,81,cs),
(51,20,ls),
(51,7,o),
(58,0,o),
(71,0,cs),
(132,0,ls),
(145,0,o),
(152,7,o),
(152,20,cs)
);
},
{
closed = 1;
nodes = (
(51,222,ls),
(51,209,o),
(58,202,o),
(71,202,cs),
(253,202,l),
(253,20,ls),
(253,7,o),
(260,0,o),
(273,0,cs),
(405,0,l),
(405,101,l),
(354,101,l),
(354,283,ls),
(354,296,o),
(347,303,o),
(334,303,cs),
(71,303,ls),
(58,303,o),
(51,296,o),
(51,283,cs)
);
}
);
width = 404;
}
);
note = uni0715.fina;
},
{
glyphname = uni0716;
lastChange = "2024-07-19 06:05:23 +0000";
layers = (
{
anchors = (
{
name = bottom;
pos = (203,-20);
},
{
name = top;
pos = (203,323);
}
);
hints = (
{
horizontal = 1;
place = (202,101);
type = Stem;
},
{
horizontal = 1;
place = (0,21);
target = up;
type = BottomGhost;
},
{
place = (253,101);
type = Stem;
}
);
layerId = m01;
shapes = (
{
closed = 1;
nodes = (
(51,202,l),
(253,202,l),
(253,0,l),
(354,0,l),
(354,303,l),
(51,303,l)
);
}
);
width = 354;
},
{
anchors = (
{
name = bottom;
pos = (203,-20);
},
{
name = top;
pos = (203,323);
}
);
hints = (
{
horizontal = 1;
place = (202,101);
type = Stem;
},
{
horizontal = 1;
place = (0,21);
target = up;
type = BottomGhost;
},
{
place = (253,101);
type = Stem;
}
);
layerId = "9037C244-7DB9-46F9-B5BF-70F624EA3C1F";
shapes = (
{
closed = 1;
nodes = (
(51,222,ls),
(51,209,o),
(58,202,o),
(71,202,cs),
(253,202,l),
(253,20,ls),
(253,7,o),
(260,0,o),
(273,0,cs),
(334,0,ls),
(347,0,o),
(354,7,o),
(354,20,cs),
(354,283,ls),
(354,296,o),
(347,303,o),
(334,303,cs),
(71,303,ls),
(58,303,o),
(51,296,o),
(51,283,cs)
);
}
);
width = 354;
}
);
note = uni0716;
unicode = 1814;
},
{
glyphname = uni0716.fina;
lastChange = "2024-07-22 05:41:58 +0000";
layers = (
{
anchors = (
{
name = bottom;
pos = (203,-20);
},
{
name = top;
pos = (203,323);
}
);
hints = (
{
horizontal = 1;
place = (202,101);
type = Stem;
},
{
horizontal = 1;
place = (0,101);
type = Stem;
},
{
place = (253,101);
type = Stem;
}
);
layerId = m01;
shapes = (
{
closed = 1;
nodes = (
(51,202,l),
(253,202,l),
(253,0,l),
(404,0,l),
(404,101,l),
(354,101,l),
(354,303,l),
(51,303,l)
);
}
);
width = 404;
},
{
anchors = (
{
name = bottom;
pos = (203,-20);
},
{
name = top;
pos = (203,323);
}
);
hints = (
{
horizontal = 1;
place = (202,101);
type = Stem;
},
{
horizontal = 1;
place = (0,101);
type = Stem;
},
{
place = (253,101);
type = Stem;
}
);
layerId = "9037C244-7DB9-46F9-B5BF-70F624EA3C1F";
shapes = (
{
closed = 1;
nodes = (
(51,222,ls),
(51,209,o),
(58,202,o),
(71,202,cs),
(253,202,l),
(253,20,ls),
(253,7,o),
(260,0,o),
(273,0,cs),
(405,0,l),
(405,101,l),
(354,101,l),
(354,283,ls),
(354,296,o),
(347,303,o),
(334,303,cs),
(71,303,ls),
(58,303,o),
(51,296,o),
(51,283,cs)
);
}
);
width = 404;
}
);
note = uni0716.fina;
},
{
glyphname = uni0717;
lastChange = "2024-07-19 06:05:23 +0000";
layers = (
{
anchors = (
{
name = bottom;
pos = (305,-20);
},
{
name = top;
pos = (305,323);
}
);
hints = (
{
horizontal = 1;
place = (202,101);
type = Stem;
},
{
horizontal = 1;
place = (0,101);
type = Stem;
},
{
place = (455,101);
type = Stem;
},
{
place = (254,101);
type = Stem;
},
{
place = (52,102);
type = Stem;
}
);
layerId = m01;
shapes = (
{
closed = 1;
nodes = (
(455,101,l),
(405,101,l),
(405,0,l),
(556,0,l),
(556,303,l),
(51,303,l),
(52,0,l),
(203,0,l),
(203,101,l),
(153,101,l),
(153,202,l),
(254,202,l),
(254,0,l),
(355,0,l),
(355,202,l),
(455,202,l)
);
}
);
width = 556;
},
{
anchors = (
{
name = bottom;
pos = (305,-20);
},
{
name = top;
pos = (305,323);
}
);
hints = (
{
horizontal = 1;
place = (202,101);
type = Stem;
},
{
horizontal = 1;
place = (0,101);
type = Stem;
},
{
place = (455,101);
type = Stem;
},
{
place = (254,101);
type = Stem;
},
{
place = (52,102);
type = Stem;
}
);
layerId = "9037C244-7DB9-46F9-B5BF-70F624EA3C1F";
shapes = (
{
closed = 1;
nodes = (
(455,101,l),
(425,101,ls),
(412,101,o),
(405,94,o),
(405,81,cs),
(405,20,ls),
(405,7,o),
(412,0,o),
(425,0,cs),
(536,0,ls),
(549,0,o),
(556,7,o),
(556,20,cs),
(556,283,ls),
(556,296,o),
(549,303,o),
(536,303,cs),
(71,303,ls),
(58,303,o),
(51,296,o),
(51,283,cs),
(52,20,ls),
(52,7,o),
(59,0,o),
(72,0,cs),
(183,0,ls),
(196,0,o),
(203,7,o),
(203,20,cs),
(203,81,ls),
(203,94,o),
(196,101,o),
(183,101,cs),
(153,101,l),
(153,202,l),
(254,202,l),
(254,20,ls),
(254,7,o),
(261,0,o),
(274,0,cs),
(335,0,ls),
(348,0,o),
(355,7,o),
(355,20,cs),
(355,202,l),
(455,202,l)
);
}
);
width = 556;
}
);
note = uni0717;
unicode = 1815;
},
{
glyphname = uni0717.fina;
lastChange = "2024-07-22 05:41:33 +0000";
layers = (
{
anchors = (
{
name = bottom;
pos = (304,-20);
},
{
name = top;
pos = (304,323);
}
);
hints = (
{
horizontal = 1;
place = (202,101);
type = Stem;
},
{
horizontal = 1;
place = (0,104);
type = Stem;
},
{
horizontal = 1;
place = (0,101);
type = Stem;
},
{
place = (455,101);
type = Stem;
},
{
place = (254,101);
type = Stem;
},
{
place = (52,102);
type = Stem;
}
);
layerId = m01;
shapes = (
{
closed = 1;
nodes = (
(455,104,l),
(421,104,l),
(421,0,l),
(607,0,l),
(607,101,l),
(556,101,l),
(556,303,l),
(51,303,l),
(52,0,l),
(203,0,l),
(203,101,l),
(153,101,l),
(153,202,l),
(254,202,l),
(254,0,l),
(355,0,l),
(355,202,l),
(455,202,l)
);
}
);
width = 606;
},
{
anchors = (
{
name = bottom;
pos = (304,-20);
},
{
name = top;
pos = (304,323);
}
);
hints = (
{
horizontal = 1;
place = (202,101);
type = Stem;
},
{
horizontal = 1;
place = (0,104);
type = Stem;
},
{
horizontal = 1;
place = (0,101);
type = Stem;
},
{
place = (455,101);
type = Stem;
},
{
place = (254,101);
type = Stem;
},
{
place = (52,102);
type = Stem;
}
);
layerId = "9037C244-7DB9-46F9-B5BF-70F624EA3C1F";
shapes = (
{
closed = 1;
nodes = (
(455,104,l),
(441,104,ls),
(428,104,o),
(421,97,o),
(421,84,cs),
(421,20,ls),
(421,7,o),
(428,0,o),
(441,0,cs),
(607,0,l),
(607,101,l),
(556,101,l),
(556,283,ls),
(556,296,o),
(549,303,o),
(536,303,cs),
(71,303,ls),
(58,303,o),
(51,296,o),
(51,283,cs),
(52,20,ls),
(52,7,o),
(59,0,o),
(72,0,cs),
(183,0,ls),
(196,0,o),
(203,7,o),
(203,20,cs),
(203,81,ls),
(203,94,o),
(196,101,o),
(183,101,cs),
(153,101,l),
(153,202,l),
(254,202,l),
(254,20,ls),
(254,7,o),
(261,0,o),
(274,0,cs),
(335,0,ls),
(348,0,o),
(355,7,o),
(355,20,cs),
(355,202,l),
(455,202,l)
);
}
);
width = 606;
}
);
note = uni0717.fina;
},
{
glyphname = uni0718;
lastChange = "2024-07-19 06:05:23 +0000";
layers = (
{
anchors = (
{
name = bottom;
pos = (203,-20);
},
{
name = top;
pos = (203,323);
}
);
hints = (
{
horizontal = 1;
place = (190,111);
type = Stem;
},
{
horizontal = 1;
place = (1,100);
type = Stem;
},
{
place = (253,101);
type = Stem;
},
{
place = (51,101);
type = Stem;
}
);
layerId = m01;
shapes = (
{
closed = 1;
nodes = (
(253,190,l),
(253,1,l),
(354,1,l),
(354,303,l),
(51,303,l),
(51,0,l),
(202,0,l),
(202,101,l),
(152,101,l),
(152,190,l)
);
}
);
width = 354;
},
{
anchors = (
{
name = bottom;
pos = (203,-20);
},
{
name = top;
pos = (203,323);
}
);
hints = (
{
horizontal = 1;
place = (190,111);
type = Stem;
},
{
horizontal = 1;
place = (1,100);
type = Stem;
},
{
place = (253,101);
type = Stem;
},
{
place = (51,101);
type = Stem;
}
);
layerId = "9037C244-7DB9-46F9-B5BF-70F624EA3C1F";
shapes = (
{
closed = 1;
nodes = (
(253,190,l),
(253,21,ls),
(253,8,o),
(260,1,o),
(273,1,cs),
(334,1,ls),
(347,1,o),
(354,8,o),
(354,21,cs),
(354,283,ls),
(354,296,o),
(347,303,o),
(334,303,cs),
(71,303,ls),
(58,303,o),
(51,296,o),
(51,283,cs),
(51,20,ls),
(51,7,o),
(58,0,o),
(71,0,cs),
(182,0,ls),
(195,0,o),
(202,7,o),
(202,20,cs),
(202,81,ls),
(202,94,o),
(195,101,o),
(182,101,cs),
(152,101,l),
(152,190,l)
);
}
);
width = 354;
}
);
note = uni0718;
unicode = 1816;
},
{
glyphname = uni0718.fina;
lastChange = "2024-07-22 05:41:14 +0000";
layers = (
{
anchors = (
{
name = bottom;
pos = (203,-20);
},
{
name = top;
pos = (203,323);
}
);
hints = (
{
horizontal = 1;
place = (190,111);
type = Stem;
},
{
horizontal = 1;
place = (0,101);
type = Stem;
},
{
place = (253,101);
type = Stem;
},
{
place = (51,101);
type = Stem;
}
);
layerId = m01;
shapes = (
{
closed = 1;
nodes = (
(253,190,l),
(253,0,l),
(404,0,l),
(404,101,l),
(354,101,l),
(354,303,l),
(51,303,l),
(51,0,l),
(202,0,l),
(202,101,l),
(152,101,l),
(152,190,l)
);
}
);
width = 404;
},
{
anchors = (
{
name = bottom;
pos = (203,-20);
},
{
name = top;
pos = (203,323);
}
);
hints = (
{
horizontal = 1;
place = (190,111);
type = Stem;
},
{
horizontal = 1;
place = (0,101);
type = Stem;
},
{
place = (253,101);
type = Stem;
},
{
place = (51,101);
type = Stem;
}
);
layerId = "9037C244-7DB9-46F9-B5BF-70F624EA3C1F";
shapes = (
{
closed = 1;
nodes = (
(253,190,l),
(253,20,ls),
(253,7,o),
(260,0,o),
(273,0,cs),
(405,0,l),
(405,101,l),
(354,101,l),
(354,283,ls),
(354,296,o),
(347,303,o),
(334,303,cs),
(71,303,ls),
(58,303,o),
(51,296,o),
(51,283,cs),
(51,20,ls),
(51,7,o),
(58,0,o),
(71,0,cs),
(182,0,ls),
(195,0,o),
(202,7,o),
(202,20,cs),
(202,81,ls),
(202,94,o),
(195,101,o),
(182,101,cs),
(152,101,l),
(152,190,l)
);
}
);
width = 404;
}
);
note = uni0718.fina;
},
{
glyphname = uni0719;
lastChange = "2024-08-29 05:19:23 +0000";
layers = (
{
anchors = (
{
name = bottom;
pos = (102,-181);
},
{
name = top;
pos = (102,282);
}
);
hints = (
{
horizontal = 1;
place = (-101,303);
type = Stem;
},
{
place = (51,101);
type = Stem;
}
);
layerId = m01;
shapes = (
{
closed = 1;
nodes = (
(152,202,l),
(51,202,l),
(51,-101,l),
(152,-101,l)
);
}
);
width = 152;
},
{
anchors = (
{
name = bottom;
pos = (102,-181);
},
{
name = top;
pos = (102,282);
}
);
hints = (
{
horizontal = 1;
place = (-101,303);
type = Stem;
},
{
place = (51,101);
type = Stem;
}
);
layerId = "9037C244-7DB9-46F9-B5BF-70F624EA3C1F";
shapes = (
{
closed = 1;
nodes = (
(152,182,ls),
(152,195,o),
(145,202,o),
(132,202,cs),
(71,202,ls),
(58,202,o),
(51,195,o),
(51,182,cs),
(51,-81,ls),
(51,-94,o),
(58,-101,o),
(71,-101,cs),
(132,-101,ls),
(145,-101,o),
(152,-94,o),
(152,-81,cs)
);
}
);
width = 152;
}
);
note = uni0719;
unicode = 1817;
},
{
glyphname = uni0719.fina;
lastChange = "2024-08-29 05:19:01 +0000";
layers = (
{
anchors = (
{
name = bottom;
pos = (102,-181);
},
{
name = top;
pos = (102,282);
}
);
hints = (
{
horizontal = 1;
place = (0,101);
type = Stem;
},
{
place = (51,101);
type = Stem;
}
);
layerId = m01;
shapes = (
{
closed = 1;
nodes = (
(152,202,l),
(51,202,l),
(51,-101,l),
(152,-101,l),
(152,0,l),
(202,0,l),
(202,101,l),
(152,101,l)
);
}
);
width = 202;
},
{
anchors = (
{
name = bottom;
pos = (102,-181);
},
{
name = top;
pos = (102,282);
}
);
hints = (
{
horizontal = 1;
place = (0,101);
type = Stem;
},
{
place = (51,101);
type = Stem;
}
);
layerId = "9037C244-7DB9-46F9-B5BF-70F624EA3C1F";
shapes = (
{
closed = 1;
nodes = (
(152,182,ls),
(152,195,o),
(145,202,o),
(132,202,cs),
(71,202,ls),
(58,202,o),
(51,195,o),
(51,182,cs),
(51,-81,ls),
(51,-94,o),
(58,-101,o),
(71,-101,cs),
(132,-101,ls),
(145,-101,o),
(152,-94,o),
(152,-81,cs),
(152,0,l),
(203,0,l),
(203,101,l),
(152,101,l)
);
}
);
width = 202;
}
);
note = uni0719.fina;
},
{
glyphname = uni071A;
lastChange = "2024-08-01 03:12:42 +0000";
layers = (
{
anchors = (
{
name = bottom;
pos = (354,-20);
},
{
name = top;
pos = (354,222);
}
);
hints = (
{
horizontal = 1;
place = (0,202);
type = Stem;
},
{
place = (303,101);
type = Stem;
}
);
layerId = m01;
shapes = (
{
closed = 1;
nodes = (
(303,102,l),
(404,102,l),
(404,202,l),
(505,202,l),
(505,0,l),
(51,0,l),
(51,101,l),
(202,101,l),
(202,202,l),
(303,202,l)
);
}
);
width = 505;
},
{
anchors = (
{
name = bottom;
pos = (354,-20);
},
{
name = top;
pos = (354,222);
}
);
hints = (
{
horizontal = 1;
place = (0,202);
type = Stem;
},
{
place = (303,101);
type = Stem;
}
);
layerId = "9037C244-7DB9-46F9-B5BF-70F624EA3C1F";
shapes = (
{
closed = 1;
nodes = (
(303,122,ls),
(303,109,o),
(310,102,o),
(323,102,cs),
(384,102,ls),
(397,102,o),
(404,109,o),
(404,122,cs),
(404,182,ls),
(404,195,o),
(411,202,o),
(424,202,cs),
(485,202,ls),
(498,202,o),
(505,195,o),
(505,182,cs),
(505,20,ls),
(505,7,o),
(498,0,o),
(485,0,cs),
(51,0,l),
(51,101,l),
(182,101,ls),
(195,101,o),
(202,108,o),
(202,121,cs),
(202,182,ls),
(202,195,o),
(209,202,o),
(222,202,cs),
(283,202,ls),
(296,202,o),
(303,195,o),
(303,182,cs)
);
}
);
width = 505;
}
);
note = uni071A;
unicode = 1818;
},
{
glyphname = uni071A.fina;
lastChange = "2024-07-22 06:38:19 +0000";
layers = (
{
anchors = (
{
name = bottom;
pos = (354,-20);
},
{
name = top;
pos = (354,222);
}
);
hints = (
{
horizontal = 1;
place = (0,202);
type = Stem;
},
{
place = (303,101);
type = Stem;
}
);
layerId = m01;
shapes = (
{
closed = 1;
nodes = (
(303,102,l),
(404,102,l),
(404,202,l),
(505,202,l),
(505,101,l),
(556,101,l),
(556,0,l),
(51,0,l),
(51,101,l),
(202,101,l),
(202,202,l),
(303,202,l)
);
}
);
width = 555;
},
{
anchors = (
{
name = bottom;
pos = (354,-20);
},
{
name = top;
pos = (354,222);
}
);
hints = (
{
horizontal = 1;
place = (0,202);
type = Stem;
},
{
place = (303,101);
type = Stem;
}
);
layerId = "9037C244-7DB9-46F9-B5BF-70F624EA3C1F";
shapes = (
{
closed = 1;
nodes = (
(303,122,ls),
(303,109,o),
(310,102,o),
(323,102,cs),
(384,102,ls),
(397,102,o),
(404,109,o),
(404,122,cs),
(404,182,ls),
(404,195,o),
(411,202,o),
(424,202,cs),
(485,202,ls),
(498,202,o),
(505,195,o),
(505,182,cs),
(505,101,l),
(556,101,l),
(556,0,l),
(51,0,l),
(51,101,l),
(182,101,ls),
(195,101,o),
(202,108,o),
(202,121,cs),
(202,182,ls),
(202,195,o),
(209,202,o),
(222,202,cs),
(283,202,ls),
(296,202,o),
(303,195,o),
(303,182,cs)
);
}
);
width = 555;
}
);
note = uni071A.fina;
},
{
glyphname = uni071A.medi;
lastChange = "2024-07-22 06:38:11 +0000";
layers = (
{
anchors = (
{
name = bottom;
pos = (324,-20);
},
{
name = top;
pos = (324,222);
}
);
hints = (
{
horizontal = 1;
place = (0,202);
type = Stem;
},
{
place = (273,101);
type = Stem;
}
);
layerId = m01;
shapes = (
{
closed = 1;
nodes = (
(273,102,l),
(374,102,l),
(374,202,l),
(475,202,l),
(475,101,l),
(526,101,l),
(526,0,l),
(-50,0,l),
(-50,101,l),
(172,101,l),
(172,202,l),
(273,202,l)
);
}
);
width = 525;
},
{
anchors = (
{
name = bottom;
pos = (324,-20);
},
{
name = top;
pos = (324,222);
}
);
hints = (
{
horizontal = 1;
place = (0,202);
type = Stem;
},
{
place = (273,101);
type = Stem;
}
);
layerId = "9037C244-7DB9-46F9-B5BF-70F624EA3C1F";
shapes = (
{
closed = 1;
nodes = (
(273,122,ls),
(273,109,o),
(280,102,o),
(293,102,cs),
(354,102,ls),
(367,102,o),
(374,109,o),
(374,122,cs),
(374,182,ls),
(374,195,o),
(381,202,o),
(394,202,cs),
(455,202,ls),
(468,202,o),
(475,195,o),
(475,182,cs),
(475,101,l),
(526,101,l),
(526,0,l),
(-50,0,l),
(-50,101,l),
(152,101,ls),
(165,101,o),
(172,108,o),
(172,121,cs),
(172,182,ls),
(172,195,o),
(179,202,o),
(192,202,cs),
(253,202,ls),
(266,202,o),
(273,195,o),
(273,182,cs)
);
}
);
width = 525;
}
);
note = uni071A.medi;
},
{
glyphname = uni071A.init;
lastChange = "2024-08-01 03:13:00 +0000";
layers = (
{
anchors = (
{
name = bottom;
pos = (324,-20);
},
{
name = top;
pos = (324,222);
}
);
hints = (
{
horizontal = 1;
place = (0,202);
type = Stem;
},
{
place = (273,101);
type = Stem;
}
);
layerId = m01;
shapes = (
{
closed = 1;
nodes = (
(273,102,l),
(374,102,l),
(374,202,l),
(475,202,l),
(475,0,l),
(-50,0,l),
(-50,101,l),
(172,101,l),
(172,202,l),
(273,202,l)
);
}
);
width = 475;
},
{
anchors = (
{
name = bottom;
pos = (324,-20);
},
{
name = top;
pos = (324,222);
}
);
hints = (
{
horizontal = 1;
place = (0,202);
type = Stem;
},
{
place = (273,101);
type = Stem;
}
);
layerId = "9037C244-7DB9-46F9-B5BF-70F624EA3C1F";
shapes = (
{
closed = 1;
nodes = (
(273,122,ls),
(273,109,o),
(280,102,o),
(293,102,cs),
(354,102,ls),
(367,102,o),
(374,109,o),
(374,122,cs),
(374,182,ls),
(374,195,o),
(381,202,o),
(394,202,cs),
(455,202,ls),
(468,202,o),
(475,195,o),
(475,182,cs),
(475,20,ls),
(475,7,o),
(468,0,o),
(455,0,cs),
(-50,0,l),
(-50,101,l),
(152,101,ls),
(165,101,o),
(172,108,o),
(172,121,cs),
(172,182,ls),
(172,195,o),
(179,202,o),
(192,202,cs),
(253,202,ls),
(266,202,o),
(273,195,o),
(273,182,cs)
);
}
);
width = 475;
}
);
note = uni071A.init;
},
{
glyphname = uni071B;
lastChange = "2024-07-21 17:47:45 +0000";
layers = (
{
anchors = (
{
name = bottom;
pos = (253,-222);
},
{
name = top;
pos = (253,323);
}
);
hints = (
{
horizontal = 1;
place = (0,101);
type = Stem;
},
{
horizontal = 1;
place = (-202,101);
type = Stem;
},
{
place = (354,101);
type = Stem;
},
{
place = (152,101);
type = Stem;
}
);
layerId = m01;
shapes = (
{
closed = 1;
nodes = (
(51,0,l),
(152,0,l),
(152,-202,l),
(455,-202,l),
(455,101,l),
(253,101,l),
(253,303,l),
(152,303,l),
(152,101,l),
(51,101,l)
);
},
{
closed = 1;
nodes = (
(354,0,l),
(354,-101,l),
(253,-101,l),
(253,0,l)
);
}
);
width = 455;
},
{
anchors = (
{
name = bottom;
pos = (253,-222);
},
{
name = top;
pos = (253,323);
}
);
hints = (
{
horizontal = 1;
place = (0,101);
type = Stem;
},
{
horizontal = 1;
place = (-202,101);
type = Stem;
},
{
place = (354,101);
type = Stem;
},
{
place = (152,101);
type = Stem;
}
);
layerId = "9037C244-7DB9-46F9-B5BF-70F624EA3C1F";
shapes = (
{
closed = 1;
nodes = (
(51,20,ls),
(51,7,o),
(58,0,o),
(71,0,cs),
(152,0,l),
(152,-182,ls),
(152,-195,o),
(159,-202,o),
(172,-202,cs),
(435,-202,ls),
(448,-202,o),
(455,-195,o),
(455,-182,cs),
(455,81,ls),
(455,94,o),
(448,101,o),
(435,101,cs),
(253,101,l),
(253,283,ls),
(253,296,o),
(246,303,o),
(233,303,cs),
(172,303,ls),
(159,303,o),
(152,296,o),
(152,283,cs),
(152,101,l),
(71,101,ls),
(58,101,o),
(51,94,o),
(51,81,cs)
);
},
{
closed = 1;
nodes = (
(334,0,ls),
(347,0,o),
(354,-7,o),
(354,-20,cs),
(354,-81,ls),
(354,-94,o),
(347,-101,o),
(334,-101,cs),
(273,-101,ls),
(260,-101,o),
(253,-94,o),
(253,-81,cs),
(253,-20,ls),
(253,-7,o),
(260,0,o),
(273,0,cs)
);
}
);
width = 455;
}
);
note = uni071B;
unicode = 1819;
},
{
glyphname = uni071B.fina;
lastChange = "2024-07-22 05:40:22 +0000";
layers = (
{
anchors = (
{
name = bottom;
pos = (253,-222);
},
{
name = top;
pos = (253,323);
}
);
hints = (
{
horizontal = 1;
place = (0,101);
type = Stem;
},
{
horizontal = 1;
place = (-202,101);
type = Stem;
},
{
place = (354,101);
type = Stem;
},
{
place = (152,101);
type = Stem;
}
);
layerId = m01;
shapes = (
{
closed = 1;
nodes = (
(51,0,l),
(152,0,l),
(152,-202,l),
(455,-202,l),
(455,0,l),
(505,0,l),
(505,101,l),
(253,101,l),
(253,303,l),
(152,303,l),
(152,101,l),
(51,101,l)
);
},
{
closed = 1;
nodes = (
(354,0,l),
(354,-101,l),
(253,-101,l),
(253,0,l)
);
}
);
width = 505;
},
{
anchors = (
{
name = bottom;
pos = (253,-222);
},
{
name = top;
pos = (253,323);
}
);
hints = (
{
horizontal = 1;
place = (0,101);
type = Stem;
},
{
horizontal = 1;
place = (-202,101);
type = Stem;
},
{
place = (354,101);
type = Stem;
},
{
place = (152,101);
type = Stem;
}
);
layerId = "9037C244-7DB9-46F9-B5BF-70F624EA3C1F";
shapes = (
{
closed = 1;
nodes = (
(51,20,ls),
(51,7,o),
(58,0,o),
(71,0,cs),
(152,0,l),
(152,-182,ls),
(152,-195,o),
(159,-202,o),
(172,-202,cs),
(435,-202,ls),
(448,-202,o),
(455,-195,o),
(455,-182,cs),
(455,0,l),
(506,0,l),
(506,101,l),
(253,101,l),
(253,283,ls),
(253,296,o),
(246,303,o),
(233,303,cs),
(172,303,ls),
(159,303,o),
(152,296,o),
(152,283,cs),
(152,101,l),
(71,101,ls),
(58,101,o),
(51,94,o),
(51,81,cs)
);
},
{
closed = 1;
nodes = (
(334,0,ls),
(347,0,o),
(354,-7,o),
(354,-20,cs),
(354,-81,ls),
(354,-94,o),
(347,-101,o),
(334,-101,cs),
(273,-101,ls),
(260,-101,o),
(253,-94,o),
(253,-81,cs),
(253,-20,ls),
(253,-7,o),
(260,0,o),
(273,0,cs)
);
}
);
width = 505;
}
);
note = uni071B.fina;
},
{
glyphname = uni071B.medi;
lastChange = "2024-07-22 05:57:44 +0000";
layers = (
{
anchors = (
{
name = bottom;
pos = (202,-222);
},
{
name = top;
pos = (202,323);
}
);
hints = (
{
horizontal = 1;
place = (0,101);
type = Stem;
},
{
horizontal = 1;
place = (-202,101);
type = Stem;
},
{
place = (303,101);
type = Stem;
},
{
place = (101,101);
type = Stem;
}
);
layerId = m01;
shapes = (
{
closed = 1;
nodes = (
(-50,0,l),
(101,0,l),
(101,-202,l),
(404,-202,l),
(404,0,l),
(455,0,l),
(455,101,l),
(202,101,l),
(202,303,l),
(101,303,l),
(101,101,l),
(-50,101,l)
);
},
{
closed = 1;
nodes = (
(303,0,l),
(303,-101,l),
(202,-101,l),
(202,0,l)
);
}
);
width = 454;
},
{
anchors = (
{
name = bottom;
pos = (202,-222);
},
{
name = top;
pos = (202,323);
}
);
hints = (
{
horizontal = 1;
place = (0,101);
type = Stem;
},
{
horizontal = 1;
place = (-202,101);
type = Stem;
},
{
place = (303,101);
type = Stem;
},
{
place = (101,101);
type = Stem;
}
);
layerId = "9037C244-7DB9-46F9-B5BF-70F624EA3C1F";
shapes = (
{
closed = 1;
nodes = (
(-50,0,l),
(101,0,l),
(101,-182,ls),
(101,-195,o),
(108,-202,o),
(121,-202,cs),
(384,-202,ls),
(397,-202,o),
(404,-195,o),
(404,-182,cs),
(404,0,l),
(455,0,l),
(455,101,l),
(202,101,l),
(202,283,ls),
(202,296,o),
(195,303,o),
(182,303,cs),
(121,303,ls),
(108,303,o),
(101,296,o),
(101,283,cs),
(101,101,l),
(-50,101,l)
);
},
{
closed = 1;
nodes = (
(283,0,ls),
(296,0,o),
(303,-7,o),
(303,-20,cs),
(303,-81,ls),
(303,-94,o),
(296,-101,o),
(283,-101,cs),
(222,-101,ls),
(209,-101,o),
(202,-94,o),
(202,-81,cs),
(202,-20,ls),
(202,-7,o),
(209,0,o),
(222,0,cs)
);
}
);
width = 454;
}
);
note = uni071B.medi;
},
{
glyphname = uni071B.init;
lastChange = "2024-07-22 05:57:25 +0000";
layers = (
{
anchors = (
{
name = bottom;
pos = (202,-222);
},
{
name = top;
pos = (202,323);
}
);
hints = (
{
horizontal = 1;
place = (0,101);
type = Stem;
},
{
horizontal = 1;
place = (-202,101);
type = Stem;
},
{
place = (303,101);
type = Stem;
},
{
place = (101,101);
type = Stem;
}
);
layerId = m01;
shapes = (
{
closed = 1;
nodes = (
(-50,0,l),
(101,0,l),
(101,-202,l),
(404,-202,l),
(404,101,l),
(202,101,l),
(202,303,l),
(101,303,l),
(101,101,l),
(-50,101,l)
);
},
{
closed = 1;
nodes = (
(303,0,l),
(303,-101,l),
(202,-101,l),
(202,0,l)
);
}
);
width = 404;
},
{
anchors = (
{
name = bottom;
pos = (202,-222);
},
{
name = top;
pos = (202,323);
}
);
hints = (
{
horizontal = 1;
place = (0,101);
type = Stem;
},
{
horizontal = 1;
place = (-202,101);
type = Stem;
},
{
place = (303,101);
type = Stem;
},
{
place = (101,101);
type = Stem;
}
);
layerId = "9037C244-7DB9-46F9-B5BF-70F624EA3C1F";
shapes = (
{
closed = 1;
nodes = (
(-50,0,l),
(101,0,l),
(101,-182,ls),
(101,-195,o),
(108,-202,o),
(121,-202,cs),
(384,-202,ls),
(397,-202,o),
(404,-195,o),
(404,-182,cs),
(404,81,ls),
(404,94,o),
(397,101,o),
(384,101,cs),
(202,101,l),
(202,283,ls),
(202,296,o),
(195,303,o),
(182,303,cs),
(121,303,ls),
(108,303,o),
(101,296,o),
(101,283,cs),
(101,101,l),
(-50,101,l)
);
},
{
closed = 1;
nodes = (
(283,0,ls),
(296,0,o),
(303,-7,o),
(303,-20,cs),
(303,-81,ls),
(303,-94,o),
(296,-101,o),
(283,-101,cs),
(222,-101,ls),
(209,-101,o),
(202,-94,o),
(202,-81,cs),
(202,-20,ls),
(202,-7,o),
(209,0,o),
(222,0,cs)
);
}
);
width = 404;
}
);
note = uni071B.init;
},
{
glyphname = uni071C;
lastChange = "2024-07-21 17:47:11 +0000";
layers = (
{
anchors = (
{
name = bottom;
pos = (253,-222);
},
{
name = top;
pos = (253,323);
}
);
hints = (
{
horizontal = 1;
place = (0,101);
type = Stem;
},
{
horizontal = 1;
place = (-76,51);
type = Stem;
},
{
horizontal = 1;
place = (-202,101);
type = Stem;
},
{
place = (354,101);
type = Stem;
},
{
place = (278,51);
type = Stem;
},
{
place = (152,101);
type = Stem;
}
);
layerId = m01;
shapes = (
{
closed = 1;
nodes = (
(51,0,l),
(152,0,l),
(152,-202,l),
(455,-202,l),
(455,101,l),
(253,101,l),
(253,303,l),
(152,303,l),
(152,101,l),
(51,101,l)
);
},
{
closed = 1;
nodes = (
(354,0,l),
(354,-101,l),
(253,-101,l),
(253,0,l)
);
},
{
closed = 1;
nodes = (
(329,-76,l),
(329,-25,l),
(278,-25,l),
(278,-76,l)
);
}
);
width = 455;
},
{
anchors = (
{
name = bottom;
pos = (253,-222);
},
{
name = top;
pos = (253,323);
}
);
hints = (
{
horizontal = 1;
place = (0,101);
type = Stem;
},
{
horizontal = 1;
place = (-76,51);
type = Stem;
},
{
horizontal = 1;
place = (-202,101);
type = Stem;
},
{
place = (354,101);
type = Stem;
},
{
place = (278,51);
type = Stem;
},
{
place = (152,101);
type = Stem;
}
);
layerId = "9037C244-7DB9-46F9-B5BF-70F624EA3C1F";
shapes = (
{
closed = 1;
nodes = (
(51,20,ls),
(51,7,o),
(58,0,o),
(71,0,cs),
(152,0,l),
(152,-182,ls),
(152,-195,o),
(159,-202,o),
(172,-202,cs),
(435,-202,ls),
(448,-202,o),
(455,-195,o),
(455,-182,cs),
(455,81,ls),
(455,94,o),
(448,101,o),
(435,101,cs),
(253,101,l),
(253,283,ls),
(253,296,o),
(246,303,o),
(233,303,cs),
(172,303,ls),
(159,303,o),
(152,296,o),
(152,283,cs),
(152,101,l),
(71,101,ls),
(58,101,o),
(51,94,o),
(51,81,cs)
);
},
{
closed = 1;
nodes = (
(334,0,ls),
(347,0,o),
(354,-7,o),
(354,-20,cs),
(354,-81,ls),
(354,-94,o),
(347,-101,o),
(334,-101,cs),
(273,-101,ls),
(260,-101,o),
(253,-94,o),
(253,-81,cs),
(253,-20,ls),
(253,-7,o),
(260,0,o),
(273,0,cs)
);
},
{
closed = 1;
nodes = (
(309,-76,ls),
(322,-76,o),
(329,-69,o),
(329,-56,cs),
(329,-45,ls),
(329,-32,o),
(322,-25,o),
(309,-25,cs),
(298,-25,ls),
(285,-25,o),
(278,-32,o),
(278,-45,cs),
(278,-56,ls),
(278,-69,o),
(285,-76,o),
(298,-76,cs)
);
}
);
width = 455;
}
);
note = uni071C;
unicode = 1820;
},
{
glyphname = uni071C.fina;
lastChange = "2024-07-22 05:58:07 +0000";
layers = (
{
anchors = (
{
name = bottom;
pos = (253,-222);
},
{
name = top;
pos = (253,323);
}
);
hints = (
{
horizontal = 1;
place = (0,101);
type = Stem;
},
{
horizontal = 1;
place = (-76,51);
type = Stem;
},
{
horizontal = 1;
place = (-202,101);
type = Stem;
},
{
place = (354,101);
type = Stem;
},
{
place = (278,51);
type = Stem;
},
{
place = (152,101);
type = Stem;
}
);
layerId = m01;
shapes = (
{
closed = 1;
nodes = (
(51,0,l),
(152,0,l),
(152,-202,l),
(455,-202,l),
(455,0,l),
(505,0,l),
(505,101,l),
(253,101,l),
(253,303,l),
(152,303,l),
(152,101,l),
(51,101,l)
);
},
{
closed = 1;
nodes = (
(354,0,l),
(354,-101,l),
(253,-101,l),
(253,0,l)
);
},
{
closed = 1;
nodes = (
(329,-76,l),
(329,-25,l),
(278,-25,l),
(278,-76,l)
);
}
);
width = 505;
},
{
anchors = (
{
name = bottom;
pos = (253,-222);
},
{
name = top;
pos = (253,323);
}
);
hints = (
{
horizontal = 1;
place = (0,101);
type = Stem;
},
{
horizontal = 1;
place = (-76,51);
type = Stem;
},
{
horizontal = 1;
place = (-202,101);
type = Stem;
},
{
place = (354,101);
type = Stem;
},
{
place = (278,51);
type = Stem;
},
{
place = (152,101);
type = Stem;
}
);
layerId = "9037C244-7DB9-46F9-B5BF-70F624EA3C1F";
shapes = (
{
closed = 1;
nodes = (
(51,20,ls),
(51,7,o),
(58,0,o),
(71,0,cs),
(152,0,l),
(152,-182,ls),
(152,-195,o),
(159,-202,o),
(172,-202,cs),
(435,-202,ls),
(448,-202,o),
(455,-195,o),
(455,-182,cs),
(455,0,l),
(506,0,l),
(506,101,l),
(253,101,l),
(253,283,ls),
(253,296,o),
(246,303,o),
(233,303,cs),
(172,303,ls),
(159,303,o),
(152,296,o),
(152,283,cs),
(152,101,l),
(71,101,ls),
(58,101,o),
(51,94,o),
(51,81,cs)
);
},
{
closed = 1;
nodes = (
(334,0,ls),
(347,0,o),
(354,-7,o),
(354,-20,cs),
(354,-81,ls),
(354,-94,o),
(347,-101,o),
(334,-101,cs),
(273,-101,ls),
(260,-101,o),
(253,-94,o),
(253,-81,cs),
(253,-20,ls),
(253,-7,o),
(260,0,o),
(273,0,cs)
);
},
{
closed = 1;
nodes = (
(309,-76,ls),
(322,-76,o),
(329,-69,o),
(329,-56,cs),
(329,-45,ls),
(329,-32,o),
(322,-25,o),
(309,-25,cs),
(298,-25,ls),
(285,-25,o),
(278,-32,o),
(278,-45,cs),
(278,-56,ls),
(278,-69,o),
(285,-76,o),
(298,-76,cs)
);
}
);
width = 505;
}
);
note = uni071C.fina;
},
{
glyphname = uni071C.medi;
lastChange = "2024-07-22 05:38:40 +0000";
layers = (
{
anchors = (
{
name = bottom;
pos = (202,-222);
},
{
name = top;
pos = (202,323);
}
);
hints = (
{
horizontal = 1;
place = (0,101);
type = Stem;
},
{
horizontal = 1;
place = (-76,51);
type = Stem;
},
{
horizontal = 1;
place = (-202,101);
type = Stem;
},
{
place = (303,101);
type = Stem;
},
{
place = (227,51);
type = Stem;
},
{
place = (101,101);
type = Stem;
}
);
layerId = m01;
shapes = (
{
closed = 1;
nodes = (
(-50,0,l),
(101,0,l),
(101,-202,l),
(404,-202,l),
(404,0,l),
(455,0,l),
(455,101,l),
(202,101,l),
(202,303,l),
(101,303,l),
(101,101,l),
(-50,101,l)
);
},
{
closed = 1;
nodes = (
(303,0,l),
(303,-101,l),
(202,-101,l),
(202,0,l)
);
},
{
closed = 1;
nodes = (
(278,-76,l),
(278,-25,l),
(227,-25,l),
(227,-76,l)
);
}
);
width = 454;
},
{
anchors = (
{
name = bottom;
pos = (202,-222);
},
{
name = top;
pos = (202,323);
}
);
hints = (
{
horizontal = 1;
place = (0,101);
type = Stem;
},
{
horizontal = 1;
place = (-76,51);
type = Stem;
},
{
horizontal = 1;
place = (-202,101);
type = Stem;
},
{
place = (303,101);
type = Stem;
},
{
place = (227,51);
type = Stem;
},
{
place = (101,101);
type = Stem;
}
);
layerId = "9037C244-7DB9-46F9-B5BF-70F624EA3C1F";
shapes = (
{
closed = 1;
nodes = (
(-50,20,ls),
(-50,7,o),
(-43,0,o),
(-30,0,cs),
(101,0,l),
(101,-182,ls),
(101,-195,o),
(108,-202,o),
(121,-202,cs),
(384,-202,ls),
(397,-202,o),
(404,-195,o),
(404,-182,cs),
(404,0,l),
(455,0,l),
(455,101,l),
(202,101,l),
(202,283,ls),
(202,296,o),
(195,303,o),
(182,303,cs),
(121,303,ls),
(108,303,o),
(101,296,o),
(101,283,cs),
(101,101,l),
(-30,101,ls),
(-43,101,o),
(-50,94,o),
(-50,81,cs)
);
},
{
closed = 1;
nodes = (
(283,0,ls),
(296,0,o),
(303,-7,o),
(303,-20,cs),
(303,-81,ls),
(303,-94,o),
(296,-101,o),
(283,-101,cs),
(222,-101,ls),
(209,-101,o),
(202,-94,o),
(202,-81,cs),
(202,-20,ls),
(202,-7,o),
(209,0,o),
(222,0,cs)
);
},
{
closed = 1;
nodes = (
(258,-76,ls),
(271,-76,o),
(278,-69,o),
(278,-56,cs),
(278,-45,ls),
(278,-32,o),
(271,-25,o),
(258,-25,cs),
(247,-25,ls),
(234,-25,o),
(227,-32,o),
(227,-45,cs),
(227,-56,ls),
(227,-69,o),
(234,-76,o),
(247,-76,cs)
);
}
);
width = 454;
}
);
note = uni071C.medi;
},
{
glyphname = uni071C.init;
lastChange = "2024-07-21 17:46:37 +0000";
layers = (
{
anchors = (
{
name = bottom;
pos = (202,-222);
},
{
name = top;
pos = (202,323);
}
);
hints = (
{
horizontal = 1;
place = (0,101);
type = Stem;
},
{
horizontal = 1;
place = (-76,51);
type = Stem;
},
{
horizontal = 1;
place = (-202,101);
type = Stem;
},
{
place = (303,101);
type = Stem;
},
{
place = (227,51);
type = Stem;
},
{
place = (101,101);
type = Stem;
}
);
layerId = m01;
shapes = (
{
closed = 1;
nodes = (
(-50,0,l),
(101,0,l),
(101,-202,l),
(404,-202,l),
(404,101,l),
(202,101,l),
(202,303,l),
(101,303,l),
(101,101,l),
(-50,101,l)
);
},
{
closed = 1;
nodes = (
(303,0,l),
(303,-101,l),
(202,-101,l),
(202,0,l)
);
},
{
closed = 1;
nodes = (
(278,-76,l),
(278,-25,l),
(227,-25,l),
(227,-76,l)
);
}
);
width = 404;
},
{
anchors = (
{
name = bottom;
pos = (202,-222);
},
{
name = top;
pos = (202,323);
}
);
hints = (
{
horizontal = 1;
place = (0,101);
type = Stem;
},
{
horizontal = 1;
place = (-76,51);
type = Stem;
},
{
horizontal = 1;
place = (-202,101);
type = Stem;
},
{
place = (303,101);
type = Stem;
},
{
place = (227,51);
type = Stem;
},
{
place = (101,101);
type = Stem;
}
);
layerId = "9037C244-7DB9-46F9-B5BF-70F624EA3C1F";
shapes = (
{
closed = 1;
nodes = (
(-50,20,ls),
(-50,7,o),
(-43,0,o),
(-30,0,cs),
(101,0,l),
(101,-182,ls),
(101,-195,o),
(108,-202,o),
(121,-202,cs),
(384,-202,ls),
(397,-202,o),
(404,-195,o),
(404,-182,cs),
(404,81,ls),
(404,94,o),
(397,101,o),
(384,101,cs),
(202,101,l),
(202,283,ls),
(202,296,o),
(195,303,o),
(182,303,cs),
(121,303,ls),
(108,303,o),
(101,296,o),
(101,283,cs),
(101,101,l),
(-30,101,ls),
(-43,101,o),
(-50,94,o),
(-50,81,cs)
);
},
{
closed = 1;
nodes = (
(283,0,ls),
(296,0,o),
(303,-7,o),
(303,-20,cs),
(303,-81,ls),
(303,-94,o),
(296,-101,o),
(283,-101,cs),
(222,-101,ls),
(209,-101,o),
(202,-94,o),
(202,-81,cs),
(202,-20,ls),
(202,-7,o),
(209,0,o),
(222,0,cs)
);
},
{
closed = 1;
nodes = (
(258,-76,ls),
(271,-76,o),
(278,-69,o),
(278,-56,cs),
(278,-45,ls),
(278,-32,o),
(271,-25,o),
(258,-25,cs),
(247,-25,ls),
(234,-25,o),
(227,-32,o),
(227,-45,cs),
(227,-56,ls),
(227,-69,o),
(234,-76,o),
(247,-76,cs)
);
}
);
width = 404;
}
);
note = uni071C.init;
},
{
glyphname = uni071D;
lastChange = "2024-08-01 03:13:15 +0000";
layers = (
{
anchors = (
{
name = bottom;
pos = (203,-20);
},
{
name = top;
pos = (203,222);
}
);
hints = (
{
horizontal = 1;
place = (0,202);
type = Stem;
},
{
place = (51,202);
type = Stem;
}
);
layerId = m01;
shapes = (
{
closed = 1;
nodes = (
(152,202,l),
(253,202,l),
(253,0,l),
(51,0,l),
(51,101,l),
(152,101,l)
);
}
);
width = 253;
},
{
anchors = (
{
name = bottom;
pos = (203,-20);
},
{
name = top;
pos = (203,222);
}
);
hints = (
{
horizontal = 1;
place = (0,202);
type = Stem;
},
{
place = (51,202);
type = Stem;
}
);
layerId = "9037C244-7DB9-46F9-B5BF-70F624EA3C1F";
shapes = (
{
closed = 1;
nodes = (
(152,182,ls),
(152,195,o),
(159,202,o),
(172,202,cs),
(233,202,ls),
(246,202,o),
(253,195,o),
(253,182,cs),
(253,20,ls),
(253,7,o),
(246,0,o),
(233,0,cs),
(51,0,l),
(51,101,l),
(132,101,ls),
(145,101,o),
(152,108,o),
(152,121,cs)
);
}
);
width = 253;
}
);
note = uni071D;
unicode = 1821;
},
{
glyphname = uni071D.fina;
lastChange = "2024-07-22 06:43:06 +0000";
layers = (
{
anchors = (
{
name = bottom;
pos = (203,-20);
},
{
name = top;
pos = (203,221);
}
);
hints = (
{
horizontal = 1;
place = (0,201);
type = Stem;
},
{
place = (51,303);
type = Stem;
}
);
layerId = m01;
shapes = (
{
closed = 1;
nodes = (
(253,101,l),
(354,101,l),
(354,0,l),
(51,0,l),
(51,101,l),
(152,101,l),
(152,201,l),
(253,201,l)
);
}
);
width = 354;
},
{
anchors = (
{
name = bottom;
pos = (203,-20);
},
{
name = top;
pos = (203,221);
}
);
hints = (
{
horizontal = 1;
place = (0,201);
type = Stem;
},
{
place = (51,303);
type = Stem;
}
);
layerId = "9037C244-7DB9-46F9-B5BF-70F624EA3C1F";
shapes = (
{
closed = 1;
nodes = (
(253,101,l),
(354,101,l),
(354,0,l),
(51,0,l),
(51,101,l),
(152,101,l),
(152,181,ls),
(152,194,o),
(159,201,o),
(172,201,cs),
(233,201,ls),
(246,201,o),
(253,194,o),
(253,181,cs)
);
}
);
width = 354;
}
);
note = uni071D.fina;
},
{
glyphname = uni071D.medi;
lastChange = "2024-07-22 06:42:57 +0000";
layers = (
{
anchors = (
{
name = bottom;
pos = (152,-20);
},
{
name = top;
pos = (152,222);
}
);
hints = (
{
horizontal = 1;
place = (0,202);
type = Stem;
},
{
place = (-50,353);
type = Stem;
}
);
layerId = m01;
shapes = (
{
closed = 1;
nodes = (
(202,101,l),
(303,101,l),
(303,0,l),
(-50,0,l),
(-50,101,l),
(101,101,l),
(101,202,l),
(202,202,l)
);
}
);
width = 302;
},
{
anchors = (
{
name = bottom;
pos = (152,-20);
},
{
name = top;
pos = (152,222);
}
);
hints = (
{
horizontal = 1;
place = (0,202);
type = Stem;
},
{
place = (-50,353);
type = Stem;
}
);
layerId = "9037C244-7DB9-46F9-B5BF-70F624EA3C1F";
shapes = (
{
closed = 1;
nodes = (
(202,101,l),
(303,101,l),
(303,0,l),
(-50,0,l),
(-50,101,l),
(101,101,l),
(101,182,ls),
(101,195,o),
(108,202,o),
(121,202,cs),
(182,202,ls),
(195,202,o),
(202,195,o),
(202,182,cs)
);
}
);
width = 302;
}
);
note = uni071D.medi;
},
{
glyphname = uni071D.init;
lastChange = "2024-08-01 03:13:24 +0000";
layers = (
{
anchors = (
{
name = bottom;
pos = (152,-20);
},
{
name = top;
pos = (152,222);
}
);
hints = (
{
horizontal = 1;
place = (0,202);
type = Stem;
},
{
place = (-50,252);
type = Stem;
}
);
layerId = m01;
shapes = (
{
closed = 1;
nodes = (
(101,202,l),
(202,202,l),
(202,0,l),
(-50,0,l),
(-50,101,l),
(101,101,l)
);
}
);
width = 202;
},
{
anchors = (
{
name = bottom;
pos = (152,-20);
},
{
name = top;
pos = (152,222);
}
);
hints = (
{
horizontal = 1;
place = (0,202);
type = Stem;
},
{
place = (-50,252);
type = Stem;
}
);
layerId = "9037C244-7DB9-46F9-B5BF-70F624EA3C1F";
shapes = (
{
closed = 1;
nodes = (
(101,182,ls),
(101,195,o),
(108,202,o),
(121,202,cs),
(182,202,ls),
(195,202,o),
(202,195,o),
(202,182,cs),
(202,20,ls),
(202,7,o),
(195,0,o),
(182,0,cs),
(-50,0,l),
(-50,101,l),
(101,101,l)
);
}
);
width = 202;
}
);
note = uni071D.init;
},
{
glyphname = uni071E;
lastChange = "2024-07-19 06:05:23 +0000";
layers = (
{
anchors = (
{
name = bottom;
pos = (430,-20);
},
{
name = top;
pos = (430,500);
}
);
hints = (
{
horizontal = 1;
place = (430,50);
type = Stem;
},
{
horizontal = 1;
place = (354,50);
type = Stem;
},
{
horizontal = 1;
place = (202,101);
type = Stem;
},
{
horizontal = 1;
place = (0,202);
type = Stem;
},
{
horizontal = 1;
place = (0,101);
type = Stem;
},
{
horizontal = 1;
place = (-101,51);
type = Stem;
},
{
place = (758,101);
type = Stem;
},
{
place = (456,101);
type = Stem;
},
{
place = (329,50);
type = Stem;
},
{
place = (254,101);
type = Stem;
},
{
place = (228,50);
type = Stem;
},
{
place = (52,102);
type = Stem;
}
);
layerId = m01;
shapes = (
{
closed = 1;
nodes = (
(556,303,l),
(51,303,l),
(52,0,l),
(203,0,l),
(203,101,l),
(153,101,l),
(153,202,l),
(254,202,l),
(254,0,l),
(355,0,l),
(355,202,l),
(455,202,l),
(456,0,l),
(859,0,l),
(859,202,l),
(758,202,l),
(758,101,l),
(556,101,l)
);
},
{
closed = 1;
nodes = (
(278,354,l),
(278,404,l),
(228,404,l),
(228,354,l)
);
},
{
closed = 1;
nodes = (
(379,354,l),
(379,404,l),
(329,404,l),
(329,354,l)
);
},
{
closed = 1;
nodes = (
(329,430,l),
(329,480,l),
(278,480,l),
(278,430,l)
);
},
{
closed = 1;
nodes = (
(329,-101,l),
(329,-50,l),
(278,-50,l),
(278,-101,l)
);
}
);
width = 859;
},
{
anchors = (
{
name = bottom;
pos = (430,-20);
},
{
name = top;
pos = (430,500);
}
);
hints = (
{
horizontal = 1;
place = (430,50);
type = Stem;
},
{
horizontal = 1;
place = (354,50);
type = Stem;
},
{
horizontal = 1;
place = (202,101);
type = Stem;
},
{
horizontal = 1;
place = (0,202);
type = Stem;
},
{
horizontal = 1;
place = (0,101);
type = Stem;
},
{
horizontal = 1;
place = (-101,51);
type = Stem;
},
{
place = (758,101);
type = Stem;
},
{
place = (456,101);
type = Stem;
},
{
place = (329,50);
type = Stem;
},
{
place = (254,101);
type = Stem;
},
{
place = (228,50);
type = Stem;
},
{
place = (52,102);
type = Stem;
}
);
layerId = "9037C244-7DB9-46F9-B5BF-70F624EA3C1F";
shapes = (
{
closed = 1;
nodes = (
(556,283,ls),
(556,296,o),
(549,303,o),
(536,303,cs),
(71,303,ls),
(58,303,o),
(51,296,o),
(51,283,cs),
(52,20,ls),
(52,7,o),
(59,0,o),
(72,0,cs),
(183,0,ls),
(196,0,o),
(203,7,o),
(203,20,cs),
(203,81,ls),
(203,94,o),
(196,101,o),
(183,101,cs),
(153,101,l),
(153,202,l),
(254,202,l),
(254,20,ls),
(254,7,o),
(261,0,o),
(274,0,cs),
(335,0,ls),
(348,0,o),
(355,7,o),
(355,20,cs),
(355,202,l),
(455,202,l),
(456,20,ls),
(456,7,o),
(463,0,o),
(476,0,cs),
(839,0,ls),
(852,0,o),
(859,7,o),
(859,20,cs),
(859,182,ls),
(859,195,o),
(852,202,o),
(839,202,cs),
(778,202,ls),
(765,202,o),
(758,195,o),
(758,182,cs),
(758,101,l),
(556,101,l)
);
},
{
closed = 1;
nodes = (
(258,354,ls),
(271,354,o),
(278,361,o),
(278,374,cs),
(278,384,ls),
(278,397,o),
(271,404,o),
(258,404,cs),
(248,404,ls),
(235,404,o),
(228,397,o),
(228,384,cs),
(228,374,ls),
(228,361,o),
(235,354,o),
(248,354,cs)
);
},
{
closed = 1;
nodes = (
(359,354,ls),
(372,354,o),
(379,361,o),
(379,374,cs),
(379,384,ls),
(379,397,o),
(372,404,o),
(359,404,cs),
(349,404,ls),
(336,404,o),
(329,397,o),
(329,384,cs),
(329,374,ls),
(329,361,o),
(336,354,o),
(349,354,cs)
);
},
{
closed = 1;
nodes = (
(309,430,ls),
(322,430,o),
(329,437,o),
(329,450,cs),
(329,460,ls),
(329,473,o),
(322,480,o),
(309,480,cs),
(298,480,ls),
(285,480,o),
(278,473,o),
(278,460,cs),
(278,450,ls),
(278,437,o),
(285,430,o),
(298,430,cs)
);
},
{
closed = 1;
nodes = (
(309,-101,ls),
(322,-101,o),
(329,-94,o),
(329,-81,cs),
(329,-70,ls),
(329,-57,o),
(322,-50,o),
(309,-50,cs),
(298,-50,ls),
(285,-50,o),
(278,-57,o),
(278,-70,cs),
(278,-81,ls),
(278,-94,o),
(285,-101,o),
(298,-101,cs)
);
}
);
width = 859;
}
);
note = uni071E;
unicode = 1822;
},
{
glyphname = uni071F;
lastChange = "2024-07-20 08:00:37 +0000";
layers = (
{
anchors = (
{
name = bottom;
pos = (228,31);
},
{
name = top;
pos = (228,273);
}
);
hints = (
{
horizontal = 1;
place = (152,101);
type = Stem;
},
{
horizontal = 1;
place = (51,101);
type = Stem;
},
{
place = (354,101);
type = Stem;
},
{
place = (202,101);
type = Stem;
},
{
place = (51,101);
type = Stem;
}
);
layerId = m01;
shapes = (
{
closed = 1;
nodes = (
(303,152,l),
(354,152,l),
(354,-202,l),
(455,-202,l),
(455,253,l),
(202,253,l),
(202,152,l),
(152,152,l),
(152,303,l),
(51,303,l),
(51,51,l),
(303,51,l)
);
}
);
width = 455;
},
{
anchors = (
{
name = bottom;
pos = (228,31);
},
{
name = top;
pos = (228,273);
}
);
hints = (
{
horizontal = 1;
place = (152,101);
type = Stem;
},
{
horizontal = 1;
place = (51,101);
type = Stem;
},
{
place = (354,101);
type = Stem;
},
{
place = (202,101);
type = Stem;
},
{
place = (51,101);
type = Stem;
}
);
layerId = "9037C244-7DB9-46F9-B5BF-70F624EA3C1F";
shapes = (
{
closed = 1;
nodes = (
(303,152,l),
(354,152,l),
(354,-182,ls),
(354,-195,o),
(361,-202,o),
(374,-202,cs),
(435,-202,ls),
(448,-202,o),
(455,-195,o),
(455,-182,cs),
(455,233,ls),
(455,246,o),
(448,253,o),
(435,253,cs),
(222,253,ls),
(209,253,o),
(202,246,o),
(202,233,cs),
(202,152,l),
(152,152,l),
(152,283,ls),
(152,296,o),
(145,303,o),
(132,303,cs),
(71,303,ls),
(58,303,o),
(51,296,o),
(51,283,cs),
(51,71,ls),
(51,58,o),
(58,51,o),
(71,51,cs),
(283,51,ls),
(296,51,o),
(303,58,o),
(303,71,cs)
);
}
);
width = 455;
}
);
note = uni071F;
unicode = 1823;
},
{
glyphname = uni071F.fina;
lastChange = "2024-07-22 05:38:04 +0000";
layers = (
{
anchors = (
{
name = bottom;
pos = (253,31);
},
{
name = top;
pos = (253,273);
}
);
hints = (
{
horizontal = 1;
place = (152,101);
type = Stem;
},
{
horizontal = 1;
place = (51,101);
type = Stem;
},
{
horizontal = 1;
place = (0,101);
type = Stem;
},
{
place = (354,101);
type = Stem;
},
{
place = (202,101);
type = Stem;
},
{
place = (51,101);
type = Stem;
}
);
layerId = m01;
shapes = (
{
closed = 1;
nodes = (
(303,152,l),
(354,152,l),
(354,-202,l),
(455,-202,l),
(455,0,l),
(506,0,l),
(506,101,l),
(455,101,l),
(455,253,l),
(202,253,l),
(202,152,l),
(152,152,l),
(152,303,l),
(51,303,l),
(51,51,l),
(303,51,l)
);
}
);
width = 505;
},
{
anchors = (
{
name = bottom;
pos = (253,31);
},
{
name = top;
pos = (253,273);
}
);
hints = (
{
horizontal = 1;
place = (152,101);
type = Stem;
},
{
horizontal = 1;
place = (51,101);
type = Stem;
},
{
horizontal = 1;
place = (0,101);
type = Stem;
},
{
place = (354,101);
type = Stem;
},
{
place = (202,101);
type = Stem;
},
{
place = (51,101);
type = Stem;
}
);
layerId = "9037C244-7DB9-46F9-B5BF-70F624EA3C1F";
shapes = (
{
closed = 1;
nodes = (
(303,152,l),
(354,152,l),
(354,-182,ls),
(354,-195,o),
(361,-202,o),
(374,-202,cs),
(435,-202,ls),
(448,-202,o),
(455,-195,o),
(455,-182,cs),
(455,0,l),
(506,0,l),
(506,101,l),
(455,101,l),
(455,233,ls),
(455,246,o),
(448,253,o),
(435,253,cs),
(222,253,ls),
(209,253,o),
(202,246,o),
(202,233,cs),
(202,152,l),
(152,152,l),
(152,283,ls),
(152,296,o),
(145,303,o),
(132,303,cs),
(71,303,ls),
(58,303,o),
(51,296,o),
(51,283,cs),
(51,71,ls),
(51,58,o),
(58,51,o),
(71,51,cs),
(283,51,ls),
(296,51,o),
(303,58,o),
(303,71,cs)
);
}
);
width = 505;
}
);
note = uni071F.fina;
},
{
glyphname = uni071F.medi;
lastChange = "2024-07-22 05:58:42 +0000";
layers = (
{
anchors = (
{
name = bottom;
pos = (303,-20);
},
{
name = top;
pos = (303,323);
}
);
hints = (
{
horizontal = 1;
place = (202,101);
type = Stem;
},
{
horizontal = 1;
place = (0,101);
type = Stem;
},
{
place = (404,101);
type = Stem;
},
{
place = (101,101);
type = Stem;
}
);
layerId = m01;
shapes = (
{
closed = 1;
nodes = (
(404,101,l),
(-50,101,l),
(-50,0,l),
(556,0,l),
(556,101,l),
(505,101,l),
(505,303,l),
(101,303,l),
(101,152,l),
(202,152,l),
(202,202,l),
(404,202,l)
);
}
);
width = 556;
},
{
anchors = (
{
name = bottom;
pos = (303,-20);
},
{
name = top;
pos = (303,323);
}
);
hints = (
{
horizontal = 1;
place = (202,101);
type = Stem;
},
{
horizontal = 1;
place = (0,101);
type = Stem;
},
{
place = (404,101);
type = Stem;
},
{
place = (101,101);
type = Stem;
}
);
layerId = "9037C244-7DB9-46F9-B5BF-70F624EA3C1F";
shapes = (
{
closed = 1;
nodes = (
(404,101,l),
(-50,101,l),
(-50,0,l),
(557,0,l),
(557,101,l),
(505,101,l),
(505,283,ls),
(505,296,o),
(498,303,o),
(485,303,cs),
(121,303,ls),
(108,303,o),
(101,296,o),
(101,283,cs),
(101,172,ls),
(101,159,o),
(108,152,o),
(121,152,cs),
(182,152,ls),
(195,152,o),
(202,159,o),
(202,172,cs),
(202,202,l),
(404,202,l)
);
}
);
width = 556;
}
);
note = uni071F.medi;
},
{
glyphname = uni071F.init;
lastChange = "2024-07-19 06:05:23 +0000";
layers = (
{
anchors = (
{
name = bottom;
pos = (303,-20);
},
{
name = top;
pos = (303,323);
}
);
hints = (
{
horizontal = 1;
place = (202,101);
type = Stem;
},
{
horizontal = 1;
place = (0,101);
type = Stem;
},
{
place = (404,101);
type = Stem;
},
{
place = (101,101);
type = Stem;
}
);
layerId = m01;
shapes = (
{
closed = 1;
nodes = (
(404,101,l),
(-50,101,l),
(-50,0,l),
(505,0,l),
(505,303,l),
(101,303,l),
(101,152,l),
(202,152,l),
(202,202,l),
(404,202,l)
);
}
);
width = 505;
},
{
anchors = (
{
name = bottom;
pos = (303,-20);
},
{
name = top;
pos = (303,323);
}
);
hints = (
{
horizontal = 1;
place = (202,101);
type = Stem;
},
{
horizontal = 1;
place = (0,101);
type = Stem;
},
{
place = (404,101);
type = Stem;
},
{
place = (101,101);
type = Stem;
}
);
layerId = "9037C244-7DB9-46F9-B5BF-70F624EA3C1F";
shapes = (
{
closed = 1;
nodes = (
(404,101,l),
(-30,101,ls),
(-43,101,o),
(-50,94,o),
(-50,81,cs),
(-50,20,ls),
(-50,7,o),
(-43,0,o),
(-30,0,cs),
(485,0,ls),
(498,0,o),
(505,7,o),
(505,20,cs),
(505,283,ls),
(505,296,o),
(498,303,o),
(485,303,cs),
(121,303,ls),
(108,303,o),
(101,296,o),
(101,283,cs),
(101,172,ls),
(101,159,o),
(108,152,o),
(121,152,cs),
(182,152,ls),
(195,152,o),
(202,159,o),
(202,172,cs),
(202,202,l),
(404,202,l)
);
}
);
width = 505;
}
);
note = uni071F.init;
},
{
glyphname = uni0720;
lastChange = "2024-08-01 03:13:44 +0000";
layers = (
{
anchors = (
{
name = bottom;
pos = (303,-20);
},
{
name = top;
pos = (303,525);
}
);
hints = (
{
horizontal = 1;
place = (0,505);
type = Stem;
},
{
place = (51,303);
type = Stem;
}
);
layerId = m01;
shapes = (
{
closed = 1;
nodes = (
(253,505,l),
(354,505,l),
(354,0,l),
(51,0,l),
(51,101,l),
(253,101,l)
);
}
);
width = 354;
},
{
anchors = (
{
name = bottom;
pos = (303,-20);
},
{
name = top;
pos = (303,525);
}
);
hints = (
{
horizontal = 1;
place = (0,505);
type = Stem;
},
{
place = (51,303);
type = Stem;
}
);
layerId = "9037C244-7DB9-46F9-B5BF-70F624EA3C1F";
shapes = (
{
closed = 1;
nodes = (
(253,485,ls),
(253,498,o),
(260,505,o),
(273,505,cs),
(334,505,ls),
(347,505,o),
(354,498,o),
(354,485,cs),
(354,20,ls),
(354,7,o),
(347,0,o),
(334,0,cs),
(71,0,ls),
(58,0,o),
(51,7,o),
(51,20,cs),
(51,81,ls),
(51,94,o),
(58,101,o),
(71,101,cs),
(233,101,ls),
(246,101,o),
(253,108,o),
(253,121,cs)
);
}
);
width = 354;
}
);
note = uni0720;
unicode = 1824;
},
{
glyphname = uni0720.fina;
lastChange = "2024-07-22 06:37:32 +0000";
layers = (
{
anchors = (
{
name = bottom;
pos = (304,-20);
},
{
name = top;
pos = (304,525);
}
);
hints = (
{
horizontal = 1;
place = (0,505);
type = Stem;
},
{
place = (51,404);
type = Stem;
}
);
layerId = m01;
shapes = (
{
closed = 1;
nodes = (
(354,101,l),
(455,101,l),
(455,0,l),
(51,0,l),
(51,101,l),
(253,101,l),
(253,505,l),
(354,505,l)
);
}
);
width = 455;
},
{
anchors = (
{
name = bottom;
pos = (304,-20);
},
{
name = top;
pos = (304,525);
}
);
hints = (
{
horizontal = 1;
place = (0,505);
type = Stem;
},
{
place = (51,404);
type = Stem;
}
);
layerId = "9037C244-7DB9-46F9-B5BF-70F624EA3C1F";
shapes = (
{
closed = 1;
nodes = (
(354,101,l),
(455,101,l),
(455,0,l),
(71,0,ls),
(58,0,o),
(51,7,o),
(51,20,cs),
(51,81,ls),
(51,94,o),
(58,101,o),
(71,101,cs),
(253,101,l),
(253,485,ls),
(253,498,o),
(260,505,o),
(273,505,cs),
(334,505,ls),
(347,505,o),
(354,498,o),
(354,485,cs)
);
}
);
width = 455;
}
);
note = uni0720.fina;
},
{
glyphname = uni0720.medi;
lastChange = "2024-07-22 06:37:40 +0000";
layers = (
{
anchors = (
{
name = bottom;
pos = (152,-20);
},
{
name = top;
pos = (152,525);
}
);
hints = (
{
horizontal = 1;
place = (0,505);
type = Stem;
},
{
place = (-50,353);
type = Stem;
}
);
layerId = m01;
shapes = (
{
closed = 1;
nodes = (
(202,101,l),
(303,101,l),
(303,0,l),
(-50,0,l),
(-50,101,l),
(101,101,l),
(101,505,l),
(202,505,l)
);
}
);
width = 303;
},
{
anchors = (
{
name = bottom;
pos = (152,-20);
},
{
name = top;
pos = (152,525);
}
);
hints = (
{
horizontal = 1;
place = (0,505);
type = Stem;
},
{
place = (-50,353);
type = Stem;
}
);
layerId = "9037C244-7DB9-46F9-B5BF-70F624EA3C1F";
shapes = (
{
closed = 1;
nodes = (
(202,101,l),
(304,101,l),
(304,0,l),
(-50,0,l),
(-50,101,l),
(101,101,l),
(101,485,ls),
(101,498,o),
(108,505,o),
(121,505,cs),
(182,505,ls),
(195,505,o),
(202,498,o),
(202,485,cs)
);
}
);
width = 303;
}
);
note = uni0720.medi;
},
{
glyphname = uni0720.init;
lastChange = "2024-08-01 03:13:54 +0000";
layers = (
{
anchors = (
{
name = bottom;
pos = (152,-20);
},
{
name = top;
pos = (152,525);
}
);
hints = (
{
horizontal = 1;
place = (0,505);
type = Stem;
},
{
place = (-50,252);
type = Stem;
}
);
layerId = m01;
shapes = (
{
closed = 1;
nodes = (
(101,505,l),
(202,505,l),
(202,0,l),
(-50,0,l),
(-50,101,l),
(101,101,l)
);
}
);
width = 202;
},
{
anchors = (
{
name = bottom;
pos = (152,-20);
},
{
name = top;
pos = (152,525);
}
);
hints = (
{
horizontal = 1;
place = (0,505);
type = Stem;
},
{
place = (-50,252);
type = Stem;
}
);
layerId = "9037C244-7DB9-46F9-B5BF-70F624EA3C1F";
shapes = (
{
closed = 1;
nodes = (
(101,485,ls),
(101,498,o),
(108,505,o),
(121,505,cs),
(182,505,ls),
(195,505,o),
(202,498,o),
(202,485,cs),
(202,20,ls),
(202,7,o),
(195,0,o),
(182,0,cs),
(-30,0,ls),
(-43,0,o),
(-50,7,o),
(-50,20,cs),
(-50,81,ls),
(-50,94,o),
(-43,101,o),
(-30,101,cs),
(101,101,l)
);
}
);
width = 202;
}
);
note = uni0720.init;
},
{
glyphname = uni0721;
lastChange = "2024-07-21 17:46:21 +0000";
layers = (
{
anchors = (
{
name = bottom;
pos = (354,-20);
},
{
name = top;
pos = (354,323);
}
);
hints = (
{
horizontal = 1;
place = (202,101);
type = Stem;
},
{
horizontal = 1;
place = (0,101);
type = Stem;
},
{
place = (354,101);
type = Stem;
},
{
place = (152,101);
type = Stem;
}
);
layerId = m01;
shapes = (
{
closed = 1;
nodes = (
(51,202,l),
(152,202,l),
(152,-101,l),
(253,-101,l),
(253,0,l),
(455,0,l),
(455,303,l),
(51,303,l)
);
},
{
closed = 1;
nodes = (
(354,202,l),
(354,101,l),
(253,101,l),
(253,202,l)
);
}
);
width = 455;
},
{
anchors = (
{
name = bottom;
pos = (354,-20);
},
{
name = top;
pos = (354,323);
}
);
hints = (
{
horizontal = 1;
place = (202,101);
type = Stem;
},
{
horizontal = 1;
place = (0,101);
type = Stem;
},
{
place = (354,101);
type = Stem;
},
{
place = (152,101);
type = Stem;
}
);
layerId = "9037C244-7DB9-46F9-B5BF-70F624EA3C1F";
shapes = (
{
closed = 1;
nodes = (
(51,222,ls),
(51,209,o),
(58,202,o),
(71,202,cs),
(152,202,l),
(152,-81,ls),
(152,-94,o),
(159,-101,o),
(172,-101,cs),
(233,-101,ls),
(246,-101,o),
(253,-94,o),
(253,-81,cs),
(253,0,l),
(435,0,ls),
(448,0,o),
(455,7,o),
(455,20,cs),
(455,283,ls),
(455,296,o),
(448,303,o),
(435,303,cs),
(71,303,ls),
(58,303,o),
(51,296,o),
(51,283,cs)
);
},
{
closed = 1;
nodes = (
(334,202,ls),
(347,202,o),
(354,195,o),
(354,182,cs),
(354,121,ls),
(354,108,o),
(347,101,o),
(334,101,cs),
(273,101,ls),
(260,101,o),
(253,108,o),
(253,121,cs),
(253,182,ls),
(253,195,o),
(260,202,o),
(273,202,cs)
);
}
);
width = 455;
}
);
note = uni0721;
unicode = 1825;
},
{
glyphname = uni0721.fina;
lastChange = "2024-07-22 05:36:42 +0000";
layers = (
{
anchors = (
{
name = bottom;
pos = (380,-20);
},
{
name = top;
pos = (380,324);
}
);
hints = (
{
horizontal = 1;
place = (202,101);
type = Stem;
},
{
horizontal = 1;
place = (0,101);
type = Stem;
},
{
place = (354,101);
type = Stem;
},
{
place = (152,101);
type = Stem;
}
);
layerId = m01;
shapes = (
{
closed = 1;
nodes = (
(51,202,l),
(152,202,l),
(152,-101,l),
(253,-101,l),
(253,0,l),
(506,0,l),
(506,101,l),
(455,101,l),
(455,303,l),
(51,303,l)
);
},
{
closed = 1;
nodes = (
(354,202,l),
(354,101,l),
(253,101,l),
(253,202,l)
);
}
);
width = 505;
},
{
anchors = (
{
name = bottom;
pos = (380,-20);
},
{
name = top;
pos = (380,324);
}
);
hints = (
{
horizontal = 1;
place = (202,101);
type = Stem;
},
{
horizontal = 1;
place = (0,101);
type = Stem;
},
{
place = (354,101);
type = Stem;
},
{
place = (152,101);
type = Stem;
}
);
layerId = "9037C244-7DB9-46F9-B5BF-70F624EA3C1F";
shapes = (
{
closed = 1;
nodes = (
(51,222,ls),
(51,209,o),
(58,202,o),
(71,202,cs),
(152,202,l),
(152,-81,ls),
(152,-94,o),
(159,-101,o),
(172,-101,cs),
(233,-101,ls),
(246,-101,o),
(253,-94,o),
(253,-81,cs),
(253,0,l),
(506,0,l),
(506,101,l),
(455,101,l),
(455,283,ls),
(455,296,o),
(448,303,o),
(435,303,cs),
(71,303,ls),
(58,303,o),
(51,296,o),
(51,283,cs)
);
},
{
closed = 1;
nodes = (
(334,202,ls),
(347,202,o),
(354,195,o),
(354,182,cs),
(354,121,ls),
(354,108,o),
(347,101,o),
(334,101,cs),
(273,101,ls),
(260,101,o),
(253,108,o),
(253,121,cs),
(253,182,ls),
(253,195,o),
(260,202,o),
(273,202,cs)
);
}
);
width = 505;
}
);
note = uni0721.fina;
},
{
glyphname = uni0721.medi;
lastChange = "2024-07-22 05:36:11 +0000";
layers = (
{
anchors = (
{
name = bottom;
pos = (278,-20);
},
{
name = top;
pos = (278,323);
}
);
hints = (
{
horizontal = 1;
place = (202,101);
type = Stem;
},
{
horizontal = 1;
place = (0,101);
type = Stem;
},
{
place = (354,101);
type = Stem;
},
{
place = (152,101);
type = Stem;
}
);
layerId = m01;
shapes = (
{
closed = 1;
nodes = (
(303,101,l),
(303,0,l),
(506,0,l),
(506,101,l),
(455,101,l),
(455,303,l),
(51,303,l),
(51,202,l),
(152,202,l),
(152,101,l),
(-50,101,l),
(-50,0,l),
(253,0,l),
(253,202,l),
(354,202,l),
(354,101,l)
);
}
);
width = 505;
},
{
anchors = (
{
name = bottom;
pos = (278,-20);
},
{
name = top;
pos = (278,323);
}
);
hints = (
{
horizontal = 1;
place = (202,101);
type = Stem;
},
{
horizontal = 1;
place = (0,101);
type = Stem;
},
{
place = (354,101);
type = Stem;
},
{
place = (152,101);
type = Stem;
}
);
layerId = "9037C244-7DB9-46F9-B5BF-70F624EA3C1F";
shapes = (
{
closed = 1;
nodes = (
(323,101,ls),
(310,101,o),
(303,94,o),
(303,81,cs),
(303,20,ls),
(303,7,o),
(310,0,o),
(323,0,cs),
(506,0,l),
(506,101,l),
(455,101,l),
(455,283,ls),
(455,296,o),
(448,303,o),
(435,303,cs),
(71,303,ls),
(58,303,o),
(51,296,o),
(51,283,cs),
(51,222,ls),
(51,209,o),
(58,202,o),
(71,202,cs),
(152,202,l),
(152,101,l),
(-50,101,l),
(-50,0,l),
(233,0,ls),
(246,0,o),
(253,7,o),
(253,20,cs),
(253,202,l),
(354,202,l),
(354,101,l)
);
}
);
width = 505;
}
);
note = uni0721.medi;
},
{
glyphname = uni0721.init;
lastChange = "2024-07-22 05:35:23 +0000";
layers = (
{
anchors = (
{
name = bottom;
pos = (278,-20);
},
{
name = top;
pos = (278,323);
}
);
hints = (
{
horizontal = 1;
place = (202,101);
type = Stem;
},
{
horizontal = 1;
place = (0,101);
type = Stem;
},
{
place = (354,101);
type = Stem;
},
{
place = (152,101);
type = Stem;
}
);
layerId = m01;
shapes = (
{
closed = 1;
nodes = (
(303,101,l),
(303,0,l),
(455,0,l),
(455,303,l),
(51,303,l),
(51,202,l),
(152,202,l),
(152,101,l),
(-50,101,l),
(-50,0,l),
(253,0,l),
(253,202,l),
(354,202,l),
(354,101,l)
);
}
);
width = 455;
},
{
anchors = (
{
name = bottom;
pos = (278,-20);
},
{
name = top;
pos = (278,323);
}
);
hints = (
{
horizontal = 1;
place = (202,101);
type = Stem;
},
{
horizontal = 1;
place = (0,101);
type = Stem;
},
{
place = (354,101);
type = Stem;
},
{
place = (152,101);
type = Stem;
}
);
layerId = "9037C244-7DB9-46F9-B5BF-70F624EA3C1F";
shapes = (
{
closed = 1;
nodes = (
(323,101,ls),
(310,101,o),
(303,94,o),
(303,81,cs),
(303,20,ls),
(303,7,o),
(310,0,o),
(323,0,cs),
(435,0,ls),
(448,0,o),
(455,7,o),
(455,20,cs),
(455,283,ls),
(455,296,o),
(448,303,o),
(435,303,cs),
(71,303,ls),
(58,303,o),
(51,296,o),
(51,283,cs),
(51,222,ls),
(51,209,o),
(58,202,o),
(71,202,cs),
(152,202,l),
(152,101,l),
(-50,101,l),
(-50,0,l),
(233,0,ls),
(246,0,o),
(253,7,o),
(253,20,cs),
(253,202,l),
(354,202,l),
(354,101,l)
);
}
);
width = 455;
}
);
note = uni0721.init;
},
{
glyphname = uni0722;
lastChange = "2024-07-19 06:05:23 +0000";
layers = (
{
anchors = (
{
name = bottom;
pos = (102,-222);
},
{
name = top;
pos = (102,121);
}
);
hints = (
{
horizontal = 1;
place = (-202,303);
type = Stem;
},
{
place = (51,101);
type = Stem;
}
);
layerId = m01;
shapes = (
{
closed = 1;
nodes = (
(152,-202,l),
(152,101,l),
(51,101,l),
(51,-202,l)
);
}
);
width = 152;
},
{
anchors = (
{
name = bottom;
pos = (102,-222);
},
{
name = top;
pos = (102,121);
}
);
hints = (
{
horizontal = 1;
place = (-202,303);
type = Stem;
},
{
place = (51,101);
type = Stem;
}
);
layerId = "9037C244-7DB9-46F9-B5BF-70F624EA3C1F";
shapes = (
{
closed = 1;
nodes = (
(132,-202,ls),
(145,-202,o),
(152,-195,o),
(152,-182,cs),
(152,81,ls),
(152,94,o),
(145,101,o),
(132,101,cs),
(71,101,ls),
(58,101,o),
(51,94,o),
(51,81,cs),
(51,-182,ls),
(51,-195,o),
(58,-202,o),
(71,-202,cs)
);
}
);
width = 152;
}
);
note = uni0722;
unicode = 1826;
},
{
glyphname = uni0722.fina;
lastChange = "2024-07-22 05:30:32 +0000";
layers = (
{
anchors = (
{
name = bottom;
pos = (102,-222);
},
{
name = top;
pos = (102,121);
}
);
hints = (
{
horizontal = 1;
place = (0,101);
type = Stem;
},
{
place = (51,101);
type = Stem;
}
);
layerId = m01;
shapes = (
{
closed = 1;
nodes = (
(178,0,l),
(178,101,l),
(51,101,l),
(51,-202,l),
(152,-202,l),
(152,0,l)
);
}
);
width = 177;
},
{
anchors = (
{
name = bottom;
pos = (102,-222);
},
{
name = top;
pos = (102,121);
}
);
hints = (
{
horizontal = 1;
place = (0,101);
type = Stem;
},
{
place = (51,101);
type = Stem;
}
);
layerId = "9037C244-7DB9-46F9-B5BF-70F624EA3C1F";
shapes = (
{
closed = 1;
nodes = (
(178,0,l),
(178,101,l),
(71,101,ls),
(58,101,o),
(51,94,o),
(51,81,cs),
(51,-182,ls),
(51,-195,o),
(58,-202,o),
(71,-202,cs),
(132,-202,ls),
(145,-202,o),
(152,-195,o),
(152,-182,cs),
(152,0,l)
);
}
);
width = 177;
}
);
note = uni0722.fina;
},
{
glyphname = uni0722.medi;
lastChange = "2024-07-22 05:33:14 +0000";
layers = (
{
anchors = (
{
name = bottom;
pos = (76,-20);
},
{
name = top;
pos = (76,323);
}
);
hints = (
{
horizontal = 1;
place = (0,101);
type = Stem;
},
{
place = (25,101);
type = Stem;
}
);
layerId = m01;
shapes = (
{
closed = 1;
nodes = (
(25,101,l),
(-50,101,l),
(-50,0,l),
(177,0,l),
(177,101,l),
(126,101,l),
(126,303,l),
(25,303,l)
);
}
);
width = 177;
},
{
anchors = (
{
name = bottom;
pos = (76,-20);
},
{
name = top;
pos = (76,323);
}
);
hints = (
{
horizontal = 1;
place = (0,101);
type = Stem;
},
{
place = (25,101);
type = Stem;
}
);
layerId = "9037C244-7DB9-46F9-B5BF-70F624EA3C1F";
shapes = (
{
closed = 1;
nodes = (
(25,101,l),
(-50,101,l),
(-50,0,l),
(178,0,l),
(178,101,l),
(126,101,l),
(126,283,ls),
(126,296,o),
(119,303,o),
(106,303,cs),
(45,303,ls),
(32,303,o),
(25,296,o),
(25,283,cs)
);
}
);
width = 177;
}
);
note = uni0722.medi;
},
{
glyphname = uni0722.init;
lastChange = "2024-07-22 06:41:41 +0000";
layers = (
{
anchors = (
{
name = bottom;
pos = (77,-20);
},
{
name = top;
pos = (77,323);
}
);
hints = (
{
horizontal = 1;
place = (0,99);
type = Stem;
},
{
place = (26,101);
type = Stem;
}
);
layerId = m01;
shapes = (
{
closed = 1;
nodes = (
(26,101,l),
(-50,101,l),
(-50,0,l),
(127,0,l),
(127,303,l),
(26,303,l)
);
}
);
width = 127;
},
{
anchors = (
{
name = bottom;
pos = (77,-20);
},
{
name = top;
pos = (77,323);
}
);
hints = (
{
horizontal = 1;
origin = (0,2);
place = (0,99);
type = Stem;
},
{
origin = (0,0);
place = (26,101);
type = Stem;
}
);
layerId = "9037C244-7DB9-46F9-B5BF-70F624EA3C1F";
shapes = (
{
closed = 1;
nodes = (
(26,101,l),
(-50,101,l),
(-50,0,l),
(107,0,l),
(120,0,o),
(127,7,o),
(127,20,c),
(127,283,l),
(127,296,o),
(120,303,o),
(107,303,c),
(46,303,l),
(33,303,o),
(26,296,o),
(26,283,c)
);
}
);
width = 127;
}
);
note = uni0722.init;
},
{
glyphname = uni0723;
lastChange = "2024-07-20 07:51:59 +0000";
layers = (
{
anchors = (
{
name = bottom;
pos = (304,-20);
},
{
name = top;
pos = (304,323);
}
);
hints = (
{
horizontal = 1;
place = (101,101);
type = Stem;
},
{
place = (354,101);
type = Stem;
},
{
place = (152,101);
type = Stem;
}
);
layerId = m01;
shapes = (
{
closed = 1;
nodes = (
(152,202,l),
(152,101,l),
(253,101,l),
(253,202,l)
);
},
{
closed = 1;
nodes = (
(51,303,l),
(556,303,l),
(556,0,l),
(51,0,l)
);
},
{
closed = 1;
nodes = (
(354,202,l),
(354,101,l),
(455,101,l),
(454,202,l)
);
}
);
width = 556;
},
{
anchors = (
{
name = bottom;
pos = (304,-20);
},
{
name = top;
pos = (304,323);
}
);
hints = (
{
horizontal = 1;
place = (101,101);
type = Stem;
},
{
place = (354,101);
type = Stem;
},
{
place = (152,101);
type = Stem;
}
);
layerId = "9037C244-7DB9-46F9-B5BF-70F624EA3C1F";
shapes = (
{
closed = 1;
nodes = (
(172,202,ls),
(159,202,o),
(152,195,o),
(152,182,cs),
(152,121,ls),
(152,108,o),
(159,101,o),
(172,101,cs),
(233,101,ls),
(246,101,o),
(253,108,o),
(253,121,cs),
(253,182,ls),
(253,195,o),
(246,202,o),
(233,202,cs)
);
},
{
closed = 1;
nodes = (
(51,283,ls),
(51,296,o),
(58,303,o),
(71,303,cs),
(536,303,ls),
(549,303,o),
(556,296,o),
(556,283,cs),
(556,20,ls),
(556,7,o),
(549,0,o),
(536,0,cs),
(71,0,ls),
(58,0,o),
(51,7,o),
(51,20,cs)
);
},
{
closed = 1;
nodes = (
(374,202,ls),
(361,202,o),
(354,195,o),
(354,182,cs),
(354,121,ls),
(354,108,o),
(361,101,o),
(374,101,cs),
(435,101,ls),
(448,101,o),
(455,108,o),
(455,121,cs),
(454,182,ls),
(454,195,o),
(447,202,o),
(434,202,cs)
);
}
);
width = 556;
}
);
note = uni0723;
unicode = 1827;
},
{
glyphname = uni0723.fina;
lastChange = "2024-07-22 06:33:23 +0000";
layers = (
{
anchors = (
{
name = bottom;
pos = (304,-20);
},
{
name = top;
pos = (304,323);
}
);
hints = (
{
horizontal = 1;
place = (101,101);
type = Stem;
},
{
place = (354,101);
type = Stem;
},
{
place = (152,101);
type = Stem;
}
);
layerId = m01;
shapes = (
{
closed = 1;
nodes = (
(152,202,l),
(152,101,l),
(253,101,l),
(253,202,l)
);
},
{
closed = 1;
nodes = (
(556,101,l),
(606,101,l),
(606,0,l),
(51,0,l),
(51,303,l),
(556,303,l)
);
},
{
closed = 1;
nodes = (
(354,202,l),
(354,101,l),
(455,101,l),
(454,202,l)
);
}
);
width = 606;
},
{
anchors = (
{
name = bottom;
pos = (304,-20);
},
{
name = top;
pos = (304,323);
}
);
hints = (
{
horizontal = 1;
place = (101,101);
type = Stem;
},
{
place = (354,101);
type = Stem;
},
{
place = (152,101);
type = Stem;
}
);
layerId = "9037C244-7DB9-46F9-B5BF-70F624EA3C1F";
shapes = (
{
closed = 1;
nodes = (
(172,202,ls),
(159,202,o),
(152,195,o),
(152,182,cs),
(152,121,ls),
(152,108,o),
(159,101,o),
(172,101,cs),
(233,101,ls),
(246,101,o),
(253,108,o),
(253,121,cs),
(253,182,ls),
(253,195,o),
(246,202,o),
(233,202,cs)
);
},
{
closed = 1;
nodes = (
(556,101,l),
(606,101,l),
(606,0,l),
(71,0,ls),
(58,0,o),
(51,7,o),
(51,20,cs),
(51,283,ls),
(51,296,o),
(58,303,o),
(71,303,cs),
(536,303,ls),
(549,303,o),
(556,296,o),
(556,283,cs)
);
},
{
closed = 1;
nodes = (
(374,202,ls),
(361,202,o),
(354,195,o),
(354,182,cs),
(354,121,ls),
(354,108,o),
(361,101,o),
(374,101,cs),
(435,101,ls),
(448,101,o),
(455,108,o),
(455,121,cs),
(454,182,ls),
(454,195,o),
(447,202,o),
(434,202,cs)
);
}
);
width = 606;
}
);
note = uni0723.fina;
},
{
glyphname = uni0723.medi;
lastChange = "2024-07-22 06:33:41 +0000";
layers = (
{
anchors = (
{
name = bottom;
pos = (304,-20);
},
{
name = top;
pos = (304,323);
}
);
hints = (
{
horizontal = 1;
place = (101,101);
type = Stem;
},
{
place = (354,101);
type = Stem;
},
{
place = (152,101);
type = Stem;
}
);
layerId = m01;
shapes = (
{
closed = 1;
nodes = (
(152,202,l),
(152,101,l),
(253,101,l),
(253,202,l)
);
},
{
closed = 1;
nodes = (
(556,101,l),
(606,101,l),
(606,0,l),
(-50,0,l),
(-50,101,l),
(51,101,l),
(51,303,l),
(556,303,l)
);
},
{
closed = 1;
nodes = (
(354,202,l),
(354,101,l),
(455,101,l),
(454,202,l)
);
}
);
width = 606;
},
{
anchors = (
{
name = bottom;
pos = (304,-20);
},
{
name = top;
pos = (304,323);
}
);
hints = (
{
horizontal = 1;
place = (101,101);
type = Stem;
},
{
place = (354,101);
type = Stem;
},
{
place = (152,101);
type = Stem;
}
);
layerId = "9037C244-7DB9-46F9-B5BF-70F624EA3C1F";
shapes = (
{
closed = 1;
nodes = (
(172,202,ls),
(159,202,o),
(152,195,o),
(152,182,cs),
(152,121,ls),
(152,108,o),
(159,101,o),
(172,101,cs),
(233,101,ls),
(246,101,o),
(253,108,o),
(253,121,cs),
(253,182,ls),
(253,195,o),
(246,202,o),
(233,202,cs)
);
},
{
closed = 1;
nodes = (
(556,101,l),
(606,101,l),
(606,0,l),
(-50,0,l),
(-50,101,l),
(51,101,l),
(51,283,ls),
(51,296,o),
(58,303,o),
(71,303,cs),
(536,303,ls),
(549,303,o),
(556,296,o),
(556,283,cs)
);
},
{
closed = 1;
nodes = (
(374,202,ls),
(361,202,o),
(354,195,o),
(354,182,cs),
(354,121,ls),
(354,108,o),
(361,101,o),
(374,101,cs),
(435,101,ls),
(448,101,o),
(455,108,o),
(455,121,cs),
(454,182,ls),
(454,195,o),
(447,202,o),
(434,202,cs)
);
}
);
width = 606;
}
);
note = uni0723.medi;
},
{
glyphname = uni0723.init;
lastChange = "2024-07-22 06:33:48 +0000";
layers = (
{
anchors = (
{
name = bottom;
pos = (304,-20);
},
{
name = top;
pos = (304,323);
}
);
hints = (
{
horizontal = 1;
place = (101,101);
type = Stem;
},
{
place = (354,101);
type = Stem;
},
{
place = (152,101);
type = Stem;
}
);
layerId = m01;
shapes = (
{
closed = 1;
nodes = (
(152,202,l),
(152,101,l),
(253,101,l),
(253,202,l)
);
},
{
closed = 1;
nodes = (
(51,303,l),
(556,303,l),
(556,0,l),
(-50,0,l),
(-50,101,l),
(51,101,l)
);
},
{
closed = 1;
nodes = (
(354,202,l),
(354,101,l),
(455,101,l),
(454,202,l)
);
}
);
width = 556;
},
{
anchors = (
{
name = bottom;
pos = (304,-20);
},
{
name = top;
pos = (304,323);
}
);
hints = (
{
horizontal = 1;
place = (101,101);
type = Stem;
},
{
place = (354,101);
type = Stem;
},
{
place = (152,101);
type = Stem;
}
);
layerId = "9037C244-7DB9-46F9-B5BF-70F624EA3C1F";
shapes = (
{
closed = 1;
nodes = (
(172,202,ls),
(159,202,o),
(152,195,o),
(152,182,cs),
(152,121,ls),
(152,108,o),
(159,101,o),
(172,101,cs),
(233,101,ls),
(246,101,o),
(253,108,o),
(253,121,cs),
(253,182,ls),
(253,195,o),
(246,202,o),
(233,202,cs)
);
},
{
closed = 1;
nodes = (
(51,283,ls),
(51,296,o),
(58,303,o),
(71,303,cs),
(536,303,ls),
(549,303,o),
(556,296,o),
(556,283,cs),
(556,20,ls),
(556,7,o),
(549,0,o),
(536,0,cs),
(-50,0,l),
(-50,101,l),
(51,101,l)
);
},
{
closed = 1;
nodes = (
(374,202,ls),
(361,202,o),
(354,195,o),
(354,182,cs),
(354,121,ls),
(354,108,o),
(361,101,o),
(374,101,cs),
(435,101,ls),
(448,101,o),
(455,108,o),
(455,121,cs),
(454,182,ls),
(454,195,o),
(447,202,o),
(434,202,cs)
);
}
);
width = 556;
}
);
note = uni0723.init;
},
{
glyphname = uni0724;
lastChange = "2024-07-20 07:53:04 +0000";
layers = (
{
anchors = (
{
name = bottom;
pos = (304,-20);
},
{
name = top;
pos = (304,323);
}
);
hints = (
{
horizontal = 1;
place = (101,101);
type = Stem;
},
{
place = (354,101);
type = Stem;
},
{
place = (152,101);
type = Stem;
}
);
layerId = m01;
shapes = (
{
closed = 1;
nodes = (
(152,202,l),
(152,101,l),
(253,101,l),
(253,202,l)
);
},
{
closed = 1;
nodes = (
(51,303,l),
(556,303,l),
(556,0,l),
(354,0,l),
(354,-101,l),
(253,-101,l),
(253,0,l),
(51,0,l)
);
},
{
closed = 1;
nodes = (
(354,202,l),
(354,101,l),
(455,101,l),
(454,202,l)
);
}
);
width = 556;
},
{
anchors = (
{
name = bottom;
pos = (304,-20);
},
{
name = top;
pos = (304,323);
}
);
hints = (
{
horizontal = 1;
place = (101,101);
type = Stem;
},
{
place = (354,101);
type = Stem;
},
{
place = (152,101);
type = Stem;
}
);
layerId = "9037C244-7DB9-46F9-B5BF-70F624EA3C1F";
shapes = (
{
closed = 1;
nodes = (
(172,202,ls),
(159,202,o),
(152,195,o),
(152,182,cs),
(152,121,ls),
(152,108,o),
(159,101,o),
(172,101,cs),
(233,101,ls),
(246,101,o),
(253,108,o),
(253,121,cs),
(253,182,ls),
(253,195,o),
(246,202,o),
(233,202,cs)
);
},
{
closed = 1;
nodes = (
(51,283,ls),
(51,296,o),
(58,303,o),
(71,303,cs),
(536,303,ls),
(549,303,o),
(556,296,o),
(556,283,cs),
(556,20,ls),
(556,7,o),
(549,0,o),
(536,0,cs),
(374,0,ls),
(361,0,o),
(354,-7,o),
(354,-20,cs),
(354,-81,ls),
(354,-94,o),
(347,-101,o),
(334,-101,cs),
(273,-101,ls),
(260,-101,o),
(253,-94,o),
(253,-81,cs),
(253,-20,ls),
(253,-7,o),
(246,0,o),
(233,0,cs),
(71,0,ls),
(58,0,o),
(51,7,o),
(51,20,cs)
);
},
{
closed = 1;
nodes = (
(374,202,ls),
(361,202,o),
(354,195,o),
(354,182,cs),
(354,121,ls),
(354,108,o),
(361,101,o),
(374,101,cs),
(435,101,ls),
(448,101,o),
(455,108,o),
(455,121,cs),
(454,182,ls),
(454,195,o),
(447,202,o),
(434,202,cs)
);
}
);
width = 556;
}
);
note = uni0724;
unicode = 1828;
},
{
glyphname = uni0724.fina;
lastChange = "2024-07-22 06:33:56 +0000";
layers = (
{
anchors = (
{
name = bottom;
pos = (304,-20);
},
{
name = top;
pos = (304,323);
}
);
hints = (
{
horizontal = 1;
place = (101,101);
type = Stem;
},
{
place = (354,101);
type = Stem;
},
{
place = (152,101);
type = Stem;
}
);
layerId = m01;
shapes = (
{
closed = 1;
nodes = (
(152,202,l),
(152,101,l),
(253,101,l),
(253,202,l)
);
},
{
closed = 1;
nodes = (
(556,101,l),
(606,101,l),
(606,0,l),
(354,0,l),
(354,-101,l),
(253,-101,l),
(253,0,l),
(51,0,l),
(51,303,l),
(556,303,l)
);
},
{
closed = 1;
nodes = (
(354,202,l),
(354,101,l),
(455,101,l),
(454,202,l)
);
}
);
width = 606;
},
{
anchors = (
{
name = bottom;
pos = (304,-20);
},
{
name = top;
pos = (304,323);
}
);
hints = (
{
horizontal = 1;
place = (101,101);
type = Stem;
},
{
place = (354,101);
type = Stem;
},
{
place = (152,101);
type = Stem;
}
);
layerId = "9037C244-7DB9-46F9-B5BF-70F624EA3C1F";
shapes = (
{
closed = 1;
nodes = (
(172,202,ls),
(159,202,o),
(152,195,o),
(152,182,cs),
(152,121,ls),
(152,108,o),
(159,101,o),
(172,101,cs),
(233,101,ls),
(246,101,o),
(253,108,o),
(253,121,cs),
(253,182,ls),
(253,195,o),
(246,202,o),
(233,202,cs)
);
},
{
closed = 1;
nodes = (
(556,101,l),
(606,101,l),
(606,0,l),
(374,0,ls),
(361,0,o),
(354,-7,o),
(354,-20,cs),
(354,-81,ls),
(354,-94,o),
(347,-101,o),
(334,-101,cs),
(273,-101,ls),
(260,-101,o),
(253,-94,o),
(253,-81,cs),
(253,-20,ls),
(253,-7,o),
(246,0,o),
(233,0,cs),
(71,0,ls),
(58,0,o),
(51,7,o),
(51,20,cs),
(51,283,ls),
(51,296,o),
(58,303,o),
(71,303,cs),
(536,303,ls),
(549,303,o),
(556,296,o),
(556,283,cs)
);
},
{
closed = 1;
nodes = (
(374,202,ls),
(361,202,o),
(354,195,o),
(354,182,cs),
(354,121,ls),
(354,108,o),
(361,101,o),
(374,101,cs),
(435,101,ls),
(448,101,o),
(455,108,o),
(455,121,cs),
(454,182,ls),
(454,195,o),
(447,202,o),
(434,202,cs)
);
}
);
width = 606;
}
);
note = uni0724.fina;
},
{
glyphname = uni0724.medi;
lastChange = "2024-07-22 06:34:07 +0000";
layers = (
{
anchors = (
{
name = bottom;
pos = (304,-20);
},
{
name = top;
pos = (304,323);
}
);
hints = (
{
horizontal = 1;
place = (101,101);
type = Stem;
},
{
place = (354,101);
type = Stem;
},
{
place = (152,101);
type = Stem;
}
);
layerId = m01;
shapes = (
{
closed = 1;
nodes = (
(152,202,l),
(152,101,l),
(253,101,l),
(253,202,l)
);
},
{
closed = 1;
nodes = (
(556,101,l),
(606,101,l),
(606,0,l),
(354,0,l),
(354,-101,l),
(253,-101,l),
(253,0,l),
(-50,0,l),
(-50,101,l),
(51,101,l),
(51,303,l),
(556,303,l)
);
},
{
closed = 1;
nodes = (
(354,202,l),
(354,101,l),
(455,101,l),
(454,202,l)
);
}
);
width = 606;
},
{
anchors = (
{
name = bottom;
pos = (304,-20);
},
{
name = top;
pos = (304,323);
}
);
hints = (
{
horizontal = 1;
place = (101,101);
type = Stem;
},
{
place = (354,101);
type = Stem;
},
{
place = (152,101);
type = Stem;
}
);
layerId = "9037C244-7DB9-46F9-B5BF-70F624EA3C1F";
shapes = (
{
closed = 1;
nodes = (
(172,202,ls),
(159,202,o),
(152,195,o),
(152,182,cs),
(152,121,ls),
(152,108,o),
(159,101,o),
(172,101,cs),
(233,101,ls),
(246,101,o),
(253,108,o),
(253,121,cs),
(253,182,ls),
(253,195,o),
(246,202,o),
(233,202,cs)
);
},
{
closed = 1;
nodes = (
(556,101,l),
(606,101,l),
(606,0,l),
(374,0,ls),
(361,0,o),
(354,-7,o),
(354,-20,cs),
(354,-81,ls),
(354,-94,o),
(347,-101,o),
(334,-101,cs),
(273,-101,ls),
(260,-101,o),
(253,-94,o),
(253,-81,cs),
(253,-20,ls),
(253,-7,o),
(246,0,o),
(233,0,cs),
(-50,0,l),
(-50,101,l),
(51,101,l),
(51,283,ls),
(51,296,o),
(58,303,o),
(71,303,cs),
(536,303,ls),
(549,303,o),
(556,296,o),
(556,283,cs)
);
},
{
closed = 1;
nodes = (
(374,202,ls),
(361,202,o),
(354,195,o),
(354,182,cs),
(354,121,ls),
(354,108,o),
(361,101,o),
(374,101,cs),
(435,101,ls),
(448,101,o),
(455,108,o),
(455,121,cs),
(454,182,ls),
(454,195,o),
(447,202,o),
(434,202,cs)
);
}
);
width = 606;
}
);
note = uni0724.medi;
},
{
glyphname = uni0724.init;
lastChange = "2024-07-22 06:34:14 +0000";
layers = (
{
anchors = (
{
name = bottom;
pos = (304,-20);
},
{
name = top;
pos = (304,323);
}
);
hints = (
{
horizontal = 1;
place = (101,101);
type = Stem;
},
{
place = (354,101);
type = Stem;
},
{
place = (152,101);
type = Stem;
}
);
layerId = m01;
shapes = (
{
closed = 1;
nodes = (
(152,202,l),
(152,101,l),
(253,101,l),
(253,202,l)
);
},
{
closed = 1;
nodes = (
(51,303,l),
(556,303,l),
(556,0,l),
(354,0,l),
(354,-101,l),
(253,-101,l),
(253,0,l),
(-50,0,l),
(-50,101,l),
(51,101,l)
);
},
{
closed = 1;
nodes = (
(354,202,l),
(354,101,l),
(455,101,l),
(454,202,l)
);
}
);
width = 556;
},
{
anchors = (
{
name = bottom;
pos = (304,-20);
},
{
name = top;
pos = (304,323);
}
);
hints = (
{
horizontal = 1;
place = (101,101);
type = Stem;
},
{
place = (354,101);
type = Stem;
},
{
place = (152,101);
type = Stem;
}
);
layerId = "9037C244-7DB9-46F9-B5BF-70F624EA3C1F";
shapes = (
{
closed = 1;
nodes = (
(172,202,ls),
(159,202,o),
(152,195,o),
(152,182,cs),
(152,121,ls),
(152,108,o),
(159,101,o),
(172,101,cs),
(233,101,ls),
(246,101,o),
(253,108,o),
(253,121,cs),
(253,182,ls),
(253,195,o),
(246,202,o),
(233,202,cs)
);
},
{
closed = 1;
nodes = (
(51,283,ls),
(51,296,o),
(58,303,o),
(71,303,cs),
(536,303,ls),
(549,303,o),
(556,296,o),
(556,283,cs),
(556,20,ls),
(556,7,o),
(549,0,o),
(536,0,cs),
(374,0,ls),
(361,0,o),
(354,-7,o),
(354,-20,cs),
(354,-81,ls),
(354,-94,o),
(347,-101,o),
(334,-101,cs),
(273,-101,ls),
(260,-101,o),
(253,-94,o),
(253,-81,cs),
(253,-20,ls),
(253,-7,o),
(246,0,o),
(233,0,cs),
(-50,0,l),
(-50,101,l),
(51,101,l)
);
},
{
closed = 1;
nodes = (
(374,202,ls),
(361,202,o),
(354,195,o),
(354,182,cs),
(354,121,ls),
(354,108,o),
(361,101,o),
(374,101,cs),
(435,101,ls),
(448,101,o),
(455,108,o),
(455,121,cs),
(454,182,ls),
(454,195,o),
(447,202,o),
(434,202,cs)
);
}
);
width = 556;
}
);
note = uni0724.init;
},
{
glyphname = uni0725;
lastChange = "2024-07-22 06:07:22 +0000";
layers = (
{
anchors = (
{
name = bottom;
pos = (253,-20);
},
{
name = top;
pos = (253,273);
}
);
hints = (
{
horizontal = 1;
place = (152,101);
type = Stem;
},
{
horizontal = 1;
place = (0,101);
type = Stem;
},
{
place = (253,101);
type = Stem;
},
{
place = (101,101);
type = Stem;
}
);
layerId = m01;
shapes = (
{
closed = 1;
nodes = (
(253,101,l),
(51,101,l),
(51,0,l),
(404,0,l),
(404,101,l),
(354,101,l),
(354,253,l),
(202,253,l),
(202,303,l),
(101,303,l),
(101,152,l),
(253,152,l)
);
}
);
width = 404;
},
{
anchors = (
{
name = bottom;
pos = (253,-20);
},
{
name = top;
pos = (253,273);
}
);
hints = (
{
horizontal = 1;
place = (152,101);
type = Stem;
},
{
horizontal = 1;
place = (0,101);
type = Stem;
},
{
place = (253,101);
type = Stem;
},
{
place = (101,101);
type = Stem;
}
);
layerId = "9037C244-7DB9-46F9-B5BF-70F624EA3C1F";
shapes = (
{
closed = 1;
nodes = (
(253,101,l),
(71,101,ls),
(58,101,o),
(51,94,o),
(51,81,cs),
(51,20,ls),
(51,7,o),
(58,0,o),
(71,0,cs),
(384,0,ls),
(397,0,o),
(404,7,o),
(404,20,cs),
(404,81,ls),
(404,94,o),
(397,101,o),
(384,101,cs),
(354,101,l),
(354,233,ls),
(354,246,o),
(347,253,o),
(334,253,cs),
(202,253,l),
(202,283,ls),
(202,296,o),
(195,303,o),
(182,303,cs),
(121,303,ls),
(108,303,o),
(101,296,o),
(101,283,cs),
(101,172,ls),
(101,159,o),
(108,152,o),
(121,152,cs),
(253,152,l)
);
}
);
width = 404;
}
);
note = uni0725;
unicode = 1829;
},
{
glyphname = uni0725.fina;
lastChange = "2024-07-22 05:49:52 +0000";
layers = (
{
anchors = (
{
name = bottom;
pos = (253,-20);
},
{
name = top;
pos = (253,273);
}
);
hints = (
{
horizontal = 1;
place = (152,101);
type = Stem;
},
{
horizontal = 1;
place = (0,101);
type = Stem;
},
{
place = (253,101);
type = Stem;
},
{
place = (101,101);
type = Stem;
}
);
layerId = m01;
shapes = (
{
closed = 1;
nodes = (
(253,101,l),
(51,101,l),
(51,0,l),
(455,0,l),
(455,101,l),
(354,101,l),
(354,253,l),
(202,253,l),
(202,303,l),
(101,303,l),
(101,152,l),
(253,152,l)
);
}
);
width = 454;
},
{
anchors = (
{
name = bottom;
pos = (253,-20);
},
{
name = top;
pos = (253,273);
}
);
hints = (
{
horizontal = 1;
place = (152,101);
type = Stem;
},
{
horizontal = 1;
place = (0,101);
type = Stem;
},
{
place = (253,101);
type = Stem;
},
{
place = (101,101);
type = Stem;
}
);
layerId = "9037C244-7DB9-46F9-B5BF-70F624EA3C1F";
shapes = (
{
closed = 1;
nodes = (
(253,101,l),
(71,101,ls),
(58,101,o),
(51,94,o),
(51,81,cs),
(51,20,ls),
(51,7,o),
(58,0,o),
(71,0,cs),
(455,0,l),
(455,101,l),
(354,101,l),
(354,233,ls),
(354,246,o),
(347,253,o),
(334,253,cs),
(202,253,l),
(202,283,ls),
(202,296,o),
(195,303,o),
(182,303,cs),
(121,303,ls),
(108,303,o),
(101,296,o),
(101,283,cs),
(101,172,ls),
(101,159,o),
(108,152,o),
(121,152,cs),
(253,152,l)
);
}
);
width = 454;
}
);
note = uni0725.fina;
},
{
glyphname = uni0725.medi;
lastChange = "2024-07-22 05:47:46 +0000";
layers = (
{
anchors = (
{
name = bottom;
pos = (202,-20);
},
{
name = top;
pos = (202,273);
}
);
hints = (
{
horizontal = 1;
place = (152,101);
type = Stem;
},
{
horizontal = 1;
place = (0,101);
type = Stem;
},
{
place = (202,101);
type = Stem;
},
{
place = (51,101);
type = Stem;
}
);
layerId = m01;
shapes = (
{
closed = 1;
nodes = (
(202,101,l),
(-50,101,l),
(-50,0,l),
(404,0,l),
(404,101,l),
(303,101,l),
(303,253,l),
(152,253,l),
(152,303,l),
(51,303,l),
(51,152,l),
(202,152,l)
);
}
);
width = 404;
},
{
anchors = (
{
name = bottom;
pos = (202,-20);
},
{
name = top;
pos = (202,273);
}
);
hints = (
{
horizontal = 1;
place = (152,101);
type = Stem;
},
{
horizontal = 1;
place = (0,101);
type = Stem;
},
{
place = (202,101);
type = Stem;
},
{
place = (51,101);
type = Stem;
}
);
layerId = "9037C244-7DB9-46F9-B5BF-70F624EA3C1F";
shapes = (
{
closed = 1;
nodes = (
(202,101,l),
(-50,101,l),
(-50,0,l),
(405,0,l),
(405,101,l),
(303,101,l),
(303,233,ls),
(303,246,o),
(296,253,o),
(283,253,cs),
(152,253,l),
(152,283,ls),
(152,296,o),
(145,303,o),
(132,303,cs),
(71,303,ls),
(58,303,o),
(51,296,o),
(51,283,cs),
(51,172,ls),
(51,159,o),
(58,152,o),
(71,152,cs),
(202,152,l)
);
}
);
width = 404;
}
);
note = uni0725.medi;
},
{
glyphname = uni0725.init;
lastChange = "2024-07-22 06:07:43 +0000";
layers = (
{
anchors = (
{
name = bottom;
pos = (202,-20);
},
{
name = top;
pos = (202,273);
}
);
hints = (
{
horizontal = 1;
place = (152,101);
type = Stem;
},
{
horizontal = 1;
place = (0,101);
type = Stem;
},
{
place = (202,101);
type = Stem;
},
{
place = (51,101);
type = Stem;
}
);
layerId = m01;
shapes = (
{
closed = 1;
nodes = (
(202,101,l),
(-50,101,l),
(-50,0,l),
(354,0,l),
(354,101,l),
(303,101,l),
(303,253,l),
(152,253,l),
(152,303,l),
(51,303,l),
(51,152,l),
(202,152,l)
);
}
);
width = 354;
},
{
anchors = (
{
name = bottom;
pos = (202,-20);
},
{
name = top;
pos = (202,273);
}
);
hints = (
{
horizontal = 1;
place = (152,101);
type = Stem;
},
{
horizontal = 1;
place = (0,101);
type = Stem;
},
{
place = (202,101);
type = Stem;
},
{
place = (51,101);
type = Stem;
}
);
layerId = "9037C244-7DB9-46F9-B5BF-70F624EA3C1F";
shapes = (
{
closed = 1;
nodes = (
(202,101,l),
(-50,101,l),
(-50,0,l),
(334,0,ls),
(347,0,o),
(354,7,o),
(354,20,cs),
(354,81,ls),
(354,94,o),
(347,101,o),
(334,101,cs),
(303,101,l),
(303,233,ls),
(303,246,o),
(296,253,o),
(283,253,cs),
(152,253,l),
(152,283,ls),
(152,296,o),
(145,303,o),
(132,303,cs),
(71,303,ls),
(58,303,o),
(51,296,o),
(51,283,cs),
(51,172,ls),
(51,159,o),
(58,152,o),
(71,152,cs),
(202,152,l)
);
}
);
width = 354;
}
);
note = uni0725.init;
},
{
glyphname = uni0726;
lastChange = "2024-07-19 06:05:23 +0000";
layers = (
{
anchors = (
{
name = bottom;
pos = (314,-20);
},
{
name = top;
pos = (324,323);
}
);
hints = (
{
horizontal = 1;
place = (223,80);
type = Stem;
},
{
horizontal = 1;
place = (142,40);
type = Stem;
},
{
horizontal = 1;
place = (0,101);
type = Stem;
},
{
place = (415,101);
type = Stem;
},
{
place = (132,81);
type = Stem;
}
);
layerId = m01;
shapes = (
{
closed = 1;
nodes = (
(213,223,l),
(415,223,l),
(415,182,l),
(213,182,l)
);
},
{
closed = 1;
nodes = (
(132,303,l),
(132,142,l),
(415,142,l),
(415,101,l),
(51,101,l),
(51,0,l),
(516,0,l),
(516,303,l)
);
}
);
width = 516;
},
{
anchors = (
{
name = bottom;
pos = (314,-20);
},
{
name = top;
pos = (324,323);
}
);
hints = (
{
horizontal = 1;
place = (223,80);
type = Stem;
},
{
horizontal = 1;
place = (142,40);
type = Stem;
},
{
horizontal = 1;
place = (0,101);
type = Stem;
},
{
place = (415,101);
type = Stem;
},
{
place = (132,81);
type = Stem;
}
);
layerId = "9037C244-7DB9-46F9-B5BF-70F624EA3C1F";
shapes = (
{
closed = 1;
nodes = (
(213,223,l),
(415,223,l),
(415,182,l),
(213,182,l)
);
},
{
closed = 1;
nodes = (
(152,303,ls),
(139,303,o),
(132,296,o),
(132,283,cs),
(132,162,ls),
(132,149,o),
(139,142,o),
(152,142,cs),
(415,142,l),
(415,101,l),
(71,101,ls),
(58,101,o),
(51,94,o),
(51,81,cs),
(51,20,ls),
(51,7,o),
(58,0,o),
(71,0,cs),
(496,0,ls),
(509,0,o),
(516,7,o),
(516,20,cs),
(516,283,ls),
(516,296,o),
(509,303,o),
(496,303,cs)
);
}
);
width = 516;
}
);
note = uni0726;
unicode = 1830;
},
{
glyphname = uni0726.fina;
lastChange = "2024-07-22 05:48:02 +0000";
layers = (
{
anchors = (
{
name = bottom;
pos = (324,-20);
},
{
name = top;
pos = (324,323);
}
);
hints = (
{
horizontal = 1;
place = (223,80);
type = Stem;
},
{
horizontal = 1;
place = (142,40);
type = Stem;
},
{
horizontal = 1;
place = (0,101);
type = Stem;
},
{
place = (415,101);
type = Stem;
},
{
place = (132,81);
type = Stem;
}
);
layerId = m01;
shapes = (
{
closed = 1;
nodes = (
(213,223,l),
(415,223,l),
(415,182,l),
(213,182,l)
);
},
{
closed = 1;
nodes = (
(132,303,l),
(132,142,l),
(415,142,l),
(415,101,l),
(51,101,l),
(51,0,l),
(566,0,l),
(566,101,l),
(516,101,l),
(516,303,l)
);
}
);
width = 566;
},
{
anchors = (
{
name = bottom;
pos = (324,-20);
},
{
name = top;
pos = (324,323);
}
);
hints = (
{
horizontal = 1;
place = (223,80);
type = Stem;
},
{
horizontal = 1;
place = (142,40);
type = Stem;
},
{
horizontal = 1;
place = (0,101);
type = Stem;
},
{
place = (415,101);
type = Stem;
},
{
place = (132,81);
type = Stem;
}
);
layerId = "9037C244-7DB9-46F9-B5BF-70F624EA3C1F";
shapes = (
{
closed = 1;
nodes = (
(213,223,l),
(415,223,l),
(415,182,l),
(213,182,l)
);
},
{
closed = 1;
nodes = (
(152,303,ls),
(139,303,o),
(132,296,o),
(132,283,cs),
(132,162,ls),
(132,149,o),
(139,142,o),
(152,142,cs),
(415,142,l),
(415,101,l),
(71,101,ls),
(58,101,o),
(51,94,o),
(51,81,cs),
(51,20,ls),
(51,7,o),
(58,0,o),
(71,0,cs),
(567,0,l),
(567,101,l),
(516,101,l),
(516,283,ls),
(516,296,o),
(509,303,o),
(496,303,cs)
);
}
);
width = 566;
}
);
note = uni0726.fina;
},
{
glyphname = uni0726.medi;
lastChange = "2024-07-22 05:48:13 +0000";
layers = (
{
anchors = (
{
name = bottom;
pos = (273,-20);
},
{
name = top;
pos = (273,323);
}
);
hints = (
{
horizontal = 1;
place = (223,80);
type = Stem;
},
{
horizontal = 1;
place = (142,40);
type = Stem;
},
{
horizontal = 1;
place = (0,101);
type = Stem;
},
{
place = (364,101);
type = Stem;
},
{
place = (81,81);
type = Stem;
}
);
layerId = m01;
shapes = (
{
closed = 1;
nodes = (
(162,223,l),
(365,223,l),
(364,182,l),
(162,182,l)
);
},
{
closed = 1;
nodes = (
(81,303,l),
(81,142,l),
(364,142,l),
(364,101,l),
(-50,101,l),
(-50,0,l),
(516,0,l),
(516,101,l),
(465,101,l),
(465,303,l)
);
}
);
width = 515;
},
{
anchors = (
{
name = bottom;
pos = (273,-20);
},
{
name = top;
pos = (273,323);
}
);
hints = (
{
horizontal = 1;
place = (223,80);
type = Stem;
},
{
horizontal = 1;
place = (142,40);
type = Stem;
},
{
horizontal = 1;
place = (0,101);
type = Stem;
},
{
place = (364,101);
type = Stem;
},
{
place = (81,81);
type = Stem;
}
);
layerId = "9037C244-7DB9-46F9-B5BF-70F624EA3C1F";
shapes = (
{
closed = 1;
nodes = (
(162,223,l),
(365,223,l),
(364,182,l),
(162,182,l)
);
},
{
closed = 1;
nodes = (
(101,303,ls),
(88,303,o),
(81,296,o),
(81,283,cs),
(81,162,ls),
(81,149,o),
(88,142,o),
(101,142,cs),
(364,142,l),
(364,101,l),
(-30,101,ls),
(-43,101,o),
(-50,94,o),
(-50,81,cs),
(-50,20,ls),
(-50,7,o),
(-43,0,o),
(-30,0,cs),
(516,0,l),
(516,101,l),
(465,101,l),
(465,283,ls),
(465,296,o),
(458,303,o),
(445,303,cs)
);
}
);
width = 515;
}
);
note = uni0726.medi;
},
{
glyphname = uni0726.init;
lastChange = "2024-07-19 06:05:23 +0000";
layers = (
{
anchors = (
{
name = bottom;
pos = (273,-20);
},
{
name = top;
pos = (273,323);
}
);
hints = (
{
horizontal = 1;
place = (223,80);
type = Stem;
},
{
horizontal = 1;
place = (142,40);
type = Stem;
},
{
horizontal = 1;
place = (0,101);
type = Stem;
},
{
place = (364,101);
type = Stem;
},
{
place = (81,81);
type = Stem;
}
);
layerId = m01;
shapes = (
{
closed = 1;
nodes = (
(162,223,l),
(365,223,l),
(364,182,l),
(162,182,l)
);
},
{
closed = 1;
nodes = (
(81,303,l),
(81,142,l),
(364,142,l),
(364,101,l),
(-50,101,l),
(-50,0,l),
(465,0,l),
(465,303,l)
);
}
);
width = 465;
},
{
anchors = (
{
name = bottom;
pos = (273,-20);
},
{
name = top;
pos = (273,323);
}
);
hints = (
{
horizontal = 1;
place = (223,80);
type = Stem;
},
{
horizontal = 1;
place = (142,40);
type = Stem;
},
{
horizontal = 1;
place = (0,101);
type = Stem;
},
{
place = (364,101);
type = Stem;
},
{
place = (81,81);
type = Stem;
}
);
layerId = "9037C244-7DB9-46F9-B5BF-70F624EA3C1F";
shapes = (
{
closed = 1;
nodes = (
(162,223,l),
(365,223,l),
(364,182,l),
(162,182,l)
);
},
{
closed = 1;
nodes = (
(101,303,ls),
(88,303,o),
(81,296,o),
(81,283,cs),
(81,162,ls),
(81,149,o),
(88,142,o),
(101,142,cs),
(364,142,l),
(364,101,l),
(-30,101,ls),
(-43,101,o),
(-50,94,o),
(-50,81,cs),
(-50,20,ls),
(-50,7,o),
(-43,0,o),
(-30,0,cs),
(445,0,ls),
(458,0,o),
(465,7,o),
(465,20,cs),
(465,283,ls),
(465,296,o),
(458,303,o),
(445,303,cs)
);
}
);
width = 465;
}
);
note = uni0726.init;
},
{
glyphname = uni0727;
lastChange = "2024-07-19 06:05:23 +0000";
layers = (
{
anchors = (
{
name = bottom;
pos = (243,-20);
},
{
name = top;
pos = (243,323);
}
);
hints = (
{
horizontal = 1;
place = (223,80);
type = Stem;
},
{
horizontal = 1;
place = (142,40);
type = Stem;
},
{
horizontal = 1;
place = (0,101);
type = Stem;
},
{
place = (354,81);
type = Stem;
},
{
place = (51,101);
type = Stem;
}
);
layerId = m01;
shapes = (
{
closed = 1;
nodes = (
(354,223,l),
(354,182,l),
(152,182,l),
(151,223,l)
);
},
{
closed = 1;
nodes = (
(516,101,l),
(152,101,l),
(152,142,l),
(435,142,l),
(435,303,l),
(51,303,l),
(51,0,l),
(516,0,l)
);
}
);
width = 516;
},
{
anchors = (
{
name = bottom;
pos = (243,-20);
},
{
name = top;
pos = (243,323);
}
);
hints = (
{
horizontal = 1;
place = (223,80);
type = Stem;
},
{
horizontal = 1;
place = (142,40);
type = Stem;
},
{
horizontal = 1;
place = (0,101);
type = Stem;
},
{
place = (354,81);
type = Stem;
},
{
place = (51,101);
type = Stem;
}
);
layerId = "9037C244-7DB9-46F9-B5BF-70F624EA3C1F";
shapes = (
{
closed = 1;
nodes = (
(354,223,l),
(354,182,l),
(152,182,l),
(151,223,l)
);
},
{
closed = 1;
nodes = (
(516,81,ls),
(516,94,o),
(509,101,o),
(496,101,cs),
(152,101,l),
(152,142,l),
(415,142,ls),
(428,142,o),
(435,149,o),
(435,162,cs),
(435,283,ls),
(435,296,o),
(428,303,o),
(415,303,cs),
(71,303,ls),
(58,303,o),
(51,296,o),
(51,283,cs),
(51,20,ls),
(51,7,o),
(58,0,o),
(71,0,cs),
(496,0,ls),
(509,0,o),
(516,7,o),
(516,20,cs)
);
}
);
width = 516;
}
);
note = uni0727;
unicode = 1831;
},
{
glyphname = uni0727.fina;
lastChange = "2024-07-22 05:48:26 +0000";
layers = (
{
anchors = (
{
name = bottom;
pos = (243,-20);
},
{
name = top;
pos = (243,323);
}
);
hints = (
{
horizontal = 1;
place = (223,80);
type = Stem;
},
{
horizontal = 1;
place = (142,40);
type = Stem;
},
{
horizontal = 1;
place = (0,101);
type = Stem;
},
{
place = (354,81);
type = Stem;
},
{
place = (51,101);
type = Stem;
}
);
layerId = m01;
shapes = (
{
closed = 1;
nodes = (
(354,223,l),
(354,182,l),
(152,182,l),
(151,223,l)
);
},
{
closed = 1;
nodes = (
(566,101,l),
(152,101,l),
(152,142,l),
(435,142,l),
(435,303,l),
(51,303,l),
(51,0,l),
(566,0,l)
);
}
);
width = 566;
},
{
anchors = (
{
name = bottom;
pos = (243,-20);
},
{
name = top;
pos = (243,323);
}
);
hints = (
{
horizontal = 1;
place = (223,80);
type = Stem;
},
{
horizontal = 1;
place = (142,40);
type = Stem;
},
{
horizontal = 1;
place = (0,101);
type = Stem;
},
{
place = (354,81);
type = Stem;
},
{
place = (51,101);
type = Stem;
}
);
layerId = "9037C244-7DB9-46F9-B5BF-70F624EA3C1F";
shapes = (
{
closed = 1;
nodes = (
(354,223,l),
(354,182,l),
(152,182,l),
(151,223,l)
);
},
{
closed = 1;
nodes = (
(567,101,l),
(152,101,l),
(152,142,l),
(415,142,ls),
(428,142,o),
(435,149,o),
(435,162,cs),
(435,283,ls),
(435,296,o),
(428,303,o),
(415,303,cs),
(71,303,ls),
(58,303,o),
(51,296,o),
(51,283,cs),
(51,20,ls),
(51,7,o),
(58,0,o),
(71,0,cs),
(567,0,l)
);
}
);
width = 566;
}
);
note = uni0727.fina;
},
{
glyphname = uni0727.medi;
lastChange = "2024-07-22 05:48:52 +0000";
layers = (
{
anchors = (
{
name = bottom;
pos = (192,-20);
},
{
name = top;
pos = (192,323);
}
);
hints = (
{
horizontal = 1;
place = (223,80);
type = Stem;
},
{
horizontal = 1;
place = (142,40);
type = Stem;
},
{
horizontal = 1;
place = (0,101);
type = Stem;
},
{
place = (303,81);
type = Stem;
},
{
place = (0,101);
type = Stem;
}
);
layerId = m01;
shapes = (
{
closed = 1;
nodes = (
(303,223,l),
(303,182,l),
(101,182,l),
(101,223,l)
);
},
{
closed = 1;
nodes = (
(516,101,l),
(101,101,l),
(101,142,l),
(384,142,l),
(384,303,l),
(0,303,l),
(0,101,l),
(-50,101,l),
(-50,0,l),
(516,0,l)
);
}
);
width = 515;
},
{
anchors = (
{
name = bottom;
pos = (192,-20);
},
{
name = top;
pos = (192,323);
}
);
hints = (
{
horizontal = 1;
place = (223,80);
type = Stem;
},
{
horizontal = 1;
place = (142,40);
type = Stem;
},
{
horizontal = 1;
place = (0,101);
type = Stem;
},
{
place = (303,81);
type = Stem;
},
{
place = (0,101);
type = Stem;
}
);
layerId = "9037C244-7DB9-46F9-B5BF-70F624EA3C1F";
shapes = (
{
closed = 1;
nodes = (
(303,223,l),
(303,182,l),
(101,182,l),
(101,223,l)
);
},
{
closed = 1;
nodes = (
(516,101,l),
(101,101,l),
(101,142,l),
(364,142,ls),
(377,142,o),
(384,149,o),
(384,162,cs),
(384,283,ls),
(384,296,o),
(377,303,o),
(364,303,cs),
(20,303,ls),
(7,303,o),
(0,296,o),
(0,283,cs),
(0,101,l),
(-50,101,l),
(-50,0,l),
(516,0,l)
);
}
);
width = 515;
}
);
note = uni0727.medi;
},
{
glyphname = uni0727.init;
lastChange = "2024-07-22 05:49:23 +0000";
layers = (
{
anchors = (
{
name = bottom;
pos = (192,-20);
},
{
name = top;
pos = (192,323);
}
);
hints = (
{
horizontal = 1;
place = (223,80);
type = Stem;
},
{
horizontal = 1;
place = (142,40);
type = Stem;
},
{
horizontal = 1;
place = (0,101);
type = Stem;
},
{
place = (303,81);
type = Stem;
},
{
place = (0,101);
type = Stem;
}
);
layerId = m01;
shapes = (
{
closed = 1;
nodes = (
(303,223,l),
(303,182,l),
(101,182,l),
(101,223,l)
);
},
{
closed = 1;
nodes = (
(465,101,l),
(101,101,l),
(101,142,l),
(384,142,l),
(384,303,l),
(0,303,l),
(0,101,l),
(-50,101,l),
(-50,0,l),
(465,0,l)
);
}
);
width = 465;
},
{
anchors = (
{
name = bottom;
pos = (192,-20);
},
{
name = top;
pos = (192,323);
}
);
hints = (
{
horizontal = 1;
place = (223,80);
type = Stem;
},
{
horizontal = 1;
place = (142,40);
type = Stem;
},
{
horizontal = 1;
place = (0,101);
type = Stem;
},
{
place = (303,81);
type = Stem;
},
{
place = (0,101);
type = Stem;
}
);
layerId = "9037C244-7DB9-46F9-B5BF-70F624EA3C1F";
shapes = (
{
closed = 1;
nodes = (
(303,223,l),
(303,182,l),
(101,182,l),
(101,223,l)
);
},
{
closed = 1;
nodes = (
(465,81,ls),
(465,94,o),
(458,101,o),
(445,101,cs),
(101,101,l),
(101,142,l),
(364,142,ls),
(377,142,o),
(384,149,o),
(384,162,cs),
(384,283,ls),
(384,296,o),
(377,303,o),
(364,303,cs),
(20,303,ls),
(7,303,o),
(0,296,o),
(0,283,cs),
(0,101,l),
(-50,101,l),
(-50,0,l),
(445,0,ls),
(458,0,o),
(465,7,o),
(465,20,cs)
);
}
);
width = 465;
}
);
note = uni0727.init;
},
{
glyphname = uni0728;
lastChange = "2024-08-01 03:14:49 +0000";
layers = (
{
anchors = (
{
name = bottom;
pos = (253,-324);
},
{
name = top;
pos = (253,121);
}
);
hints = (
{
horizontal = 1;
place = (0,101);
type = Stem;
},
{
horizontal = 1;
place = (-303,101);
type = Stem;
},
{
place = (152,202);
type = Stem;
},
{
place = (51,202);
type = Stem;
}
);
layerId = m01;
shapes = (
{
closed = 1;
nodes = (
(152,-202,l),
(51,-202,l),
(51,-303,l),
(253,-304,l),
(253,0,l),
(354,0,l),
(354,101,l),
(152,101,l)
);
}
);
width = 354;
},
{
anchors = (
{
name = bottom;
pos = (253,-324);
},
{
name = top;
pos = (253,121);
}
);
hints = (
{
horizontal = 1;
place = (0,101);
type = Stem;
},
{
horizontal = 1;
place = (-303,101);
type = Stem;
},
{
place = (152,202);
type = Stem;
},
{
place = (51,202);
type = Stem;
}
);
layerId = "9037C244-7DB9-46F9-B5BF-70F624EA3C1F";
shapes = (
{
closed = 1;
nodes = (
(152,-182,ls),
(152,-195,o),
(145,-202,o),
(132,-202,cs),
(71,-202,ls),
(58,-202,o),
(51,-209,o),
(51,-222,cs),
(51,-283,ls),
(51,-296,o),
(58,-303,o),
(71,-303,cs),
(233,-304,ls),
(246,-304,o),
(253,-297,o),
(253,-284,cs),
(253,0,l),
(335,0,ls),
(348,0,o),
(355,7,o),
(355,20,cs),
(355,81,ls),
(355,94,o),
(348,101,o),
(335,101,cs),
(172,101,ls),
(159,101,o),
(152,94,o),
(152,81,cs)
);
}
);
width = 354;
}
);
note = uni0728;
unicode = 1832;
},
{
glyphname = uni0728.fina;
lastChange = "2024-07-22 06:40:32 +0000";
layers = (
{
anchors = (
{
name = bottom;
pos = (253,-324);
},
{
name = top;
pos = (253,121);
}
);
hints = (
{
horizontal = 1;
place = (0,101);
type = Stem;
},
{
horizontal = 1;
place = (-303,101);
type = Stem;
},
{
place = (152,101);
type = Stem;
},
{
place = (51,202);
type = Stem;
}
);
layerId = m01;
shapes = (
{
closed = 1;
nodes = (
(152,-202,l),
(51,-202,l),
(51,-303,l),
(253,-304,l),
(253,0,l),
(404,0,l),
(404,101,l),
(152,101,l)
);
}
);
width = 404;
},
{
anchors = (
{
name = bottom;
pos = (253,-324);
},
{
name = top;
pos = (253,121);
}
);
hints = (
{
horizontal = 1;
place = (0,101);
type = Stem;
},
{
horizontal = 1;
place = (-303,101);
type = Stem;
},
{
place = (152,101);
type = Stem;
},
{
place = (51,202);
type = Stem;
}
);
layerId = "9037C244-7DB9-46F9-B5BF-70F624EA3C1F";
shapes = (
{
closed = 1;
nodes = (
(152,-182,ls),
(152,-195,o),
(145,-202,o),
(132,-202,cs),
(71,-202,ls),
(58,-202,o),
(51,-209,o),
(51,-222,cs),
(51,-283,ls),
(51,-296,o),
(58,-303,o),
(71,-303,cs),
(233,-304,ls),
(246,-304,o),
(253,-297,o),
(253,-284,cs),
(253,0,l),
(405,0,l),
(405,101,l),
(172,101,ls),
(159,101,o),
(152,94,o),
(152,81,cs)
);
}
);
width = 404;
}
);
note = uni0728.fina;
},
{
glyphname = uni0729;
lastChange = "2024-07-21 17:45:15 +0000";
layers = (
{
anchors = (
{
name = bottom;
pos = (304,-20);
},
{
name = top;
pos = (304,323);
}
);
hints = (
{
horizontal = 1;
place = (202,101);
type = Stem;
},
{
horizontal = 1;
place = (0,101);
type = Stem;
},
{
place = (354,101);
type = Stem;
},
{
place = (152,101);
type = Stem;
}
);
layerId = m01;
shapes = (
{
closed = 1;
nodes = (
(152,101,l),
(51,101,l),
(51,0,l),
(455,0,l),
(455,303,l),
(152,303,l)
);
},
{
closed = 1;
nodes = (
(354,202,l),
(354,101,l),
(253,101,l),
(253,202,l)
);
}
);
width = 455;
},
{
anchors = (
{
name = bottom;
pos = (304,-20);
},
{
name = top;
pos = (304,323);
}
);
hints = (
{
horizontal = 1;
place = (202,101);
type = Stem;
},
{
horizontal = 1;
place = (0,101);
type = Stem;
},
{
place = (354,101);
type = Stem;
},
{
place = (152,101);
type = Stem;
}
);
layerId = "9037C244-7DB9-46F9-B5BF-70F624EA3C1F";
shapes = (
{
closed = 1;
nodes = (
(152,101,l),
(71,101,ls),
(58,101,o),
(51,94,o),
(51,81,cs),
(51,20,ls),
(51,7,o),
(58,0,o),
(71,0,cs),
(435,0,ls),
(448,0,o),
(455,7,o),
(455,20,cs),
(455,283,ls),
(455,296,o),
(448,303,o),
(435,303,cs),
(172,303,ls),
(159,303,o),
(152,296,o),
(152,283,cs)
);
},
{
closed = 1;
nodes = (
(334,202,ls),
(347,202,o),
(354,195,o),
(354,182,cs),
(354,121,ls),
(354,108,o),
(347,101,o),
(334,101,cs),
(273,101,ls),
(260,101,o),
(253,108,o),
(253,121,cs),
(253,182,ls),
(253,195,o),
(260,202,o),
(273,202,cs)
);
}
);
width = 455;
}
);
note = uni0729;
unicode = 1833;
},
{
glyphname = uni0729.fina;
lastChange = "2024-07-22 05:45:55 +0000";
layers = (
{
anchors = (
{
name = bottom;
pos = (304,-20);
},
{
name = top;
pos = (304,323);
}
);
hints = (
{
horizontal = 1;
place = (202,101);
type = Stem;
},
{
horizontal = 1;
place = (0,101);
type = Stem;
},
{
place = (354,101);
type = Stem;
},
{
place = (152,101);
type = Stem;
}
);
layerId = m01;
shapes = (
{
closed = 1;
nodes = (
(152,101,l),
(51,101,l),
(51,0,l),
(505,0,l),
(505,101,l),
(455,101,l),
(455,303,l),
(152,303,l)
);
},
{
closed = 1;
nodes = (
(354,202,l),
(354,101,l),
(253,101,l),
(253,202,l)
);
}
);
width = 505;
},
{
anchors = (
{
name = bottom;
pos = (304,-20);
},
{
name = top;
pos = (304,323);
}
);
hints = (
{
horizontal = 1;
place = (202,101);
type = Stem;
},
{
horizontal = 1;
place = (0,101);
type = Stem;
},
{
place = (354,101);
type = Stem;
},
{
place = (152,101);
type = Stem;
}
);
layerId = "9037C244-7DB9-46F9-B5BF-70F624EA3C1F";
shapes = (
{
closed = 1;
nodes = (
(152,101,l),
(71,101,ls),
(58,101,o),
(51,94,o),
(51,81,cs),
(51,20,ls),
(51,7,o),
(58,0,o),
(71,0,cs),
(506,0,l),
(506,101,l),
(455,101,l),
(455,283,ls),
(455,296,o),
(448,303,o),
(435,303,cs),
(172,303,ls),
(159,303,o),
(152,296,o),
(152,283,cs)
);
},
{
closed = 1;
nodes = (
(334,202,ls),
(347,202,o),
(354,195,o),
(354,182,cs),
(354,121,ls),
(354,108,o),
(347,101,o),
(334,101,cs),
(273,101,ls),
(260,101,o),
(253,108,o),
(253,121,cs),
(253,182,ls),
(253,195,o),
(260,202,o),
(273,202,cs)
);
}
);
width = 505;
}
);
note = uni0729.fina;
},
{
glyphname = uni0729.medi;
lastChange = "2024-07-22 05:46:27 +0000";
layers = (
{
anchors = (
{
name = bottom;
pos = (253,-20);
},
{
name = top;
pos = (253,323);
}
);
hints = (
{
horizontal = 1;
place = (202,101);
type = Stem;
},
{
horizontal = 1;
place = (0,101);
type = Stem;
},
{
place = (303,101);
type = Stem;
},
{
place = (101,101);
type = Stem;
}
);
layerId = m01;
shapes = (
{
closed = 1;
nodes = (
(101,101,l),
(-50,101,l),
(-50,0,l),
(455,0,l),
(455,101,l),
(404,101,l),
(404,303,l),
(101,303,l)
);
},
{
closed = 1;
nodes = (
(303,202,l),
(303,101,l),
(202,101,l),
(202,202,l)
);
}
);
width = 454;
},
{
anchors = (
{
name = bottom;
pos = (253,-20);
},
{
name = top;
pos = (253,323);
}
);
hints = (
{
horizontal = 1;
place = (202,101);
type = Stem;
},
{
horizontal = 1;
place = (0,101);
type = Stem;
},
{
place = (303,101);
type = Stem;
},
{
place = (101,101);
type = Stem;
}
);
layerId = "9037C244-7DB9-46F9-B5BF-70F624EA3C1F";
shapes = (
{
closed = 1;
nodes = (
(101,101,l),
(-50,101,l),
(-50,0,l),
(455,0,l),
(455,101,l),
(404,101,l),
(404,283,ls),
(404,296,o),
(397,303,o),
(384,303,cs),
(121,303,ls),
(108,303,o),
(101,296,o),
(101,283,cs)
);
},
{
closed = 1;
nodes = (
(283,202,ls),
(296,202,o),
(303,195,o),
(303,182,cs),
(303,121,ls),
(303,108,o),
(296,101,o),
(283,101,cs),
(222,101,ls),
(209,101,o),
(202,108,o),
(202,121,cs),
(202,182,ls),
(202,195,o),
(209,202,o),
(222,202,cs)
);
}
);
width = 454;
}
);
note = uni0729.medi;
},
{
glyphname = uni0729.init;
lastChange = "2024-07-22 05:46:40 +0000";
layers = (
{
anchors = (
{
name = bottom;
pos = (253,-20);
},
{
name = top;
pos = (253,323);
}
);
hints = (
{
horizontal = 1;
place = (202,101);
type = Stem;
},
{
horizontal = 1;
place = (0,101);
type = Stem;
},
{
place = (303,101);
type = Stem;
},
{
place = (101,101);
type = Stem;
}
);
layerId = m01;
shapes = (
{
closed = 1;
nodes = (
(101,101,l),
(-50,101,l),
(-50,0,l),
(404,0,l),
(404,303,l),
(101,303,l)
);
},
{
closed = 1;
nodes = (
(303,202,l),
(303,101,l),
(202,101,l),
(202,202,l)
);
}
);
width = 404;
},
{
anchors = (
{
name = bottom;
pos = (253,-20);
},
{
name = top;
pos = (253,323);
}
);
hints = (
{
horizontal = 1;
place = (202,101);
type = Stem;
},
{
horizontal = 1;
place = (0,101);
type = Stem;
},
{
place = (303,101);
type = Stem;
},
{
place = (101,101);
type = Stem;
}
);
layerId = "9037C244-7DB9-46F9-B5BF-70F624EA3C1F";
shapes = (
{
closed = 1;
nodes = (
(101,101,l),
(-50,101,l),
(-50,0,l),
(384,0,ls),
(397,0,o),
(404,7,o),
(404,20,cs),
(404,283,ls),
(404,296,o),
(397,303,o),
(384,303,cs),
(121,303,ls),
(108,303,o),
(101,296,o),
(101,283,cs)
);
},
{
closed = 1;
nodes = (
(283,202,ls),
(296,202,o),
(303,195,o),
(303,182,cs),
(303,121,ls),
(303,108,o),
(296,101,o),
(283,101,cs),
(222,101,ls),
(209,101,o),
(202,108,o),
(202,121,cs),
(202,182,ls),
(202,195,o),
(209,202,o),
(222,202,cs)
);
}
);
width = 404;
}
);
note = uni0729.init;
},
{
glyphname = uni072A;
lastChange = "2024-07-19 06:05:23 +0000";
layers = (
{
anchors = (
{
name = bottom;
pos = (203,-20);
},
{
name = top;
pos = (203,475);
}
);
hints = (
{
horizontal = 1;
place = (354,101);
type = Stem;
},
{
horizontal = 1;
place = (202,101);
type = Stem;
},
{
horizontal = 1;
place = (0,21);
target = up;
type = BottomGhost;
},
{
place = (253,101);
type = Stem;
},
{
place = (152,101);
type = Stem;
}
);
layerId = m01;
shapes = (
{
closed = 1;
nodes = (
(253,455,l),
(152,455,l),
(152,354,l),
(253,354,l)
);
},
{
closed = 1;
nodes = (
(51,202,l),
(253,202,l),
(253,0,l),
(354,0,l),
(354,303,l),
(51,303,l)
);
}
);
width = 354;
},
{
anchors = (
{
name = bottom;
pos = (203,-20);
},
{
name = top;
pos = (203,475);
}
);
hints = (
{
horizontal = 1;
place = (354,101);
type = Stem;
},
{
horizontal = 1;
place = (202,101);
type = Stem;
},
{
horizontal = 1;
place = (0,21);
target = up;
type = BottomGhost;
},
{
place = (253,101);
type = Stem;
},
{
place = (152,101);
type = Stem;
}
);
layerId = "9037C244-7DB9-46F9-B5BF-70F624EA3C1F";
shapes = (
{
closed = 1;
nodes = (
(253,435,ls),
(253,448,o),
(246,455,o),
(233,455,cs),
(172,455,ls),
(159,455,o),
(152,448,o),
(152,435,cs),
(152,374,ls),
(152,361,o),
(159,354,o),
(172,354,cs),
(233,354,ls),
(246,354,o),
(253,361,o),
(253,374,cs)
);
},
{
closed = 1;
nodes = (
(51,222,ls),
(51,209,o),
(58,202,o),
(71,202,cs),
(253,202,l),
(253,20,ls),
(253,7,o),
(260,0,o),
(273,0,cs),
(334,0,ls),
(347,0,o),
(354,7,o),
(354,20,cs),
(354,283,ls),
(354,296,o),
(347,303,o),
(334,303,cs),
(71,303,ls),
(58,303,o),
(51,296,o),
(51,283,cs)
);
}
);
width = 354;
}
);
note = uni072A;
unicode = 1834;
},
{
glyphname = uni072A.fina;
lastChange = "2024-07-22 05:42:46 +0000";
layers = (
{
anchors = (
{
name = bottom;
pos = (203,-20);
},
{
name = top;
pos = (203,475);
}
);
hints = (
{
horizontal = 1;
place = (354,101);
type = Stem;
},
{
horizontal = 1;
place = (202,101);
type = Stem;
},
{
horizontal = 1;
place = (0,101);
type = Stem;
},
{
place = (253,101);
type = Stem;
},
{
place = (152,101);
type = Stem;
}
);
layerId = m01;
shapes = (
{
closed = 1;
nodes = (
(253,455,l),
(152,455,l),
(152,354,l),
(253,354,l)
);
},
{
closed = 1;
nodes = (
(51,202,l),
(253,202,l),
(253,0,l),
(404,0,l),
(404,101,l),
(354,101,l),
(354,303,l),
(51,303,l)
);
}
);
width = 404;
},
{
anchors = (
{
name = bottom;
pos = (203,-20);
},
{
name = top;
pos = (203,475);
}
);
hints = (
{
horizontal = 1;
place = (354,101);
type = Stem;
},
{
horizontal = 1;
place = (202,101);
type = Stem;
},
{
horizontal = 1;
place = (0,101);
type = Stem;
},
{
place = (253,101);
type = Stem;
},
{
place = (152,101);
type = Stem;
}
);
layerId = "9037C244-7DB9-46F9-B5BF-70F624EA3C1F";
shapes = (
{
closed = 1;
nodes = (
(253,435,ls),
(253,448,o),
(246,455,o),
(233,455,cs),
(172,455,ls),
(159,455,o),
(152,448,o),
(152,435,cs),
(152,374,ls),
(152,361,o),
(159,354,o),
(172,354,cs),
(233,354,ls),
(246,354,o),
(253,361,o),
(253,374,cs)
);
},
{
closed = 1;
nodes = (
(51,222,ls),
(51,209,o),
(58,202,o),
(71,202,cs),
(253,202,l),
(253,20,ls),
(253,7,o),
(260,0,o),
(273,0,cs),
(405,0,l),
(405,101,l),
(354,101,l),
(354,283,ls),
(354,296,o),
(347,303,o),
(334,303,cs),
(71,303,ls),
(58,303,o),
(51,296,o),
(51,283,cs)
);
}
);
width = 404;
}
);
note = uni072A.fina;
},
{
glyphname = uni072B;
lastChange = "2024-07-19 06:05:23 +0000";
layers = (
{
anchors = (
{
name = bottom;
pos = (304,-20);
},
{
name = top;
pos = (304,323);
}
);
hints = (
{
horizontal = 1;
place = (202,101);
type = Stem;
},
{
horizontal = 1;
place = (0,101);
type = Stem;
},
{
place = (253,101);
type = Stem;
}
);
layerId = m01;
shapes = (
{
closed = 1;
nodes = (
(253,101,l),
(51,101,l),
(51,0,l),
(543,0,l),
(543,101,l),
(354,101,l),
(354,202,l),
(455,202,l),
(455,303,l),
(152,303,l),
(152,202,l),
(253,202,l)
);
}
);
width = 543;
},
{
anchors = (
{
name = bottom;
pos = (304,-20);
},
{
name = top;
pos = (304,323);
}
);
hints = (
{
horizontal = 1;
place = (202,101);
type = Stem;
},
{
horizontal = 1;
place = (0,101);
type = Stem;
},
{
place = (253,101);
type = Stem;
}
);
layerId = "9037C244-7DB9-46F9-B5BF-70F624EA3C1F";
shapes = (
{
closed = 1;
nodes = (
(253,101,l),
(71,101,ls),
(58,101,o),
(51,94,o),
(51,81,cs),
(51,20,ls),
(51,7,o),
(58,0,o),
(71,0,cs),
(523,0,ls),
(536,0,o),
(543,7,o),
(543,20,cs),
(543,81,ls),
(543,94,o),
(536,101,o),
(523,101,cs),
(354,101,l),
(354,202,l),
(435,202,ls),
(448,202,o),
(455,209,o),
(455,222,cs),
(455,283,ls),
(455,296,o),
(448,303,o),
(435,303,cs),
(172,303,ls),
(159,303,o),
(152,296,o),
(152,283,cs),
(152,222,ls),
(152,209,o),
(159,202,o),
(172,202,cs),
(253,202,l)
);
}
);
width = 543;
}
);
note = uni072B;
unicode = 1835;
},
{
glyphname = uni072B.fina;
lastChange = "2024-07-22 05:44:27 +0000";
layers = (
{
anchors = (
{
name = bottom;
pos = (304,-20);
},
{
name = top;
pos = (304,323);
}
);
hints = (
{
horizontal = 1;
place = (202,101);
type = Stem;
},
{
horizontal = 1;
place = (0,101);
type = Stem;
},
{
place = (253,101);
type = Stem;
}
);
layerId = m01;
shapes = (
{
closed = 1;
nodes = (
(253,101,l),
(51,101,l),
(51,0,l),
(594,0,l),
(594,101,l),
(354,101,l),
(354,202,l),
(455,202,l),
(455,303,l),
(152,303,l),
(152,202,l),
(253,202,l)
);
}
);
width = 593;
},
{
anchors = (
{
name = bottom;
pos = (304,-20);
},
{
name = top;
pos = (304,323);
}
);
hints = (
{
horizontal = 1;
place = (202,101);
type = Stem;
},
{
horizontal = 1;
place = (0,101);
type = Stem;
},
{
place = (253,101);
type = Stem;
}
);
layerId = "9037C244-7DB9-46F9-B5BF-70F624EA3C1F";
shapes = (
{
closed = 1;
nodes = (
(253,101,l),
(71,101,ls),
(58,101,o),
(51,94,o),
(51,81,cs),
(51,20,ls),
(51,7,o),
(58,0,o),
(71,0,cs),
(594,0,l),
(594,101,l),
(354,101,l),
(354,202,l),
(435,202,ls),
(448,202,o),
(455,209,o),
(455,222,cs),
(455,283,ls),
(455,296,o),
(448,303,o),
(435,303,cs),
(172,303,ls),
(159,303,o),
(152,296,o),
(152,283,cs),
(152,222,ls),
(152,209,o),
(159,202,o),
(172,202,cs),
(253,202,l)
);
}
);
width = 593;
}
);
note = uni072B.fina;
},
{
glyphname = uni072B.medi;
lastChange = "2024-07-22 05:44:47 +0000";
layers = (
{
anchors = (
{
name = bottom;
pos = (253,-20);
},
{
name = top;
pos = (253,323);
}
);
hints = (
{
horizontal = 1;
place = (202,101);
type = Stem;
},
{
horizontal = 1;
place = (0,101);
type = Stem;
},
{
place = (202,101);
type = Stem;
}
);
layerId = m01;
shapes = (
{
closed = 1;
nodes = (
(202,101,l),
(-50,101,l),
(-50,0,l),
(543,0,l),
(543,101,l),
(303,101,l),
(303,202,l),
(404,202,l),
(404,303,l),
(101,303,l),
(101,202,l),
(202,202,l)
);
}
);
width = 543;
},
{
anchors = (
{
name = bottom;
pos = (253,-20);
},
{
name = top;
pos = (253,323);
}
);
hints = (
{
horizontal = 1;
place = (202,101);
type = Stem;
},
{
horizontal = 1;
place = (0,101);
type = Stem;
},
{
place = (202,101);
type = Stem;
}
);
layerId = "9037C244-7DB9-46F9-B5BF-70F624EA3C1F";
shapes = (
{
closed = 1;
nodes = (
(202,101,l),
(-50,101,l),
(-50,0,l),
(544,0,l),
(544,101,l),
(303,101,l),
(303,202,l),
(384,202,ls),
(397,202,o),
(404,209,o),
(404,222,cs),
(404,283,ls),
(404,296,o),
(397,303,o),
(384,303,cs),
(121,303,ls),
(108,303,o),
(101,296,o),
(101,283,cs),
(101,222,ls),
(101,209,o),
(108,202,o),
(121,202,cs),
(202,202,l)
);
}
);
width = 543;
}
);
note = uni072B.medi;
},
{
glyphname = uni072B.init;
lastChange = "2024-07-19 06:05:23 +0000";
layers = (
{
anchors = (
{
name = bottom;
pos = (253,-20);
},
{
name = top;
pos = (253,323);
}
);
hints = (
{
horizontal = 1;
place = (202,101);
type = Stem;
},
{
horizontal = 1;
place = (0,101);
type = Stem;
},
{
place = (202,101);
type = Stem;
}
);
layerId = m01;
shapes = (
{
closed = 1;
nodes = (
(202,101,l),
(-50,101,l),
(-50,0,l),
(493,0,l),
(493,101,l),
(303,101,l),
(303,202,l),
(404,202,l),
(404,303,l),
(101,303,l),
(101,202,l),
(202,202,l)
);
}
);
width = 492;
},
{
anchors = (
{
name = bottom;
pos = (253,-20);
},
{
name = top;
pos = (253,323);
}
);
hints = (
{
horizontal = 1;
place = (202,101);
type = Stem;
},
{
horizontal = 1;
place = (0,101);
type = Stem;
},
{
place = (202,101);
type = Stem;
}
);
layerId = "9037C244-7DB9-46F9-B5BF-70F624EA3C1F";
shapes = (
{
closed = 1;
nodes = (
(202,101,l),
(-30,101,ls),
(-43,101,o),
(-50,94,o),
(-50,81,cs),
(-50,20,ls),
(-50,7,o),
(-43,0,o),
(-30,0,cs),
(473,0,ls),
(486,0,o),
(493,7,o),
(493,20,cs),
(493,81,ls),
(493,94,o),
(486,101,o),
(473,101,cs),
(303,101,l),
(303,202,l),
(384,202,ls),
(397,202,o),
(404,209,o),
(404,222,cs),
(404,283,ls),
(404,296,o),
(397,303,o),
(384,303,cs),
(121,303,ls),
(108,303,o),
(101,296,o),
(101,283,cs),
(101,222,ls),
(101,209,o),
(108,202,o),
(121,202,cs),
(202,202,l)
);
}
);
width = 492;
}
);
note = uni072B.init;
},
{
glyphname = uni072C;
lastChange = "2024-07-22 05:19:58 +0000";
layers = (
{
anchors = (
{
name = bottom;
pos = (289,-20);
},
{
name = top;
pos = (289,525);
}
);
hints = (
{
horizontal = 1;
place = (100,102);
type = Stem;
},
{
place = (339,101);
type = Stem;
},
{
place = (152,87);
type = Stem;
}
);
layerId = m01;
shapes = (
{
closed = 1;
nodes = (
(152,202,l),
(152,100,l),
(238,100,l),
(238,202,l)
);
},
{
closed = 1;
nodes = (
(339,303,l),
(541,303,l),
(541,0,l),
(440,0,l),
(440,202,l),
(339,202,l),
(339,0,l),
(51,0,l),
(51,303,l),
(238,303,l),
(238,505,l),
(339,505,l)
);
}
);
width = 541;
},
{
anchors = (
{
name = bottom;
pos = (289,-20);
},
{
name = top;
pos = (289,525);
}
);
hints = (
{
horizontal = 1;
place = (100,102);
type = Stem;
},
{
place = (339,101);
type = Stem;
},
{
place = (152,87);
type = Stem;
}
);
layerId = "9037C244-7DB9-46F9-B5BF-70F624EA3C1F";
shapes = (
{
closed = 1;
nodes = (
(172,202,ls),
(159,202,o),
(152,195,o),
(152,182,cs),
(152,120,ls),
(152,107,o),
(159,100,o),
(172,100,cs),
(218,100,ls),
(231,100,o),
(238,107,o),
(238,120,cs),
(238,182,ls),
(238,195,o),
(231,202,o),
(218,202,cs)
);
},
{
closed = 1;
nodes = (
(339,323,ls),
(339,310,o),
(346,303,o),
(359,303,cs),
(521,303,ls),
(534,303,o),
(541,296,o),
(541,283,cs),
(541,20,ls),
(541,7,o),
(534,0,o),
(521,0,cs),
(460,0,ls),
(447,0,o),
(440,7,o),
(440,20,cs),
(440,202,l),
(339,202,l),
(339,20,ls),
(339,7,o),
(332,0,o),
(319,0,cs),
(71,0,ls),
(58,0,o),
(51,7,o),
(51,20,cs),
(51,283,ls),
(51,296,o),
(58,303,o),
(71,303,cs),
(218,303,ls),
(231,303,o),
(238,310,o),
(238,323,cs),
(238,485,ls),
(238,498,o),
(245,505,o),
(258,505,cs),
(319,505,ls),
(332,505,o),
(339,498,o),
(339,485,cs)
);
}
);
width = 541;
}
);
note = uni072C;
unicode = 1836;
},
{
glyphname = uni072C.fina;
lastChange = "2024-07-22 06:38:54 +0000";
layers = (
{
anchors = (
{
name = bottom;
pos = (289,-20);
},
{
name = top;
pos = (289,525);
}
);
hints = (
{
horizontal = 1;
place = (101,101);
type = Stem;
},
{
place = (339,101);
type = Stem;
},
{
place = (152,87);
type = Stem;
}
);
layerId = m01;
shapes = (
{
closed = 1;
nodes = (
(152,202,l),
(152,101,l),
(238,101,l),
(238,202,l)
);
},
{
closed = 1;
nodes = (
(541,101,l),
(643,101,l),
(643,0,l),
(440,0,l),
(440,202,l),
(339,202,l),
(339,0,l),
(51,0,l),
(51,303,l),
(238,303,l),
(238,505,l),
(339,505,l),
(339,303,l),
(541,303,l)
);
}
);
width = 643;
},
{
anchors = (
{
name = bottom;
pos = (289,-20);
},
{
name = top;
pos = (289,525);
}
);
hints = (
{
horizontal = 1;
place = (101,101);
type = Stem;
},
{
place = (339,101);
type = Stem;
},
{
place = (152,87);
type = Stem;
}
);
layerId = "9037C244-7DB9-46F9-B5BF-70F624EA3C1F";
shapes = (
{
closed = 1;
nodes = (
(172,202,ls),
(159,202,o),
(152,195,o),
(152,182,cs),
(152,121,ls),
(152,108,o),
(159,101,o),
(172,101,cs),
(218,101,ls),
(231,101,o),
(238,108,o),
(238,121,cs),
(238,182,ls),
(238,195,o),
(231,202,o),
(218,202,cs)
);
},
{
closed = 1;
nodes = (
(541,101,l),
(643,101,l),
(643,0,l),
(460,0,ls),
(447,0,o),
(440,7,o),
(440,20,cs),
(440,202,l),
(339,202,l),
(339,20,ls),
(339,7,o),
(332,0,o),
(319,0,cs),
(71,0,ls),
(58,0,o),
(51,7,o),
(51,20,cs),
(51,283,ls),
(51,296,o),
(58,303,o),
(71,303,cs),
(218,303,ls),
(231,303,o),
(238,310,o),
(238,323,cs),
(238,485,ls),
(238,498,o),
(245,505,o),
(258,505,cs),
(319,505,ls),
(332,505,o),
(339,498,o),
(339,485,cs),
(339,323,ls),
(339,310,o),
(346,303,o),
(359,303,cs),
(521,303,ls),
(534,303,o),
(541,296,o),
(541,283,cs)
);
}
);
width = 643;
}
);
note = uni072C.fina;
},
{
glyphname = uni0640;
lastChange = "2024-07-22 05:59:52 +0000";
layers = (
{
anchors = (
{
name = bottom;
pos = (95,-20);
},
{
name = top;
pos = (95,121);
}
);
hints = (
{
horizontal = 1;
place = (0,101);
type = Stem;
},
{
place = (0,190);
type = Stem;
}
);
layerId = m01;
shapes = (
{
closed = 1;
nodes = (
(190,101,l),
(0,101,l),
(0,0,l),
(190,0,l)
);
}
);
width = 190;
},
{
anchors = (
{
name = bottom;
pos = (95,-20);
},
{
name = top;
pos = (95,121);
}
);
hints = (
{
horizontal = 1;
place = (0,101);
type = Stem;
},
{
place = (0,190);
type = Stem;
}
);
layerId = "9037C244-7DB9-46F9-B5BF-70F624EA3C1F";
shapes = (
{
closed = 1;
nodes = (
(191,101,l),
(-1,101,l),
(-1,0,l),
(191,0,l)
);
}
);
width = 190;
}
);
note = uni0640;
unicode = 1600;
},
{
glyphname = uni0700;
lastChange = "2024-07-20 07:38:44 +0000";
layers = (
{
hints = (
{
horizontal = 1;
place = (168,84);
type = Stem;
},
{
horizontal = 1;
place = (84,85);
type = Stem;
},
{
horizontal = 1;
place = (0,84);
type = Stem;
},
{
place = (190,84);
type = Stem;
},
{
place = (106,84);
type = Stem;
},
{
place = (22,84);
type = Stem;
}
);
layerId = m01;
shapes = (
{
closed = 1;
nodes = (
(274,109,l),
(274,193,l),
(191,193,l),
(191,277,l),
(106,277,l),
(106,194,l),
(22,194,l),
(22,109,l),
(106,109,l),
(106,193,l),
(190,193,l),
(190,109,l)
);
},
{
closed = 1;
nodes = (
(106,109,l),
(106,25,l),
(190,25,l),
(190,109,l)
);
}
);
width = 296;
},
{
hints = (
{
horizontal = 1;
place = (168,84);
type = Stem;
},
{
horizontal = 1;
place = (84,85);
type = Stem;
},
{
horizontal = 1;
place = (0,84);
type = Stem;
},
{
place = (190,84);
type = Stem;
},
{
place = (106,84);
type = Stem;
},
{
place = (22,84);
type = Stem;
}
);
layerId = "9037C244-7DB9-46F9-B5BF-70F624EA3C1F";
shapes = (
{
closed = 1;
nodes = (
);
},
{
closed = 1;
nodes = (
(126,109,ls),
(113,109,o),
(106,102,o),
(106,89,cs),
(106,45,ls),
(106,32,o),
(113,25,o),
(126,25,cs),
(170,25,ls),
(183,25,o),
(190,32,o),
(190,45,cs),
(190,89,ls),
(190,102,o),
(183,109,o),
(170,109,cs)
);
},
{
closed = 1;
nodes = (
(126,109,ls),
(113,109,o),
(106,102,o),
(106,89,cs),
(106,45,ls),
(106,32,o),
(113,25,o),
(126,25,cs),
(170,25,ls),
(183,25,o),
(190,32,o),
(190,45,cs),
(190,89,ls),
(190,102,o),
(183,109,o),
(170,109,cs)
);
},
{
closed = 1;
nodes = (
(126,277,ls),
(113,277,o),
(106,270,o),
(106,257,cs),
(106,213,ls),
(106,200,o),
(113,193,o),
(126,193,cs),
(170,193,ls),
(183,193,o),
(190,200,o),
(190,213,cs),
(190,257,ls),
(190,270,o),
(183,277,o),
(170,277,cs)
);
},
{
closed = 1;
nodes = (
(210,192,ls),
(197,192,o),
(190,185,o),
(190,172,cs),
(190,128,ls),
(190,115,o),
(197,108,o),
(210,108,cs),
(254,108,ls),
(267,108,o),
(274,115,o),
(274,128,cs),
(274,172,ls),
(274,185,o),
(267,192,o),
(254,192,cs)
);
},
{
closed = 1;
nodes = (
(42,192,ls),
(29,192,o),
(22,185,o),
(22,172,cs),
(22,128,ls),
(22,115,o),
(29,108,o),
(42,108,cs),
(86,108,ls),
(99,108,o),
(106,115,o),
(106,128,cs),
(106,172,ls),
(106,185,o),
(99,192,o),
(86,192,cs)
);
}
);
width = 296;
}
);
note = uni0700;
unicode = 1792;
},
{
glyphname = uni0701;
lastChange = "2024-07-19 06:05:23 +0000";
layers = (
{
hints = (
{
horizontal = 1;
place = (157,56);
type = Stem;
},
{
place = (49,51);
type = Stem;
}
);
layerId = m01;
shapes = (
{
closed = 1;
nodes = (
(100,161,l),
(100,211,l),
(50,211,l),
(50,161,l)
);
}
);
width = 150;
},
{
hints = (
{
horizontal = 1;
place = (157,56);
type = Stem;
},
{
place = (49,51);
type = Stem;
}
);
layerId = "9037C244-7DB9-46F9-B5BF-70F624EA3C1F";
shapes = (
{
closed = 1;
nodes = (
(80,161,ls),
(93,161,o),
(100,168,o),
(100,181,cs),
(100,191,ls),
(100,204,o),
(93,211,o),
(80,211,cs),
(70,211,ls),
(57,211,o),
(50,204,o),
(50,191,cs),
(50,181,ls),
(50,168,o),
(57,161,o),
(70,161,cs)
);
}
);
width = 150;
}
);
note = uni0701;
unicode = 1793;
},
{
glyphname = uni0702;
lastChange = "2024-07-19 06:05:23 +0000";
layers = (
{
hints = (
{
horizontal = 1;
place = (-56,56);
type = Stem;
},
{
place = (39,51);
type = Stem;
}
);
layerId = m01;
shapes = (
{
closed = 1;
nodes = (
(100,-50,l),
(100,0,l),
(50,0,l),
(50,-50,l)
);
}
);
width = 150;
},
{
hints = (
{
horizontal = 1;
place = (-56,56);
type = Stem;
},
{
place = (39,51);
type = Stem;
}
);
layerId = "9037C244-7DB9-46F9-B5BF-70F624EA3C1F";
shapes = (
{
closed = 1;
nodes = (
(80,-50,ls),
(93,-50,o),
(100,-43,o),
(100,-30,cs),
(100,-20,ls),
(100,-7,o),
(93,0,o),
(80,0,cs),
(70,0,ls),
(57,0,o),
(50,-7,o),
(50,-20,cs),
(50,-30,ls),
(50,-43,o),
(57,-50,o),
(70,-50,cs)
);
}
);
width = 150;
}
);
note = uni0702;
unicode = 1794;
},
{
glyphname = uni0703;
lastChange = "2024-07-19 06:05:23 +0000";
layers = (
{
hints = (
{
horizontal = 1;
place = (208,57);
type = Stem;
},
{
horizontal = 1;
place = (98,57);
type = Stem;
},
{
place = (39,51);
type = Stem;
}
);
layerId = m01;
shapes = (
{
closed = 1;
nodes = (
(100,208,l),
(100,258,l),
(50,258,l),
(50,208,l)
);
},
{
closed = 1;
nodes = (
(100,106,l),
(100,156,l),
(50,156,l),
(50,106,l)
);
}
);
width = 150;
},
{
hints = (
{
horizontal = 1;
place = (208,57);
type = Stem;
},
{
horizontal = 1;
place = (98,57);
type = Stem;
},
{
place = (39,51);
type = Stem;
}
);
layerId = "9037C244-7DB9-46F9-B5BF-70F624EA3C1F";
shapes = (
{
closed = 1;
nodes = (
(80,208,ls),
(93,208,o),
(100,215,o),
(100,228,cs),
(100,238,ls),
(100,251,o),
(93,258,o),
(80,258,cs),
(70,258,ls),
(57,258,o),
(50,251,o),
(50,238,cs),
(50,228,ls),
(50,215,o),
(57,208,o),
(70,208,cs)
);
},
{
closed = 1;
nodes = (
(80,106,ls),
(93,106,o),
(100,113,o),
(100,126,cs),
(100,136,ls),
(100,149,o),
(93,156,o),
(80,156,cs),
(70,156,ls),
(57,156,o),
(50,149,o),
(50,136,cs),
(50,126,ls),
(50,113,o),
(57,106,o),
(70,106,cs)
);
}
);
width = 150;
}
);
note = uni0703;
unicode = 1795;
},
{
glyphname = uni0704;
lastChange = "2024-07-19 06:05:23 +0000";
layers = (
{
hints = (
{
horizontal = 1;
place = (0,57);
type = Stem;
},
{
horizontal = 1;
place = (-110,57);
type = Stem;
},
{
place = (39,51);
type = Stem;
}
);
layerId = m01;
shapes = (
{
closed = 1;
nodes = (
(100,0,l),
(100,50,l),
(50,50,l),
(50,0,l)
);
},
{
closed = 1;
nodes = (
(100,-102,l),
(100,-52,l),
(50,-52,l),
(50,-102,l)
);
}
);
width = 150;
},
{
hints = (
{
horizontal = 1;
place = (0,57);
type = Stem;
},
{
horizontal = 1;
place = (-110,57);
type = Stem;
},
{
place = (39,51);
type = Stem;
}
);
layerId = "9037C244-7DB9-46F9-B5BF-70F624EA3C1F";
shapes = (
{
closed = 1;
nodes = (
(80,0,ls),
(93,0,o),
(100,7,o),
(100,20,cs),
(100,30,ls),
(100,43,o),
(93,50,o),
(80,50,cs),
(70,50,ls),
(57,50,o),
(50,43,o),
(50,30,cs),
(50,20,ls),
(50,7,o),
(57,0,o),
(70,0,cs)
);
},
{
closed = 1;
nodes = (
(80,-102,ls),
(93,-102,o),
(100,-95,o),
(100,-82,cs),
(100,-72,ls),
(100,-59,o),
(93,-52,o),
(80,-52,cs),
(70,-52,ls),
(57,-52,o),
(50,-59,o),
(50,-72,cs),
(50,-82,ls),
(50,-95,o),
(57,-102,o),
(70,-102,cs)
);
}
);
width = 150;
}
);
note = uni0704;
unicode = 1796;
},
{
glyphname = uni0705;
lastChange = "2024-07-19 06:05:23 +0000";
layers = (
{
hints = (
{
horizontal = 1;
place = (157,56);
type = Stem;
},
{
place = (168,51);
type = Stem;
},
{
place = (49,51);
type = Stem;
}
);
layerId = m01;
shapes = (
{
closed = 1;
nodes = (
(152,157,l),
(202,157,l),
(202,207,l),
(152,207,l)
);
},
{
closed = 1;
nodes = (
(50,157,l),
(100,157,l),
(100,207,l),
(50,207,l)
);
}
);
width = 252;
},
{
hints = (
{
horizontal = 1;
place = (157,56);
type = Stem;
},
{
place = (168,51);
type = Stem;
},
{
place = (49,51);
type = Stem;
}
);
layerId = "9037C244-7DB9-46F9-B5BF-70F624EA3C1F";
shapes = (
{
closed = 1;
nodes = (
(152,177,ls),
(152,164,o),
(159,157,o),
(172,157,cs),
(182,157,ls),
(195,157,o),
(202,164,o),
(202,177,cs),
(202,187,ls),
(202,200,o),
(195,207,o),
(182,207,cs),
(172,207,ls),
(159,207,o),
(152,200,o),
(152,187,cs)
);
},
{
closed = 1;
nodes = (
(50,177,ls),
(50,164,o),
(57,157,o),
(70,157,cs),
(80,157,ls),
(93,157,o),
(100,164,o),
(100,177,cs),
(100,187,ls),
(100,200,o),
(93,207,o),
(80,207,cs),
(70,207,ls),
(57,207,o),
(50,200,o),
(50,187,cs)
);
}
);
width = 252;
}
);
note = uni0705;
unicode = 1797;
},
{
glyphname = uni0706;
lastChange = "2024-07-19 06:05:23 +0000";
layers = (
{
hints = (
{
horizontal = 1;
place = (122,57);
type = Stem;
},
{
horizontal = 1;
place = (0,57);
type = Stem;
},
{
place = (104,50);
type = Stem;
},
{
place = (39,51);
type = Stem;
}
);
layerId = m01;
shapes = (
{
closed = 1;
nodes = (
(105,100,l),
(105,150,l),
(55,150,l),
(55,100,l)
);
},
{
closed = 1;
nodes = (
(155,0,l),
(155,50,l),
(105,50,l),
(105,0,l)
);
}
);
width = 193;
},
{
hints = (
{
horizontal = 1;
place = (122,57);
type = Stem;
},
{
horizontal = 1;
place = (0,57);
type = Stem;
},
{
place = (104,50);
type = Stem;
},
{
place = (39,51);
type = Stem;
}
);
layerId = "9037C244-7DB9-46F9-B5BF-70F624EA3C1F";
shapes = (
{
closed = 1;
nodes = (
(85,100,ls),
(98,100,o),
(105,107,o),
(105,120,cs),
(105,130,ls),
(105,143,o),
(98,150,o),
(85,150,cs),
(75,150,ls),
(62,150,o),
(55,143,o),
(55,130,cs),
(55,120,ls),
(55,107,o),
(62,100,o),
(75,100,cs)
);
},
{
closed = 1;
nodes = (
(135,0,ls),
(148,0,o),
(155,7,o),
(155,20,cs),
(155,30,ls),
(155,43,o),
(148,50,o),
(135,50,cs),
(125,50,ls),
(112,50,o),
(105,43,o),
(105,30,cs),
(105,20,ls),
(105,7,o),
(112,0,o),
(125,0,cs)
);
}
);
width = 193;
}
);
note = uni0706;
unicode = 1798;
},
{
glyphname = uni0707;
lastChange = "2024-07-19 06:05:23 +0000";
layers = (
{
hints = (
{
horizontal = 1;
place = (122,57);
type = Stem;
},
{
horizontal = 1;
place = (0,57);
type = Stem;
},
{
place = (104,50);
type = Stem;
},
{
place = (39,51);
type = Stem;
}
);
layerId = m01;
shapes = (
{
closed = 1;
nodes = (
(140,150,l),
(90,150,l),
(90,100,l),
(140,100,l)
);
},
{
closed = 1;
nodes = (
(90,50,l),
(40,50,l),
(40,0,l),
(90,0,l)
);
}
);
width = 193;
},
{
hints = (
{
horizontal = 1;
place = (122,57);
type = Stem;
},
{
horizontal = 1;
place = (0,57);
type = Stem;
},
{
place = (104,50);
type = Stem;
},
{
place = (39,51);
type = Stem;
}
);
layerId = "9037C244-7DB9-46F9-B5BF-70F624EA3C1F";
shapes = (
{
closed = 1;
nodes = (
(140,130,ls),
(140,143,o),
(133,150,o),
(120,150,cs),
(110,150,ls),
(97,150,o),
(90,143,o),
(90,130,cs),
(90,120,ls),
(90,107,o),
(97,100,o),
(110,100,cs),
(120,100,ls),
(133,100,o),
(140,107,o),
(140,120,cs)
);
},
{
closed = 1;
nodes = (
(90,30,ls),
(90,43,o),
(83,50,o),
(70,50,cs),
(60,50,ls),
(47,50,o),
(40,43,o),
(40,30,cs),
(40,20,ls),
(40,7,o),
(47,0,o),
(60,0,cs),
(70,0,ls),
(83,0,o),
(90,7,o),
(90,20,cs)
);
}
);
width = 193;
}
);
note = uni0707;
unicode = 1799;
},
{
glyphname = uni0708;
lastChange = "2024-07-19 06:05:23 +0000";
layers = (
{
hints = (
{
horizontal = 1;
place = (208,57);
type = Stem;
},
{
horizontal = 1;
place = (99,56);
type = Stem;
},
{
place = (99,50);
type = Stem;
},
{
place = (39,51);
type = Stem;
}
);
layerId = m01;
shapes = (
{
closed = 1;
nodes = (
(96,205,l),
(96,255,l),
(46,255,l),
(46,205,l)
);
},
{
closed = 1;
nodes = (
(146,105,l),
(146,155,l),
(96,155,l),
(96,105,l)
);
}
);
width = 188;
},
{
hints = (
{
horizontal = 1;
place = (208,57);
type = Stem;
},
{
horizontal = 1;
place = (99,56);
type = Stem;
},
{
place = (99,50);
type = Stem;
},
{
place = (39,51);
type = Stem;
}
);
layerId = "9037C244-7DB9-46F9-B5BF-70F624EA3C1F";
shapes = (
{
closed = 1;
nodes = (
(76,205,ls),
(89,205,o),
(96,212,o),
(96,225,cs),
(96,235,ls),
(96,248,o),
(89,255,o),
(76,255,cs),
(66,255,ls),
(53,255,o),
(46,248,o),
(46,235,cs),
(46,225,ls),
(46,212,o),
(53,205,o),
(66,205,cs)
);
},
{
closed = 1;
nodes = (
(126,105,ls),
(139,105,o),
(146,112,o),
(146,125,cs),
(146,135,ls),
(146,148,o),
(139,155,o),
(126,155,cs),
(116,155,ls),
(103,155,o),
(96,148,o),
(96,135,cs),
(96,125,ls),
(96,112,o),
(103,105,o),
(116,105,cs)
);
}
);
width = 188;
}
);
note = uni0708;
unicode = 1800;
},
{
glyphname = uni0709;
lastChange = "2024-07-19 06:05:23 +0000";
layers = (
{
hints = (
{
horizontal = 1;
place = (0,57);
type = Stem;
},
{
horizontal = 1;
place = (-109,56);
type = Stem;
},
{
place = (99,50);
type = Stem;
},
{
place = (39,51);
type = Stem;
}
);
layerId = m01;
shapes = (
{
closed = 1;
nodes = (
(92,-9,l),
(92,41,l),
(42,41,l),
(42,-9,l)
);
},
{
closed = 1;
nodes = (
(142,-109,l),
(142,-59,l),
(92,-59,l),
(92,-109,l)
);
}
);
width = 188;
},
{
hints = (
{
horizontal = 1;
place = (0,57);
type = Stem;
},
{
horizontal = 1;
place = (-109,56);
type = Stem;
},
{
place = (99,50);
type = Stem;
},
{
place = (39,51);
type = Stem;
}
);
layerId = "9037C244-7DB9-46F9-B5BF-70F624EA3C1F";
shapes = (
{
closed = 1;
nodes = (
(72,-9,ls),
(85,-9,o),
(92,-2,o),
(92,11,cs),
(92,21,ls),
(92,34,o),
(85,41,o),
(72,41,cs),
(62,41,ls),
(49,41,o),
(42,34,o),
(42,21,cs),
(42,11,ls),
(42,-2,o),
(49,-9,o),
(62,-9,cs)
);
},
{
closed = 1;
nodes = (
(122,-109,ls),
(135,-109,o),
(142,-102,o),
(142,-89,cs),
(142,-79,ls),
(142,-66,o),
(135,-59,o),
(122,-59,cs),
(112,-59,ls),
(99,-59,o),
(92,-66,o),
(92,-79,cs),
(92,-89,ls),
(92,-102,o),
(99,-109,o),
(112,-109,cs)
);
}
);
width = 188;
}
);
note = uni0709;
unicode = 1801;
},
{
glyphname = uni070A;
lastChange = "2024-07-20 07:42:55 +0000";
layers = (
{
hints = (
{
horizontal = 1;
place = (218,31);
type = Stem;
},
{
horizontal = 1;
place = (113,57);
type = Stem;
},
{
horizontal = 1;
place = (0,57);
type = Stem;
},
{
place = (171,22);
type = Stem;
},
{
place = (97,22);
type = Stem;
}
);
layerId = m01;
shapes = (
{
closed = 1;
nodes = (
(60,249,l),
(60,218,l),
(230,218,l),
(230,249,l)
);
},
{
closed = 1;
nodes = (
(119,111,l),
(170,111,l),
(170,162,l),
(119,162,l)
);
},
{
closed = 1;
nodes = (
(119,6,l),
(170,6,l),
(170,57,l),
(119,57,l)
);
}
);
width = 290;
},
{
hints = (
{
horizontal = 1;
place = (218,31);
type = Stem;
},
{
horizontal = 1;
place = (113,57);
type = Stem;
},
{
horizontal = 1;
place = (0,57);
type = Stem;
},
{
place = (171,22);
type = Stem;
},
{
place = (97,22);
type = Stem;
}
);
layerId = "9037C244-7DB9-46F9-B5BF-70F624EA3C1F";
shapes = (
{
closed = 1;
nodes = (
(80,249,ls),
(67,249,o),
(60,243,o),
(60,234,cs),
(60,234,ls),
(60,224,o),
(67,218,o),
(80,218,cs),
(210,218,ls),
(223,218,o),
(230,224,o),
(230,234,cs),
(230,234,ls),
(230,244,o),
(223,249,o),
(210,249,cs)
);
},
{
closed = 1;
nodes = (
(119,26,ls),
(119,13,o),
(126,6,o),
(139,6,cs),
(150,6,ls),
(163,6,o),
(170,13,o),
(170,26,cs),
(170,37,ls),
(170,50,o),
(163,57,o),
(150,57,cs),
(139,57,ls),
(126,57,o),
(119,50,o),
(119,37,cs)
);
},
{
closed = 1;
nodes = (
(119,131,ls),
(119,118,o),
(126,111,o),
(139,111,cs),
(150,111,ls),
(163,111,o),
(170,118,o),
(170,131,cs),
(170,142,ls),
(170,155,o),
(163,162,o),
(150,162,cs),
(139,162,ls),
(126,162,o),
(119,155,o),
(119,142,cs)
);
}
);
width = 290;
}
);
note = uni070A;
unicode = 1802;
},
{
glyphname = uni070B;
lastChange = "2024-07-19 06:05:23 +0000";
layers = (
{
hints = (
{
horizontal = 1;
place = (291,30);
type = Stem;
},
{
horizontal = 1;
place = (194,57);
type = Stem;
},
{
place = (205,52);
type = Stem;
}
);
layerId = m01;
shapes = (
{
closed = 1;
nodes = (
(402,291,l),
(402,341,l),
(60,341,l),
(60,291,l)
);
},
{
closed = 1;
nodes = (
(256,191,l),
(256,241,l),
(206,241,l),
(206,191,l)
);
}
);
width = 462;
},
{
hints = (
{
horizontal = 1;
place = (291,30);
type = Stem;
},
{
horizontal = 1;
place = (194,57);
type = Stem;
},
{
place = (205,52);
type = Stem;
}
);
layerId = "9037C244-7DB9-46F9-B5BF-70F624EA3C1F";
shapes = (
{
closed = 1;
nodes = (
(382,291,ls),
(395,291,o),
(402,298,o),
(402,311,cs),
(402,321,ls),
(402,334,o),
(395,341,o),
(382,341,cs),
(80,341,ls),
(67,341,o),
(60,334,o),
(60,321,cs),
(60,311,ls),
(60,298,o),
(67,291,o),
(80,291,cs)
);
},
{
closed = 1;
nodes = (
(236,191,ls),
(249,191,o),
(256,198,o),
(256,211,cs),
(256,221,ls),
(256,234,o),
(249,241,o),
(236,241,cs),
(226,241,ls),
(213,241,o),
(206,234,o),
(206,221,cs),
(206,211,ls),
(206,198,o),
(213,191,o),
(226,191,cs)
);
}
);
width = 462;
}
);
note = uni070B;
unicode = 1803;
},
{
glyphname = uni070C;
lastChange = "2024-07-19 06:05:23 +0000";
layers = (
{
hints = (
{
horizontal = 1;
place = (364,-20);
target = down;
type = TopGhost;
},
{
horizontal = 1;
place = (143,23);
type = Stem;
},
{
place = (261,23);
type = Stem;
},
{
place = (243,41);
type = Stem;
}
);
layerId = m01;
shapes = (
{
closed = 1;
nodes = (
(278,217,l),
(261,185,l),
(82,364,l),
(64,347,l),
(243,166,l),
(212,149,l),
(212,147,l),
(237,144,o),
(259,143,o),
(284,143,c),
(284,168,o),
(283,192,o),
(281,217,c)
);
}
);
width = 347;
},
{
hints = (
{
horizontal = 1;
place = (364,-20);
target = down;
type = TopGhost;
},
{
horizontal = 1;
place = (143,23);
type = Stem;
},
{
place = (261,23);
type = Stem;
},
{
place = (243,41);
type = Stem;
}
);
layerId = "9037C244-7DB9-46F9-B5BF-70F624EA3C1F";
shapes = (
{
closed = 1;
nodes = (
(280,217,ls),
(279,217,o),
(275,212,o),
(270,203,cs),
(261,185,l),
(96,350,ls),
(87,359,o),
(79,362,o),
(73,356,cs),
(73,356,ls),
(67,351,o),
(69,343,o),
(78,333,cs),
(243,166,l),
(212,149,l),
(212,148,ls),
(212,148,o),
(218,146,o),
(231,145,cs),
(242,144,o),
(253,144,o),
(264,143,cs),
(277,143,o),
(284,150,o),
(284,163,cs),
(283,175,o),
(283,186,o),
(282,198,cs),
(282,210,o),
(281,217,o),
(280,217,cs)
);
}
);
width = 347;
}
);
note = uni070C;
unicode = 1804;
},
{
glyphname = uni070D;
lastChange = "2024-07-19 06:05:23 +0000";
layers = (
{
hints = (
{
horizontal = 1;
place = (214,100);
type = Stem;
},
{
horizontal = 1;
place = (214,46);
type = Stem;
},
{
horizontal = 1;
place = (162,25);
type = Stem;
},
{
horizontal = 1;
place = (89,46);
type = Stem;
},
{
place = (230,42);
type = Stem;
},
{
place = (177,26);
type = Stem;
},
{
place = (107,96);
type = Stem;
},
{
place = (107,42);
type = Stem;
}
);
layerId = m01;
shapes = (
{
closed = 1;
nodes = (
(15,211,l),
(15,146,l),
(158,146,l),
(158,4,l),
(223,4,l),
(223,146,l),
(365,146,l),
(365,211,l),
(223,211,l),
(223,354,l),
(158,354,l),
(158,211,l)
);
},
{
closed = 1;
nodes = (
(119,43,l),
(119,107,l),
(54,107,l),
(54,43,l)
);
},
{
closed = 1;
nodes = (
(119,250,l),
(119,315,l),
(54,315,l),
(54,250,l)
);
},
{
closed = 1;
nodes = (
(327,43,l),
(327,107,l),
(262,107,l),
(262,43,l)
);
},
{
closed = 1;
nodes = (
(327,250,l),
(327,315,l),
(262,315,l),
(262,250,l)
);
}
);
width = 380;
},
{
hints = (
{
horizontal = 1;
place = (214,100);
type = Stem;
},
{
horizontal = 1;
place = (214,46);
type = Stem;
},
{
horizontal = 1;
place = (162,25);
type = Stem;
},
{
horizontal = 1;
place = (89,46);
type = Stem;
},
{
place = (230,42);
type = Stem;
},
{
place = (177,26);
type = Stem;
},
{
place = (107,96);
type = Stem;
},
{
place = (107,42);
type = Stem;
}
);
layerId = "9037C244-7DB9-46F9-B5BF-70F624EA3C1F";
shapes = (
{
closed = 1;
nodes = (
(35,211,ls),
(22,211,o),
(15,204,o),
(15,191,cs),
(15,166,ls),
(15,153,o),
(22,146,o),
(35,146,cs),
(158,146,l),
(158,24,ls),
(158,11,o),
(165,4,o),
(178,4,cs),
(203,4,ls),
(216,4,o),
(223,11,o),
(223,24,cs),
(223,146,l),
(345,146,ls),
(358,146,o),
(365,153,o),
(365,166,cs),
(365,191,ls),
(365,204,o),
(358,211,o),
(345,211,cs),
(223,211,l),
(223,334,ls),
(223,347,o),
(216,354,o),
(203,354,cs),
(178,354,ls),
(165,354,o),
(158,347,o),
(158,334,cs),
(158,211,l)
);
},
{
closed = 1;
nodes = (
(99,43,ls),
(112,43,o),
(119,50,o),
(119,63,cs),
(119,87,ls),
(119,100,o),
(112,107,o),
(99,107,cs),
(74,107,ls),
(61,107,o),
(54,100,o),
(54,87,cs),
(54,63,ls),
(54,50,o),
(61,43,o),
(74,43,cs)
);
},
{
closed = 1;
nodes = (
(99,250,ls),
(112,250,o),
(119,257,o),
(119,270,cs),
(119,295,ls),
(119,308,o),
(112,315,o),
(99,315,cs),
(74,315,ls),
(61,315,o),
(54,308,o),
(54,295,cs),
(54,270,ls),
(54,257,o),
(61,250,o),
(74,250,cs)
);
},
{
closed = 1;
nodes = (
(307,43,ls),
(320,43,o),
(327,50,o),
(327,63,cs),
(327,87,ls),
(327,100,o),
(320,107,o),
(307,107,cs),
(282,107,ls),
(269,107,o),
(262,100,o),
(262,87,cs),
(262,63,ls),
(262,50,o),
(269,43,o),
(282,43,cs)
);
},
{
closed = 1;
nodes = (
(307,250,ls),
(320,250,o),
(327,257,o),
(327,270,cs),
(327,295,ls),
(327,308,o),
(320,315,o),
(307,315,cs),
(282,315,ls),
(269,315,o),
(262,308,o),
(262,295,cs),
(262,270,ls),
(262,257,o),
(269,250,o),
(282,250,cs)
);
}
);
width = 380;
}
);
note = uni070D;
unicode = 1805;
},
{
glyphname = uni070F;
lastChange = "2024-07-19 06:05:23 +0000";
layers = (
{
hints = (
{
horizontal = 1;
place = (390,17);
type = Stem;
},
{
place = (-6,18);
type = Stem;
}
);
layerId = m01;
shapes = (
{
closed = 1;
nodes = (
(-43,407,l),
(-43,390,l),
(-6,390,l),
(-6,-45,l),
(12,-45,l),
(12,390,l),
(49,390,l),
(49,407,l)
);
}
);
width = 0;
},
{
hints = (
{
horizontal = 1;
place = (390,17);
type = Stem;
},
{
place = (-6,18);
type = Stem;
}
);
layerId = "9037C244-7DB9-46F9-B5BF-70F624EA3C1F";
shapes = (
{
closed = 1;
nodes = (
(-23,407,ls),
(-36,407,o),
(-43,404,o),
(-43,399,cs),
(-43,399,ls),
(-43,394,o),
(-36,390,o),
(-23,390,cs),
(-6,390,l),
(-6,-25,ls),
(-6,-38,o),
(-2,-45,o),
(3,-45,cs),
(3,-45,ls),
(8,-45,o),
(12,-38,o),
(12,-25,cs),
(12,390,l),
(29,390,ls),
(42,390,o),
(49,394,o),
(49,399,cs),
(49,399,ls),
(49,404,o),
(42,407,o),
(29,407,cs)
);
}
);
width = 0;
}
);
note = uni070F;
unicode = 1807;
},
{
glyphname = uni0730;
lastChange = "2024-07-19 06:05:23 +0000";
layers = (
{
anchors = (
{
name = _top;
pos = (50,287);
}
);
hints = (
{
horizontal = 1;
place = (365,-20);
target = down;
type = TopGhost;
},
{
horizontal = 1;
place = (281,-20);
target = down;
type = TopGhost;
},
{
place = (-42,17);
type = Stem;
}
);
layerId = m01;
shapes = (
{
closed = 1;
nodes = (
(16,375,l),
(16,332,l),
(0,332,l),
(0,307,l),
(101,307,l),
(101,332,l),
(85,332,l),
(85,375,l)
);
},
{
closed = 1;
nodes = (
(41,350,l),
(60,350,l),
(60,332,l),
(41,332,l)
);
}
);
width = 101;
},
{
anchors = (
{
name = _top;
pos = (50,287);
}
);
hints = (
{
horizontal = 1;
place = (365,-20);
target = down;
type = TopGhost;
},
{
horizontal = 1;
place = (281,-20);
target = down;
type = TopGhost;
},
{
place = (-42,17);
type = Stem;
}
);
layerId = "9037C244-7DB9-46F9-B5BF-70F624EA3C1F";
shapes = (
{
closed = 1;
nodes = (
(36,375,ls),
(23,375,o),
(16,368,o),
(16,355,cs),
(16,332,l),
(16,332,ls),
(6,332,o),
(0,327,o),
(0,320,cs),
(0,320,ls),
(0,312,o),
(7,307,o),
(20,307,cs),
(81,307,ls),
(94,307,o),
(101,312,o),
(101,320,cs),
(101,320,ls),
(101,328,o),
(95,332,o),
(85,332,cs),
(85,332,l),
(85,355,ls),
(85,368,o),
(78,375,o),
(65,375,cs)
);
},
{
closed = 1;
nodes = (
(41,350,l),
(60,350,l),
(60,332,l),
(41,332,l)
);
}
);
width = 101;
}
);
note = uni0730;
unicode = 1840;
},
{
glyphname = uni0731;
lastChange = "2024-07-19 06:05:23 +0000";
layers = (
{
anchors = (
{
name = _bottom;
pos = (50,20);
}
);
hints = (
{
horizontal = 1;
place = (-94,97);
type = Stem;
},
{
place = (26,17);
type = Stem;
}
);
layerId = m01;
shapes = (
{
closed = 1;
nodes = (
(85,-25,l),
(101,-25,l),
(101,0,l),
(0,0,l),
(0,-25,l),
(16,-25,l),
(16,-68,l),
(85,-68,l)
);
},
{
closed = 1;
nodes = (
(60,-25,l),
(60,-43,l),
(41,-43,l),
(41,-25,l)
);
}
);
width = 101;
},
{
anchors = (
{
name = _bottom;
pos = (50,20);
}
);
hints = (
{
horizontal = 1;
place = (-94,97);
type = Stem;
},
{
place = (26,17);
type = Stem;
}
);
layerId = "9037C244-7DB9-46F9-B5BF-70F624EA3C1F";
shapes = (
{
closed = 1;
nodes = (
(85,-25,l),
(85,-25,ls),
(95,-25,o),
(101,-20,o),
(101,-13,cs),
(101,-13,ls),
(101,-5,o),
(94,0,o),
(81,0,cs),
(20,0,ls),
(7,0,o),
(0,-5,o),
(0,-13,cs),
(0,-13,ls),
(0,-21,o),
(6,-25,o),
(16,-25,cs),
(16,-25,l),
(16,-48,ls),
(16,-61,o),
(23,-68,o),
(36,-68,cs),
(65,-68,ls),
(78,-68,o),
(85,-61,o),
(85,-48,cs)
);
},
{
closed = 1;
nodes = (
(60,-25,l),
(60,-43,l),
(41,-43,l),
(41,-25,l)
);
}
);
width = 101;
}
);
note = uni0731;
unicode = 1841;
},
{
glyphname = uni0732;
kernLeft = "1";
kernRight = "1";
lastChange = "2024-07-19 06:05:23 +0000";
layers = (
{
anchors = (
{
name = _top;
pos = (1,277);
}
);
hints = (
{
horizontal = 1;
place = (-60,391);
type = Stem;
},
{
place = (-22,45);
type = Stem;
}
);
layerId = m01;
shapes = (
{
closed = 1;
nodes = (
(13,381,l),
(-12,381,l),
(-12,330,l),
(13,330,l)
);
},
{
closed = 1;
nodes = (
(13,-10,l),
(-12,-10,l),
(-12,-61,l),
(13,-61,l)
);
}
);
width = 0;
},
{
anchors = (
{
name = _top;
pos = (1,277);
}
);
hints = (
{
horizontal = 1;
place = (-60,391);
type = Stem;
},
{
place = (-22,45);
type = Stem;
}
);
layerId = "9037C244-7DB9-46F9-B5BF-70F624EA3C1F";
shapes = (
{
closed = 1;
nodes = (
(13,361,ls),
(13,374,o),
(8,381,o),
(1,381,cs),
(1,381,ls),
(-7,381,o),
(-12,374,o),
(-12,361,cs),
(-12,350,ls),
(-12,337,o),
(-7,330,o),
(1,330,cs),
(1,330,ls),
(9,330,o),
(13,337,o),
(13,350,cs)
);
},
{
closed = 1;
nodes = (
(13,-30,ls),
(13,-17,o),
(8,-10,o),
(1,-10,cs),
(1,-10,ls),
(-7,-10,o),
(-12,-17,o),
(-12,-30,cs),
(-12,-41,ls),
(-12,-54,o),
(-7,-61,o),
(1,-61,cs),
(1,-61,ls),
(9,-61,o),
(13,-54,o),
(13,-41,cs)
);
}
);
width = 0;
}
);
note = uni0732;
unicode = 1842;
},
{
glyphname = uni0733;
lastChange = "2024-07-19 06:05:23 +0000";
layers = (
{
anchors = (
{
name = _top;
pos = (50,277);
}
);
hints = (
{
horizontal = 1;
place = (280,-20);
target = down;
type = TopGhost;
},
{
horizontal = 1;
place = (359,18);
type = Stem;
},
{
place = (21,18);
type = Stem;
},
{
place = (-30,18);
type = Stem;
}
);
layerId = m01;
shapes = (
{
closed = 1;
nodes = (
(0,322,l),
(0,297,l),
(100,297,l),
(100,372,l),
(25,372,l),
(25,322,l)
);
},
{
closed = 1;
nodes = (
(50,347,l),
(75,347,l),
(75,322,l),
(50,322,l)
);
}
);
width = 100;
},
{
anchors = (
{
name = _top;
pos = (50,277);
}
);
hints = (
{
horizontal = 1;
place = (280,-20);
target = down;
type = TopGhost;
},
{
horizontal = 1;
place = (359,18);
type = Stem;
},
{
place = (21,18);
type = Stem;
},
{
place = (-30,18);
type = Stem;
}
);
layerId = "9037C244-7DB9-46F9-B5BF-70F624EA3C1F";
shapes = (
{
closed = 1;
nodes = (
(20,322,ls),
(7,322,o),
(0,317,o),
(0,310,cs),
(0,310,ls),
(0,302,o),
(7,297,o),
(20,297,cs),
(80,297,ls),
(93,297,o),
(100,304,o),
(100,317,cs),
(100,352,ls),
(100,365,o),
(93,372,o),
(80,372,cs),
(45,372,ls),
(32,372,o),
(25,365,o),
(25,352,cs),
(25,322,l)
);
},
{
closed = 1;
nodes = (
(50,347,l),
(75,347,l),
(75,322,l),
(50,322,l)
);
}
);
width = 100;
}
);
note = uni0733;
unicode = 1843;
},
{
glyphname = uni0734;
lastChange = "2024-07-19 06:05:23 +0000";
layers = (
{
anchors = (
{
name = _bottom;
pos = (50,20);
}
);
hints = (
{
horizontal = 1;
place = (-107,19);
type = Stem;
},
{
place = (13,18);
type = Stem;
},
{
place = (-39,19);
type = Stem;
}
);
layerId = m01;
shapes = (
{
closed = 1;
nodes = (
(100,-25,l),
(100,0,l),
(0,0,l),
(0,-75,l),
(75,-75,l),
(75,-25,l)
);
},
{
closed = 1;
nodes = (
(50,-50,l),
(25,-50,l),
(25,-25,l),
(50,-25,l)
);
}
);
width = 100;
},
{
anchors = (
{
name = _bottom;
pos = (50,20);
}
);
hints = (
{
horizontal = 1;
place = (-107,19);
type = Stem;
},
{
place = (13,18);
type = Stem;
},
{
place = (-39,19);
type = Stem;
}
);
layerId = "9037C244-7DB9-46F9-B5BF-70F624EA3C1F";
shapes = (
{
closed = 1;
nodes = (
(80,-25,ls),
(93,-25,o),
(100,-20,o),
(100,-13,cs),
(100,-13,ls),
(100,-5,o),
(93,0,o),
(80,0,cs),
(20,0,ls),
(7,0,o),
(0,-7,o),
(0,-20,cs),
(0,-55,ls),
(0,-68,o),
(7,-75,o),
(20,-75,cs),
(55,-75,ls),
(68,-75,o),
(75,-68,o),
(75,-55,cs),
(75,-25,l)
);
},
{
closed = 1;
nodes = (
(50,-50,l),
(25,-50,l),
(25,-25,l),
(50,-25,l)
);
}
);
width = 100;
}
);
note = uni0734;
unicode = 1844;
},
{
glyphname = uni0735;
kernLeft = "1";
kernRight = "1";
lastChange = "2024-07-19 06:05:23 +0000";
layers = (
{
anchors = (
{
name = _top;
pos = (51,307);
}
);
hints = (
{
horizontal = 1;
place = (276,103);
type = Stem;
},
{
place = (-28,54);
type = Stem;
}
);
layerId = m01;
shapes = (
{
closed = 1;
nodes = (
(101,378,l),
(76,378,l),
(76,327,l),
(101,327,l)
);
},
{
closed = 1;
nodes = (
(25,404,l),
(0,404,l),
(0,353,l),
(25,353,l)
);
}
);
width = 101;
},
{
anchors = (
{
name = _top;
pos = (51,307);
}
);
hints = (
{
horizontal = 1;
place = (276,103);
type = Stem;
},
{
place = (-28,54);
type = Stem;
}
);
layerId = "9037C244-7DB9-46F9-B5BF-70F624EA3C1F";
shapes = (
{
closed = 1;
nodes = (
(101,358,ls),
(101,371,o),
(96,378,o),
(89,378,cs),
(89,378,ls),
(81,378,o),
(76,371,o),
(76,358,cs),
(76,347,ls),
(76,334,o),
(81,327,o),
(89,327,cs),
(89,327,ls),
(97,327,o),
(101,334,o),
(101,347,cs)
);
},
{
closed = 1;
nodes = (
(25,384,ls),
(25,397,o),
(20,404,o),
(13,404,cs),
(13,404,ls),
(5,404,o),
(0,397,o),
(0,384,cs),
(0,373,ls),
(0,360,o),
(5,353,o),
(13,353,cs),
(13,353,ls),
(21,353,o),
(25,360,o),
(25,373,cs)
);
}
);
width = 101;
}
);
note = uni0735;
unicode = 1845;
},
{
glyphname = uni0736;
lastChange = "2024-07-19 06:05:23 +0000";
layers = (
{
anchors = (
{
name = _top;
pos = (51,269);
}
);
hints = (
{
horizontal = 1;
place = (337,17);
type = Stem;
},
{
place = (37,19);
type = Stem;
}
);
layerId = m01;
shapes = (
{
closed = 1;
nodes = (
(101,289,l),
(101,354,l),
(0,354,l),
(0,289,l),
(25,289,l),
(25,329,l),
(42,329,l),
(42,294,l),
(59,294,l),
(59,329,l),
(76,329,l),
(76,289,l)
);
}
);
width = 101;
},
{
anchors = (
{
name = _top;
pos = (51,269);
}
);
hints = (
{
horizontal = 1;
place = (337,17);
type = Stem;
},
{
place = (37,19);
type = Stem;
}
);
layerId = "9037C244-7DB9-46F9-B5BF-70F624EA3C1F";
shapes = (
{
closed = 1;
nodes = (
(89,289,ls),
(96,289,o),
(101,296,o),
(101,309,cs),
(101,334,ls),
(101,347,o),
(94,354,o),
(81,354,cs),
(20,354,ls),
(7,354,o),
(0,347,o),
(0,334,cs),
(0,309,ls),
(0,296,o),
(5,289,o),
(13,289,cs),
(13,289,ls),
(21,289,o),
(25,296,o),
(25,309,cs),
(25,329,l),
(42,329,l),
(42,314,ls),
(42,301,o),
(46,294,o),
(51,294,cs),
(51,294,ls),
(56,294,o),
(59,301,o),
(59,314,cs),
(59,329,l),
(76,329,l),
(76,309,ls),
(76,296,o),
(81,289,o),
(89,289,cs)
);
}
);
width = 101;
}
);
note = uni0736;
unicode = 1846;
},
{
glyphname = uni0737;
lastChange = "2024-07-19 06:05:23 +0000";
layers = (
{
anchors = (
{
name = _bottom;
pos = (51,12);
}
);
hints = (
{
horizontal = 1;
place = (-83,17);
type = Stem;
},
{
horizontal = 1;
place = (-3,21);
target = up;
type = BottomGhost;
},
{
place = (-55,18);
type = Stem;
}
);
layerId = m01;
shapes = (
{
closed = 1;
nodes = (
(76,-40,l),
(59,-40,l),
(59,-5,l),
(42,-5,l),
(42,-40,l),
(25,-40,l),
(25,0,l),
(0,0,l),
(0,-65,l),
(101,-65,l),
(101,0,l),
(76,0,l)
);
}
);
width = 101;
},
{
anchors = (
{
name = _bottom;
pos = (51,12);
}
);
hints = (
{
horizontal = 1;
place = (-83,17);
type = Stem;
},
{
horizontal = 1;
place = (-3,21);
target = up;
type = BottomGhost;
},
{
place = (-55,18);
type = Stem;
}
);
layerId = "9037C244-7DB9-46F9-B5BF-70F624EA3C1F";
shapes = (
{
closed = 1;
nodes = (
(76,-40,l),
(59,-40,l),
(59,-25,ls),
(59,-12,o),
(56,-5,o),
(51,-5,cs),
(51,-5,ls),
(46,-5,o),
(42,-12,o),
(42,-25,cs),
(42,-40,l),
(25,-40,l),
(25,-20,ls),
(25,-7,o),
(20,0,o),
(13,0,cs),
(13,0,ls),
(5,0,o),
(0,-7,o),
(0,-20,cs),
(0,-45,ls),
(0,-58,o),
(7,-65,o),
(20,-65,cs),
(81,-65,ls),
(94,-65,o),
(101,-58,o),
(101,-45,cs),
(101,-20,ls),
(101,-7,o),
(96,0,o),
(89,0,cs),
(89,0,ls),
(81,0,o),
(76,-7,o),
(76,-20,cs)
);
}
);
width = 101;
}
);
note = uni0737;
unicode = 1847;
},
{
glyphname = uni0738;
kernLeft = "1";
kernRight = "1";
lastChange = "2024-07-19 06:05:23 +0000";
layers = (
{
anchors = (
{
name = _bottom;
pos = (51,13);
}
);
hints = (
{
horizontal = 1;
place = (-60,56);
type = Stem;
},
{
place = (-44,88);
type = Stem;
}
);
layerId = m01;
shapes = (
{
closed = 1;
nodes = (
(25,-7,l),
(0,-7,l),
(0,-58,l),
(25,-58,l)
);
},
{
closed = 1;
nodes = (
(101,-7,l),
(76,-7,l),
(76,-58,l),
(101,-58,l)
);
}
);
width = 101;
},
{
anchors = (
{
name = _bottom;
pos = (51,13);
}
);
hints = (
{
horizontal = 1;
place = (-60,56);
type = Stem;
},
{
place = (-44,88);
type = Stem;
}
);
layerId = "9037C244-7DB9-46F9-B5BF-70F624EA3C1F";
shapes = (
{
closed = 1;
nodes = (
(25,-27,ls),
(25,-14,o),
(20,-7,o),
(13,-7,cs),
(13,-7,ls),
(5,-7,o),
(0,-14,o),
(0,-27,cs),
(0,-38,ls),
(0,-51,o),
(5,-58,o),
(13,-58,cs),
(13,-58,ls),
(21,-58,o),
(25,-51,o),
(25,-38,cs)
);
},
{
closed = 1;
nodes = (
(101,-27,ls),
(101,-14,o),
(96,-7,o),
(89,-7,cs),
(89,-7,ls),
(81,-7,o),
(76,-14,o),
(76,-27,cs),
(76,-38,ls),
(76,-51,o),
(81,-58,o),
(89,-58,cs),
(89,-58,ls),
(97,-58,o),
(101,-51,o),
(101,-38,cs)
);
}
);
width = 101;
}
);
note = uni0738;
unicode = 1848;
},
{
glyphname = uni0739;
kernLeft = "1";
kernRight = "1";
lastChange = "2024-07-19 06:05:23 +0000";
layers = (
{
anchors = (
{
name = _bottom;
pos = (51,16);
}
);
hints = (
{
horizontal = 1;
place = (-83,79);
type = Stem;
},
{
place = (-46,90);
type = Stem;
}
);
layerId = m01;
shapes = (
{
closed = 1;
nodes = (
(25,-81,l),
(25,-30,l),
(0,-30,l),
(0,-81,l)
);
},
{
closed = 1;
nodes = (
(101,-55,l),
(101,-4,l),
(76,-4,l),
(76,-55,l)
);
}
);
width = 101;
},
{
anchors = (
{
name = _bottom;
pos = (51,16);
}
);
hints = (
{
horizontal = 1;
place = (-83,79);
type = Stem;
},
{
place = (-46,90);
type = Stem;
}
);
layerId = "9037C244-7DB9-46F9-B5BF-70F624EA3C1F";
shapes = (
{
closed = 1;
nodes = (
(13,-81,ls),
(20,-81,o),
(25,-74,o),
(25,-61,cs),
(25,-50,ls),
(25,-37,o),
(20,-30,o),
(13,-30,cs),
(13,-30,ls),
(5,-30,o),
(0,-37,o),
(0,-50,cs),
(0,-61,ls),
(0,-74,o),
(5,-81,o),
(13,-81,cs)
);
},
{
closed = 1;
nodes = (
(89,-55,ls),
(96,-55,o),
(101,-48,o),
(101,-35,cs),
(101,-24,ls),
(101,-11,o),
(96,-4,o),
(89,-4,cs),
(89,-4,ls),
(81,-4,o),
(76,-11,o),
(76,-24,cs),
(76,-35,ls),
(76,-48,o),
(81,-55,o),
(89,-55,cs)
);
}
);
width = 101;
}
);
note = uni0739;
unicode = 1849;
},
{
glyphname = uni073A;
lastChange = "2024-07-19 06:05:23 +0000";
layers = (
{
anchors = (
{
name = _top;
pos = (51,212);
}
);
hints = (
{
horizontal = 1;
place = (362,-20);
target = down;
type = TopGhost;
},
{
horizontal = 1;
place = (279,-20);
target = down;
type = TopGhost;
},
{
place = (-58,113);
type = Stem;
}
);
layerId = m01;
shapes = (
{
closed = 1;
nodes = (
(63,257,l),
(63,274,l),
(101,274,l),
(101,299,l),
(0,299,l),
(0,274,l),
(38,274,l),
(38,257,l),
(0,257,l),
(0,232,l),
(101,232,l),
(101,257,l)
);
}
);
width = 101;
},
{
anchors = (
{
name = _top;
pos = (51,212);
}
);
hints = (
{
horizontal = 1;
place = (362,-20);
target = down;
type = TopGhost;
},
{
horizontal = 1;
place = (279,-20);
target = down;
type = TopGhost;
},
{
place = (-58,113);
type = Stem;
}
);
layerId = "9037C244-7DB9-46F9-B5BF-70F624EA3C1F";
shapes = (
{
closed = 1;
nodes = (
(63,257,l),
(63,274,l),
(81,274,ls),
(94,274,o),
(101,279,o),
(101,287,cs),
(101,287,ls),
(101,295,o),
(94,299,o),
(81,299,cs),
(20,299,ls),
(7,299,o),
(0,294,o),
(0,287,cs),
(0,287,ls),
(0,279,o),
(7,274,o),
(20,274,cs),
(38,274,l),
(38,257,l),
(20,257,ls),
(7,257,o),
(0,252,o),
(0,245,cs),
(0,245,ls),
(0,237,o),
(7,232,o),
(20,232,cs),
(81,232,ls),
(94,232,o),
(101,237,o),
(101,245,cs),
(101,245,ls),
(101,253,o),
(94,257,o),
(82,257,cs)
);
}
);
width = 101;
}
);
note = uni073A;
unicode = 1850;
},
{
glyphname = uni073B;
lastChange = "2024-07-19 06:05:23 +0000";
layers = (
{
anchors = (
{
name = _bottom;
pos = (51,20);
}
);
hints = (
{
horizontal = 1;
place = (-8,21);
target = up;
type = BottomGhost;
},
{
place = (-55,114);
type = Stem;
}
);
layerId = m01;
shapes = (
{
closed = 1;
nodes = (
(63,-42,l),
(63,-25,l),
(101,-25,l),
(101,0,l),
(0,0,l),
(0,-25,l),
(38,-25,l),
(38,-42,l),
(0,-42,l),
(0,-67,l),
(101,-67,l),
(101,-42,l)
);
}
);
width = 101;
},
{
anchors = (
{
name = _bottom;
pos = (51,20);
}
);
hints = (
{
horizontal = 1;
place = (-8,21);
target = up;
type = BottomGhost;
},
{
place = (-55,114);
type = Stem;
}
);
layerId = "9037C244-7DB9-46F9-B5BF-70F624EA3C1F";
shapes = (
{
closed = 1;
nodes = (
(63,-42,l),
(63,-25,l),
(81,-25,ls),
(94,-25,o),
(101,-20,o),
(101,-13,cs),
(101,-13,ls),
(101,-5,o),
(94,0,o),
(81,0,cs),
(20,0,ls),
(7,0,o),
(0,-5,o),
(0,-13,cs),
(0,-13,ls),
(0,-21,o),
(7,-25,o),
(20,-25,cs),
(38,-25,l),
(38,-42,l),
(20,-42,ls),
(7,-42,o),
(0,-47,o),
(0,-55,cs),
(0,-55,ls),
(0,-63,o),
(7,-67,o),
(20,-67,cs),
(81,-67,ls),
(94,-67,o),
(101,-62,o),
(101,-55,cs),
(101,-55,ls),
(101,-47,o),
(94,-42,o),
(82,-42,cs)
);
}
);
width = 101;
}
);
note = uni073B;
unicode = 1851;
},
{
glyphname = uni073C;
kernLeft = "1";
kernRight = "1";
lastChange = "2024-07-19 06:05:23 +0000";
layers = (
{
anchors = (
{
name = _bottom;
pos = (14,10);
}
);
hints = (
{
horizontal = 1;
place = (-60,56);
type = Stem;
},
{
place = (-17,34);
type = Stem;
}
);
layerId = m01;
shapes = (
{
closed = 1;
nodes = (
(26,-10,l),
(1,-10,l),
(1,-61,l),
(26,-61,l)
);
}
);
width = 27;
},
{
anchors = (
{
name = _bottom;
pos = (14,10);
}
);
hints = (
{
horizontal = 1;
place = (-60,56);
type = Stem;
},
{
place = (-17,34);
type = Stem;
}
);
layerId = "9037C244-7DB9-46F9-B5BF-70F624EA3C1F";
shapes = (
{
closed = 1;
nodes = (
(26,-30,ls),
(26,-17,o),
(21,-10,o),
(14,-10,cs),
(14,-10,ls),
(6,-10,o),
(1,-17,o),
(1,-30,cs),
(1,-41,ls),
(1,-54,o),
(6,-61,o),
(14,-61,cs),
(14,-61,ls),
(22,-61,o),
(26,-54,o),
(26,-41,cs)
);
}
);
width = 27;
}
);
note = uni073C;
unicode = 1852;
},
{
glyphname = uni073D;
lastChange = "2024-07-19 06:05:23 +0000";
layers = (
{
anchors = (
{
name = _top;
pos = (58,249);
}
);
hints = (
{
horizontal = 1;
place = (271,33);
type = Stem;
},
{
place = (-15,30);
type = Stem;
}
);
layerId = m01;
shapes = (
{
closed = 1;
nodes = (
(0,352,l),
(0,327,l),
(58,327,l),
(58,269,l),
(83,269,l),
(83,327,l),
(108,327,l),
(108,351,l)
);
},
{
closed = 1;
nodes = (
(40,287,l),
(40,309,l),
(18,309,l),
(18,287,l)
);
}
);
width = 108;
},
{
anchors = (
{
name = _top;
pos = (58,249);
}
);
hints = (
{
horizontal = 1;
place = (271,33);
type = Stem;
},
{
place = (-15,30);
type = Stem;
}
);
layerId = "9037C244-7DB9-46F9-B5BF-70F624EA3C1F";
shapes = (
{
closed = 1;
nodes = (
(20,352,ls),
(7,352,o),
(0,347,o),
(0,340,cs),
(0,340,ls),
(0,332,o),
(7,327,o),
(20,327,cs),
(58,327,l),
(58,289,ls),
(58,276,o),
(63,269,o),
(71,269,cs),
(71,269,ls),
(79,269,o),
(83,276,o),
(83,289,cs),
(83,327,l),
(88,327,ls),
(101,327,o),
(108,332,o),
(108,339,cs),
(108,339,ls),
(108,346,o),
(101,351,o),
(88,351,cs)
);
},
{
closed = 1;
nodes = (
(29,287,ls),
(36,287,o),
(40,291,o),
(40,298,cs),
(40,298,ls),
(40,305,o),
(36,309,o),
(29,309,cs),
(29,309,ls),
(22,309,o),
(18,305,o),
(18,298,cs),
(18,298,ls),
(18,291,o),
(22,287,o),
(29,287,cs)
);
}
);
width = 108;
}
);
note = uni073D;
unicode = 1853;
},
{
glyphname = uni073E;
lastChange = "2024-07-19 06:05:23 +0000";
layers = (
{
anchors = (
{
name = _bottom;
pos = (50,20);
}
);
hints = (
{
horizontal = 1;
place = (-33,33);
type = Stem;
},
{
place = (-14,30);
type = Stem;
}
);
layerId = m01;
shapes = (
{
closed = 1;
nodes = (
(108,-83,l),
(108,-58,l),
(50,-58,l),
(50,0,l),
(25,0,l),
(25,-58,l),
(0,-58,l),
(0,-82,l)
);
},
{
closed = 1;
nodes = (
(68,-18,l),
(68,-40,l),
(90,-40,l),
(90,-18,l)
);
}
);
width = 108;
},
{
anchors = (
{
name = _bottom;
pos = (50,20);
}
);
hints = (
{
horizontal = 1;
place = (-33,33);
type = Stem;
},
{
place = (-14,30);
type = Stem;
}
);
layerId = "9037C244-7DB9-46F9-B5BF-70F624EA3C1F";
shapes = (
{
closed = 1;
nodes = (
(88,-83,ls),
(101,-83,o),
(108,-78,o),
(108,-71,cs),
(108,-71,ls),
(108,-63,o),
(101,-58,o),
(88,-58,cs),
(50,-58,l),
(50,-20,ls),
(50,-7,o),
(45,0,o),
(38,0,cs),
(38,0,ls),
(30,0,o),
(25,-7,o),
(25,-20,cs),
(25,-58,l),
(20,-58,ls),
(7,-58,o),
(0,-63,o),
(0,-70,cs),
(0,-70,ls),
(0,-77,o),
(7,-82,o),
(20,-82,cs)
);
},
{
closed = 1;
nodes = (
(79,-18,ls),
(72,-18,o),
(68,-22,o),
(68,-29,cs),
(68,-29,ls),
(68,-36,o),
(72,-40,o),
(79,-40,cs),
(79,-40,ls),
(86,-40,o),
(90,-36,o),
(90,-29,cs),
(90,-29,ls),
(90,-22,o),
(86,-18,o),
(79,-18,cs)
);
}
);
width = 108;
}
);
note = uni073E;
unicode = 1854;
},
{
glyphname = uni073F;
kernLeft = "1";
kernRight = "1";
lastChange = "2024-07-19 06:05:23 +0000";
layers = (
{
anchors = (
{
name = _top;
pos = (14,257);
}
);
hints = (
{
horizontal = 1;
place = (275,56);
type = Stem;
},
{
place = (-18,35);
type = Stem;
}
);
layerId = m01;
shapes = (
{
closed = 1;
nodes = (
(26,334,l),
(1,334,l),
(1,283,l),
(26,283,l)
);
}
);
width = 27;
},
{
anchors = (
{
name = _top;
pos = (14,257);
}
);
hints = (
{
horizontal = 1;
place = (275,56);
type = Stem;
},
{
place = (-18,35);
type = Stem;
}
);
layerId = "9037C244-7DB9-46F9-B5BF-70F624EA3C1F";
shapes = (
{
closed = 1;
nodes = (
(26,314,ls),
(26,327,o),
(21,334,o),
(14,334,cs),
(14,334,ls),
(6,334,o),
(1,327,o),
(1,314,cs),
(1,303,ls),
(1,290,o),
(6,283,o),
(14,283,cs),
(14,283,ls),
(22,283,o),
(26,290,o),
(26,303,cs)
);
}
);
width = 27;
}
);
note = uni073F;
unicode = 1855;
},
{
glyphname = uni0740;
lastChange = "2024-07-19 06:05:23 +0000";
layers = (
{
anchors = (
{
name = _top;
pos = (-174,118);
}
);
hints = (
{
horizontal = 1;
place = (168,57);
type = Stem;
},
{
place = (-199,51);
type = Stem;
}
);
layerId = m01;
shapes = (
{
closed = 1;
nodes = (
(-148,229,l),
(-148,279,l),
(-198,279,l),
(-198,229,l)
);
}
);
width = 0;
},
{
anchors = (
{
name = _top;
pos = (-174,118);
}
);
hints = (
{
horizontal = 1;
place = (168,57);
type = Stem;
},
{
place = (-199,51);
type = Stem;
}
);
layerId = "9037C244-7DB9-46F9-B5BF-70F624EA3C1F";
shapes = (
{
closed = 1;
nodes = (
(-168,229,ls),
(-155,229,o),
(-148,236,o),
(-148,249,cs),
(-148,259,ls),
(-148,272,o),
(-155,279,o),
(-168,279,cs),
(-178,279,ls),
(-191,279,o),
(-198,272,o),
(-198,259,cs),
(-198,249,ls),
(-198,236,o),
(-191,229,o),
(-178,229,cs)
);
}
);
width = 0;
}
);
note = uni0740;
unicode = 1856;
},
{
glyphname = uni0741;
lastChange = "2024-07-19 06:05:23 +0000";
layers = (
{
anchors = (
{
name = _top;
pos = (27,333);
}
);
hints = (
{
horizontal = 1;
place = (279,35);
type = Stem;
},
{
place = (-29,31);
type = Stem;
}
);
layerId = m01;
shapes = (
{
closed = 1;
nodes = (
(52,404,l),
(1,404,l),
(1,353,l),
(52,353,l)
);
}
);
width = 53;
},
{
anchors = (
{
name = _top;
pos = (27,333);
}
);
hints = (
{
horizontal = 1;
place = (279,35);
type = Stem;
},
{
place = (-29,31);
type = Stem;
}
);
layerId = "9037C244-7DB9-46F9-B5BF-70F624EA3C1F";
shapes = (
{
closed = 1;
nodes = (
(52,384,ls),
(52,397,o),
(45,404,o),
(32,404,cs),
(21,404,ls),
(8,404,o),
(1,397,o),
(1,384,cs),
(1,373,ls),
(1,360,o),
(8,353,o),
(21,353,cs),
(32,353,ls),
(45,353,o),
(52,360,o),
(52,373,cs)
);
}
);
width = 53;
}
);
note = uni0741;
unicode = 1857;
},
{
glyphname = uni0742;
kernLeft = "1";
kernRight = "1";
lastChange = "2024-07-19 06:05:23 +0000";
layers = (
{
anchors = (
{
name = _bottom;
pos = (26,3);
}
);
hints = (
{
horizontal = 1;
place = (-48,35);
type = Stem;
},
{
place = (-16,32);
type = Stem;
}
);
layerId = m01;
shapes = (
{
closed = 1;
nodes = (
(52,-18,l),
(1,-18,l),
(1,-69,l),
(52,-69,l)
);
}
);
width = 53;
},
{
anchors = (
{
name = _bottom;
pos = (26,3);
}
);
hints = (
{
horizontal = 1;
place = (-48,35);
type = Stem;
},
{
place = (-16,32);
type = Stem;
}
);
layerId = "9037C244-7DB9-46F9-B5BF-70F624EA3C1F";
shapes = (
{
closed = 1;
nodes = (
(52,-38,ls),
(52,-25,o),
(45,-18,o),
(32,-18,cs),
(21,-18,ls),
(8,-18,o),
(1,-25,o),
(1,-38,cs),
(1,-49,ls),
(1,-62,o),
(8,-69,o),
(21,-69,cs),
(32,-69,ls),
(45,-69,o),
(52,-62,o),
(52,-49,cs)
);
}
);
width = 53;
}
);
note = uni0742;
unicode = 1858;
},
{
glyphname = uni0743;
lastChange = "2024-07-19 06:05:23 +0000";
layers = (
{
anchors = (
{
name = _top;
pos = (25,221);
}
);
hints = (
{
horizontal = 1;
place = (333,42);
type = Stem;
},
{
horizontal = 1;
place = (271,42);
type = Stem;
},
{
place = (-19,38);
type = Stem;
}
);
layerId = m01;
shapes = (
{
closed = 1;
nodes = (
(51,352,l),
(51,402,l),
(1,402,l),
(1,352,l)
);
},
{
closed = 1;
nodes = (
(51,277,l),
(51,327,l),
(1,327,l),
(1,277,l)
);
}
);
width = 52;
},
{
anchors = (
{
name = _top;
pos = (25,221);
}
);
hints = (
{
horizontal = 1;
place = (333,42);
type = Stem;
},
{
horizontal = 1;
place = (271,42);
type = Stem;
},
{
place = (-19,38);
type = Stem;
}
);
layerId = "9037C244-7DB9-46F9-B5BF-70F624EA3C1F";
shapes = (
{
closed = 1;
nodes = (
(31,352,ls),
(44,352,o),
(51,359,o),
(51,372,cs),
(51,382,ls),
(51,395,o),
(44,402,o),
(31,402,cs),
(21,402,ls),
(8,402,o),
(1,395,o),
(1,382,cs),
(1,372,ls),
(1,359,o),
(8,352,o),
(21,352,cs)
);
},
{
closed = 1;
nodes = (
(31,277,ls),
(44,277,o),
(51,284,o),
(51,297,cs),
(51,307,ls),
(51,320,o),
(44,327,o),
(31,327,cs),
(21,327,ls),
(8,327,o),
(1,320,o),
(1,307,cs),
(1,297,ls),
(1,284,o),
(8,277,o),
(21,277,cs)
);
}
);
width = 52;
}
);
note = uni0743;
unicode = 1859;
},
{
glyphname = uni0744;
lastChange = "2024-07-19 06:05:23 +0000";
layers = (
{
anchors = (
{
name = _bottom;
pos = (25,50);
}
);
hints = (
{
horizontal = 1;
place = (-41,41);
type = Stem;
},
{
horizontal = 1;
place = (-103,41);
type = Stem;
},
{
place = (-19,38);
type = Stem;
}
);
layerId = m01;
shapes = (
{
closed = 1;
nodes = (
(51,-51,l),
(51,-1,l),
(1,-1,l),
(1,-51,l)
);
},
{
closed = 1;
nodes = (
(51,-126,l),
(51,-76,l),
(1,-76,l),
(1,-126,l)
);
}
);
width = 52;
},
{
anchors = (
{
name = _bottom;
pos = (25,50);
}
);
hints = (
{
horizontal = 1;
place = (-41,41);
type = Stem;
},
{
horizontal = 1;
place = (-103,41);
type = Stem;
},
{
place = (-19,38);
type = Stem;
}
);
layerId = "9037C244-7DB9-46F9-B5BF-70F624EA3C1F";
shapes = (
{
closed = 1;
nodes = (
(31,-51,ls),
(44,-51,o),
(51,-44,o),
(51,-31,cs),
(51,-21,ls),
(51,-8,o),
(44,-1,o),
(31,-1,cs),
(21,-1,ls),
(8,-1,o),
(1,-8,o),
(1,-21,cs),
(1,-31,ls),
(1,-44,o),
(8,-51,o),
(21,-51,cs)
);
},
{
closed = 1;
nodes = (
(31,-126,ls),
(44,-126,o),
(51,-119,o),
(51,-106,cs),
(51,-96,ls),
(51,-83,o),
(44,-76,o),
(31,-76,cs),
(21,-76,ls),
(8,-76,o),
(1,-83,o),
(1,-96,cs),
(1,-106,ls),
(1,-119,o),
(8,-126,o),
(21,-126,cs)
);
}
);
width = 52;
}
);
note = uni0744;
unicode = 1860;
},
{
glyphname = uni0745;
lastChange = "2024-07-19 06:05:23 +0000";
layers = (
{
anchors = (
{
name = _top;
pos = (0,221);
}
);
hints = (
{
horizontal = 1;
place = (333,42);
type = Stem;
},
{
horizontal = 1;
place = (271,42);
type = Stem;
},
{
place = (16,37);
type = Stem;
},
{
place = (-19,38);
type = Stem;
},
{
place = (-53,38);
type = Stem;
}
);
layerId = m01;
shapes = (
{
closed = 1;
nodes = (
(-26,277,l),
(-26,327,l),
(-76,327,l),
(-76,277,l)
);
},
{
closed = 1;
nodes = (
(74,277,l),
(74,327,l),
(24,327,l),
(24,277,l)
);
},
{
closed = 1;
nodes = (
(24,352,l),
(24,402,l),
(-26,402,l),
(-26,352,l)
);
}
);
width = 0;
},
{
anchors = (
{
name = _top;
pos = (0,221);
}
);
hints = (
{
horizontal = 1;
place = (333,42);
type = Stem;
},
{
horizontal = 1;
place = (271,42);
type = Stem;
},
{
place = (16,37);
type = Stem;
},
{
place = (-19,38);
type = Stem;
},
{
place = (-53,38);
type = Stem;
}
);
layerId = "9037C244-7DB9-46F9-B5BF-70F624EA3C1F";
shapes = (
{
closed = 1;
nodes = (
(-46,277,ls),
(-33,277,o),
(-26,284,o),
(-26,297,cs),
(-26,307,ls),
(-26,320,o),
(-33,327,o),
(-46,327,cs),
(-56,327,ls),
(-69,327,o),
(-76,320,o),
(-76,307,cs),
(-76,297,ls),
(-76,284,o),
(-69,277,o),
(-56,277,cs)
);
},
{
closed = 1;
nodes = (
(54,277,ls),
(67,277,o),
(74,284,o),
(74,297,cs),
(74,307,ls),
(74,320,o),
(67,327,o),
(54,327,cs),
(44,327,ls),
(31,327,o),
(24,320,o),
(24,307,cs),
(24,297,ls),
(24,284,o),
(31,277,o),
(44,277,cs)
);
},
{
closed = 1;
nodes = (
(4,352,ls),
(17,352,o),
(24,359,o),
(24,372,cs),
(24,382,ls),
(24,395,o),
(17,402,o),
(4,402,cs),
(-6,402,ls),
(-19,402,o),
(-26,395,o),
(-26,382,cs),
(-26,372,ls),
(-26,359,o),
(-19,352,o),
(-6,352,cs)
);
}
);
width = 0;
}
);
note = uni0745;
unicode = 1861;
},
{
glyphname = uni0746;
lastChange = "2024-07-19 06:05:23 +0000";
layers = (
{
anchors = (
{
name = _bottom;
pos = (0,50);
}
);
hints = (
{
horizontal = 1;
place = (-41,41);
type = Stem;
},
{
horizontal = 1;
place = (-103,41);
type = Stem;
},
{
place = (16,37);
type = Stem;
},
{
place = (-19,38);
type = Stem;
},
{
place = (-53,38);
type = Stem;
}
);
layerId = m01;
shapes = (
{
closed = 1;
nodes = (
(-76,-53,l),
(-26,-53,l),
(-26,-3,l),
(-76,-3,l)
);
},
{
closed = 1;
nodes = (
(24,-53,l),
(74,-53,l),
(74,-3,l),
(24,-3,l)
);
},
{
closed = 1;
nodes = (
(-26,-128,l),
(24,-128,l),
(24,-78,l),
(-26,-78,l)
);
}
);
width = 0;
},
{
anchors = (
{
name = _bottom;
pos = (0,50);
}
);
hints = (
{
horizontal = 1;
place = (-41,41);
type = Stem;
},
{
horizontal = 1;
place = (-103,41);
type = Stem;
},
{
place = (16,37);
type = Stem;
},
{
place = (-19,38);
type = Stem;
},
{
place = (-53,38);
type = Stem;
}
);
layerId = "9037C244-7DB9-46F9-B5BF-70F624EA3C1F";
shapes = (
{
closed = 1;
nodes = (
(-76,-33,ls),
(-76,-46,o),
(-69,-53,o),
(-56,-53,cs),
(-46,-53,ls),
(-33,-53,o),
(-26,-46,o),
(-26,-33,cs),
(-26,-23,ls),
(-26,-10,o),
(-33,-3,o),
(-46,-3,cs),
(-56,-3,ls),
(-69,-3,o),
(-76,-10,o),
(-76,-23,cs)
);
},
{
closed = 1;
nodes = (
(24,-33,ls),
(24,-46,o),
(31,-53,o),
(44,-53,cs),
(54,-53,ls),
(67,-53,o),
(74,-46,o),
(74,-33,cs),
(74,-23,ls),
(74,-10,o),
(67,-3,o),
(54,-3,cs),
(44,-3,ls),
(31,-3,o),
(24,-10,o),
(24,-23,cs)
);
},
{
closed = 1;
nodes = (
(-26,-108,ls),
(-26,-121,o),
(-19,-128,o),
(-6,-128,cs),
(4,-128,ls),
(17,-128,o),
(24,-121,o),
(24,-108,cs),
(24,-98,ls),
(24,-85,o),
(17,-78,o),
(4,-78,cs),
(-6,-78,ls),
(-19,-78,o),
(-26,-85,o),
(-26,-98,cs)
);
}
);
width = 0;
}
);
note = uni0746;
unicode = 1862;
},
{
glyphname = uni0747;
lastChange = "2024-07-19 06:05:23 +0000";
layers = (
{
anchors = (
{
name = _top;
pos = (50,248);
},
{
name = top;
pos = (50,345);
}
);
hints = (
{
horizontal = 1;
place = (277,-20);
target = down;
type = TopGhost;
},
{
place = (-56,107);
type = Stem;
}
);
layerId = m01;
shapes = (
{
closed = 1;
nodes = (
(101,298,l),
(101,323,l),
(0,323,l),
(0,298,l)
);
}
);
width = 101;
},
{
anchors = (
{
name = _top;
pos = (50,248);
},
{
name = top;
pos = (50,345);
}
);
hints = (
{
horizontal = 1;
place = (277,-20);
target = down;
type = TopGhost;
},
{
place = (-56,107);
type = Stem;
}
);
layerId = "9037C244-7DB9-46F9-B5BF-70F624EA3C1F";
shapes = (
{
closed = 1;
nodes = (
(81,298,ls),
(94,298,o),
(101,303,o),
(101,311,cs),
(101,311,ls),
(101,319,o),
(94,323,o),
(81,323,cs),
(20,323,ls),
(7,323,o),
(0,318,o),
(0,311,cs),
(0,311,ls),
(0,303,o),
(7,298,o),
(20,298,cs)
);
}
);
width = 101;
}
);
note = uni0747;
unicode = 1863;
},
{
glyphname = uni0748;
lastChange = "2024-07-19 06:05:23 +0000";
layers = (
{
anchors = (
{
name = _bottom;
pos = (50,20);
},
{
name = bottom;
pos = (50,-45);
}
);
hints = (
{
horizontal = 1;
place = (-6,21);
target = up;
type = BottomGhost;
},
{
place = (-56,107);
type = Stem;
}
);
layerId = m01;
shapes = (
{
closed = 1;
nodes = (
(101,-25,l),
(101,0,l),
(0,0,l),
(0,-25,l)
);
}
);
width = 101;
},
{
anchors = (
{
name = _bottom;
pos = (50,20);
},
{
name = bottom;
pos = (50,-45);
}
);
hints = (
{
horizontal = 1;
place = (-6,21);
target = up;
type = BottomGhost;
},
{
place = (-56,107);
type = Stem;
}
);
layerId = "9037C244-7DB9-46F9-B5BF-70F624EA3C1F";
shapes = (
{
closed = 1;
nodes = (
(81,-25,ls),
(94,-25,o),
(101,-20,o),
(101,-13,cs),
(101,-13,ls),
(101,-5,o),
(94,0,o),
(81,0,cs),
(20,0,ls),
(7,0,o),
(0,-5,o),
(0,-13,cs),
(0,-13,ls),
(0,-21,o),
(7,-25,o),
(20,-25,cs)
);
}
);
width = 101;
}
);
note = uni0748;
unicode = 1864;
},
{
glyphname = uni0749;
lastChange = "2024-07-19 06:05:23 +0000";
layers = (
{
anchors = (
{
name = _top;
pos = (50,306);
}
);
hints = (
{
horizontal = 1;
place = (365,-20);
target = down;
type = TopGhost;
},
{
horizontal = 1;
place = (358,-20);
target = down;
type = TopGhost;
},
{
horizontal = 1;
place = (277,-20);
target = down;
type = TopGhost;
},
{
place = (-86,174);
type = Stem;
}
);
layerId = m01;
shapes = (
{
closed = 1;
nodes = (
(26,347,l),
(26,360,l),
(20,360,l),
(20,347,l),
(0,347,l),
(0,340,l),
(20,340,l),
(20,326,l),
(26,326,l),
(26,340,l),
(33,340,l),
(33,326,l),
(40,326,l),
(40,340,l),
(47,340,l),
(47,326,l),
(53,326,l),
(53,340,l),
(60,340,l),
(60,326,l),
(67,326,l),
(67,340,l),
(74,340,l),
(74,326,l),
(80,326,l),
(80,340,l),
(101,340,l),
(101,347,l),
(80,347,l),
(80,360,l),
(74,360,l),
(74,347,l),
(67,347,l),
(67,360,l),
(60,360,l),
(60,347,l),
(53,347,l),
(53,360,l),
(47,360,l),
(47,347,l),
(40,347,l),
(40,360,l),
(33,360,l),
(33,347,l)
);
}
);
width = 101;
},
{
anchors = (
{
name = _top;
pos = (50,306);
}
);
hints = (
{
horizontal = 1;
place = (365,-20);
target = down;
type = TopGhost;
},
{
horizontal = 1;
place = (358,-20);
target = down;
type = TopGhost;
},
{
horizontal = 1;
place = (277,-20);
target = down;
type = TopGhost;
},
{
place = (-86,174);
type = Stem;
}
);
layerId = "9037C244-7DB9-46F9-B5BF-70F624EA3C1F";
shapes = (
{
closed = 1;
nodes = (
(26,347,l),
(26,347,ls),
(26,355,o),
(25,360,o),
(23,360,cs),
(23,360,ls),
(21,360,o),
(20,355,o),
(20,347,cs),
(20,347,l),
(20,347,ls),
(7,347,o),
(0,346,o),
(0,344,cs),
(0,344,ls),
(0,342,o),
(7,340,o),
(20,340,cs),
(20,340,l),
(20,340,ls),
(20,331,o),
(21,326,o),
(23,326,cs),
(23,326,ls),
(25,326,o),
(26,331,o),
(26,340,cs),
(26,340,l),
(33,340,l),
(33,340,ls),
(33,331,o),
(35,326,o),
(37,326,cs),
(37,326,ls),
(39,326,o),
(40,331,o),
(40,340,cs),
(40,340,l),
(47,340,l),
(47,340,ls),
(47,331,o),
(48,326,o),
(50,326,cs),
(50,326,ls),
(52,326,o),
(53,331,o),
(53,340,cs),
(53,340,l),
(60,340,l),
(60,340,ls),
(60,331,o),
(62,326,o),
(64,326,cs),
(64,326,ls),
(66,326,o),
(67,331,o),
(67,340,cs),
(67,340,l),
(74,340,l),
(74,340,ls),
(74,331,o),
(75,326,o),
(77,326,cs),
(77,326,ls),
(79,326,o),
(80,331,o),
(80,340,cs),
(80,340,l),
(81,340,ls),
(94,340,o),
(101,342,o),
(101,344,cs),
(101,344,ls),
(101,346,o),
(94,347,o),
(81,347,cs),
(80,347,l),
(80,347,ls),
(80,355,o),
(79,360,o),
(77,360,cs),
(77,360,ls),
(75,360,o),
(74,355,o),
(74,347,cs),
(74,347,l),
(67,347,l),
(67,347,ls),
(67,355,o),
(66,360,o),
(64,360,cs),
(64,360,ls),
(62,360,o),
(60,355,o),
(60,347,cs),
(60,347,l),
(53,347,l),
(53,347,ls),
(53,355,o),
(52,360,o),
(50,360,cs),
(50,360,ls),
(48,360,o),
(47,355,o),
(47,347,cs),
(47,347,l),
(40,347,l),
(40,347,ls),
(40,355,o),
(39,360,o),
(37,360,cs),
(37,360,ls),
(35,360,o),
(33,355,o),
(33,347,cs),
(33,347,l)
);
}
);
width = 101;
}
);
note = uni0749;
unicode = 1865;
},
{
glyphname = uni074A;
lastChange = "2024-07-19 06:05:23 +0000";
layers = (
{
anchors = (
{
name = _top;
pos = (68,221);
}
);
hints = (
{
horizontal = 1;
place = (352,44);
type = Stem;
},
{
horizontal = 1;
place = (352,20);
type = Stem;
},
{
horizontal = 1;
place = (328,12);
type = Stem;
},
{
horizontal = 1;
place = (295,21);
type = Stem;
},
{
horizontal = 1;
place = (271,45);
type = Stem;
},
{
place = (18,43);
type = Stem;
},
{
place = (-6,43);
type = Stem;
},
{
place = (-6,12);
type = Stem;
},
{
place = (-37,19);
type = Stem;
},
{
place = (-61,43);
type = Stem;
}
);
layerId = m01;
shapes = (
{
closed = 1;
nodes = (
(0,340,l),
(0,315,l),
(55,315,l),
(55,260,l),
(80,260,l),
(80,315,l),
(135,315,l),
(135,340,l),
(80,340,l),
(80,395,l),
(55,395,l),
(55,340,l)
);
},
{
closed = 1;
nodes = (
(40,275,l),
(40,300,l),
(15,300,l),
(15,275,l)
);
},
{
closed = 1;
nodes = (
(40,355,l),
(40,380,l),
(15,380,l),
(15,355,l)
);
},
{
closed = 1;
nodes = (
(120,275,l),
(120,300,l),
(95,300,l),
(95,275,l)
);
},
{
closed = 1;
nodes = (
(120,355,l),
(120,380,l),
(95,380,l),
(95,355,l)
);
}
);
width = 135;
},
{
anchors = (
{
name = _top;
pos = (68,221);
}
);
hints = (
{
horizontal = 1;
place = (352,44);
type = Stem;
},
{
horizontal = 1;
place = (352,20);
type = Stem;
},
{
horizontal = 1;
place = (328,12);
type = Stem;
},
{
horizontal = 1;
place = (295,21);
type = Stem;
},
{
horizontal = 1;
place = (271,45);
type = Stem;
},
{
place = (18,43);
type = Stem;
},
{
place = (-6,43);
type = Stem;
},
{
place = (-6,12);
type = Stem;
},
{
place = (-37,19);
type = Stem;
},
{
place = (-61,43);
type = Stem;
}
);
layerId = "9037C244-7DB9-46F9-B5BF-70F624EA3C1F";
shapes = (
{
closed = 1;
nodes = (
(20,340,ls),
(7,340,o),
(0,335,o),
(0,328,cs),
(0,328,ls),
(0,320,o),
(7,315,o),
(20,315,cs),
(55,315,l),
(55,280,ls),
(55,267,o),
(60,260,o),
(68,260,cs),
(68,260,ls),
(76,260,o),
(80,267,o),
(80,280,cs),
(80,315,l),
(115,315,ls),
(128,315,o),
(135,320,o),
(135,328,cs),
(135,328,ls),
(135,336,o),
(128,340,o),
(115,340,cs),
(80,340,l),
(80,375,ls),
(80,388,o),
(75,395,o),
(68,395,cs),
(68,395,ls),
(60,395,o),
(55,388,o),
(55,375,cs),
(55,340,l)
);
},
{
closed = 1;
nodes = (
(28,275,ls),
(35,275,o),
(40,280,o),
(40,288,cs),
(40,288,ls),
(40,296,o),
(35,300,o),
(28,300,cs),
(28,300,ls),
(20,300,o),
(15,295,o),
(15,288,cs),
(15,288,ls),
(15,280,o),
(20,275,o),
(28,275,cs)
);
},
{
closed = 1;
nodes = (
(28,355,ls),
(35,355,o),
(40,360,o),
(40,368,cs),
(40,368,ls),
(40,376,o),
(35,380,o),
(28,380,cs),
(28,380,ls),
(20,380,o),
(15,375,o),
(15,368,cs),
(15,368,ls),
(15,360,o),
(20,355,o),
(28,355,cs)
);
},
{
closed = 1;
nodes = (
(108,275,ls),
(115,275,o),
(120,280,o),
(120,288,cs),
(120,288,ls),
(120,296,o),
(115,300,o),
(108,300,cs),
(108,300,ls),
(100,300,o),
(95,295,o),
(95,288,cs),
(95,288,ls),
(95,280,o),
(100,275,o),
(108,275,cs)
);
},
{
closed = 1;
nodes = (
(108,355,ls),
(115,355,o),
(120,360,o),
(120,368,cs),
(120,368,ls),
(120,376,o),
(115,380,o),
(108,380,cs),
(108,380,ls),
(100,380,o),
(95,375,o),
(95,368,cs),
(95,368,ls),
(95,360,o),
(100,355,o),
(108,355,cs)
);
}
);
width = 135;
}
);
note = uni074A;
unicode = 1866;
},
